<svg preserveAspectRatio="none" width="100%" height="100%" overflow="visible" style="display: block;" viewBox="0 0 94.6667 26.6667" fill="none" xmlns="http://www.w3.org/2000/svg">
<path id="Vector" d="M24.0768 14.1568C24.2345 15.0119 24.3292 15.8987 24.3292 16.7854V26.0016C24.3292 26.1283 24.2345 26.2233 24.1083 26.2233H21.1106C20.9843 26.2233 20.8897 26.1283 20.8897 26.0016V17.1972C20.8897 16.6271 20.8581 16.057 20.7635 15.4869C20.7003 15.0119 20.5426 14.5368 20.3217 14.0934C20.1008 13.7134 19.7537 13.365 19.375 13.1433C18.8701 12.8899 18.3021 12.7633 17.7341 12.7949C16.3773 12.7949 15.399 13.2067 14.831 14.0301C14.263 14.8535 13.8844 15.9937 13.8844 17.3555V26.0016C13.8844 26.1283 13.7897 26.2233 13.6635 26.2233H10.6657C10.5395 26.2233 10.4448 26.1283 10.4448 26.0016V17.7039C10.4448 17.0388 10.4133 16.342 10.3186 15.677C10.2555 15.1386 10.0977 14.6318 9.87684 14.1251C9.68751 13.7134 9.37195 13.365 8.96173 13.1433C8.45685 12.8899 7.88885 12.7633 7.32085 12.7949C6.81597 12.7949 6.31108 12.8899 5.86931 13.08C5.39597 13.27 4.98575 13.5867 4.63864 13.9667C4.25998 14.4101 3.97598 14.9485 3.78665 15.5186C3.56576 16.247 3.43954 17.0071 3.47109 17.7672V26.0016C3.47109 26.1283 3.37643 26.2233 3.25021 26.2233H0.220888C0.0946662 26.2233 0 26.1283 0 26.0016V10.1663C0 10.0396 0.0946662 9.94458 0.220888 9.94458H3.02932C3.15554 9.94458 3.25021 10.0396 3.25021 10.1663V11.8765C3.31332 11.8131 3.37643 11.7181 3.43954 11.6548C3.75509 11.2747 4.13376 10.9264 4.54398 10.6413C5.01731 10.293 5.55375 10.0396 6.12175 9.84957C6.78441 9.62787 7.44707 9.53286 8.14129 9.53286C9.21418 9.50119 10.2871 9.75455 11.2337 10.293C11.9911 10.768 12.6222 11.4331 13.0639 12.2249C13.5688 11.4014 14.263 10.7363 15.115 10.293C16.0301 9.78622 17.0399 9.53286 18.0497 9.53286C19.1226 9.50119 20.1955 9.72288 21.1421 10.1663C21.8994 10.5463 22.5621 11.1164 23.067 11.8448C23.5719 12.5416 23.919 13.3017 24.0768 14.1568ZM40.4856 24.6714C40.5171 25.1148 40.5487 25.5899 40.5802 26.0016C40.5802 26.1283 40.5171 26.255 40.3909 26.255H37.7087C37.5825 26.255 37.4878 26.1599 37.4878 26.0333C37.4247 25.4315 37.4247 24.8298 37.3932 24.228C36.8567 24.9881 36.1309 25.5899 35.2789 26.0016C34.2692 26.445 33.1332 26.6667 32.0287 26.6667C31.303 26.6667 30.5772 26.5717 29.8514 26.35C29.1887 26.1599 28.5576 25.8432 28.0212 25.3998C27.4848 24.9881 27.0745 24.4181 26.7905 23.8163C26.475 23.1512 26.3172 22.3911 26.3488 21.6627C26.3172 20.7126 26.5696 19.7625 27.0745 18.9707C27.5794 18.2423 28.2421 17.6405 29.031 17.1972C29.9145 16.7221 30.8927 16.4054 31.871 16.247C33.0069 16.057 34.1429 15.962 35.2789 15.962H37.2354V15.5186C37.2354 15.1386 37.1723 14.7585 37.0145 14.4101C36.8567 14.0301 36.6358 13.6817 36.3518 13.3967C36.0363 13.08 35.6576 12.8583 35.2789 12.6999C34.7741 12.5099 34.2376 12.4149 33.7012 12.4466C33.1963 12.4466 32.723 12.5099 32.2496 12.6049C31.8394 12.6999 31.4607 12.8266 31.0821 13.0166C30.7665 13.175 30.451 13.365 30.167 13.5867L29.315 14.2201C29.2203 14.2835 29.0941 14.2835 28.9994 14.1884L27.2008 12.3199C27.1692 12.2882 27.1376 12.2249 27.1376 12.1615C27.1376 12.0982 27.1692 12.0348 27.2008 12.0032C28.0843 11.2114 29.0941 10.578 30.2301 10.1979C31.3345 9.8179 32.4705 9.5962 33.6381 9.5962C34.6794 9.56453 35.7207 9.72288 36.6989 10.0396C37.4878 10.293 38.2136 10.7047 38.8447 11.2431C39.3811 11.7181 39.8229 12.3515 40.0754 13.0166C40.3278 13.6817 40.4856 14.3785 40.4856 15.0752V23.1196C40.454 23.6896 40.454 24.1964 40.4856 24.6714ZM35.8154 18.6223C35.0896 18.6223 34.3638 18.654 33.6696 18.749C33.0069 18.8124 32.3443 18.9707 31.6816 19.1924C31.1452 19.3824 30.6719 19.6675 30.2616 20.0792C29.9145 20.4592 29.7252 20.9343 29.7567 21.441C29.7567 22.2644 30.0092 22.8662 30.5772 23.2146C31.303 23.6263 32.1234 23.8163 32.9438 23.7846C33.6381 23.8163 34.3007 23.658 34.9318 23.4046C35.4367 23.1829 35.8785 22.8029 36.2572 22.3911C36.5727 21.9794 36.8252 21.5044 36.9829 20.9976C37.1407 20.4909 37.2038 19.9842 37.2038 19.4458V18.6857L35.8154 18.6223ZM52.4766 22.9295C52.4135 22.8979 52.3189 22.8979 52.2557 22.9295C51.9717 23.0879 51.6562 23.2146 51.3091 23.2779C50.962 23.3413 50.6149 23.3729 50.2362 23.3729C49.826 23.4046 49.4158 23.3096 49.0371 23.0879C48.7847 22.8979 48.5638 22.6445 48.4375 22.3595C48.3113 22.0111 48.2167 21.631 48.2167 21.2827C48.1851 20.8709 48.1851 20.4276 48.1851 19.9842V12.985H52.2557C52.382 12.985 52.4766 12.8899 52.4766 12.7633V10.1663C52.4766 10.0396 52.382 9.94458 52.2557 9.94458H48.1851V5.70071C48.1851 5.57403 48.0904 5.47902 47.9642 5.47902H44.9664C44.8402 5.47902 44.7456 5.57403 44.7456 5.70071V9.91291H41.5269C41.4007 9.91291 41.306 10.0079 41.306 10.1346V12.7316C41.306 12.8583 41.4007 12.9533 41.5269 12.9533H44.7771V20.9976C44.7771 21.6627 44.8087 22.2961 44.8718 22.9295C44.9349 23.5629 45.1242 24.1964 45.4398 24.7664C45.7869 25.3365 46.3233 25.8116 46.9229 26.0966C47.8064 26.4766 48.7531 26.6667 49.6998 26.6033C50.1415 26.6033 50.6149 26.54 51.0566 26.4766C51.5615 26.4133 52.0664 26.2549 52.5082 26.0333C52.5713 26.0016 52.6344 25.9066 52.6344 25.8432V23.1196C52.6029 23.0562 52.5397 22.9612 52.4766 22.9295ZM58.7562 14.4418C59.1348 13.9351 59.6397 13.555 60.2077 13.27C60.8388 12.9533 61.533 12.8266 62.2588 12.8266C62.9846 12.7949 63.6788 12.9533 64.3415 13.2383C64.9726 13.555 65.5406 13.9984 66.0139 14.5051C66.1086 14.6002 66.2348 14.6002 66.3295 14.5051L68.6014 12.4466C68.633 12.4149 68.6646 12.3515 68.6646 12.2882C68.6646 12.2249 68.633 12.1615 68.6014 12.1298C67.8126 11.2747 66.8343 10.6097 65.7615 10.1663C64.6886 9.75455 63.521 9.53286 62.3535 9.53286C61.1544 9.50119 59.9868 9.72288 58.8824 10.1663C56.8313 10.958 55.222 12.6049 54.4646 14.6635C54.0544 15.772 53.8335 16.9438 53.8651 18.1156C53.8651 19.2874 54.0544 20.4592 54.4646 21.5677C54.8748 22.5812 55.4744 23.4996 56.2633 24.2914C57.0206 25.0515 57.9357 25.6532 58.9455 26.0333C60.0499 26.445 61.2175 26.6667 62.385 26.6667C63.521 26.6667 64.657 26.445 65.7299 26.0649C66.8028 25.6532 67.781 24.9881 68.5383 24.133C68.633 24.038 68.633 23.9113 68.5383 23.8163L66.3926 21.6627C66.2979 21.5677 66.1717 21.5677 66.077 21.6627C65.6352 22.1694 65.0988 22.6128 64.4677 22.9295C63.8366 23.2462 63.1108 23.3729 62.4166 23.3413C61.7224 23.3413 61.0281 23.2146 60.397 22.9612C59.829 22.7078 59.2926 22.3278 58.8824 21.8527C58.4406 21.3777 58.1251 20.8076 57.9042 20.2059C57.6833 19.5724 57.557 18.8757 57.557 18.2106C57.557 17.5139 57.6517 16.8171 57.8726 16.152C58.0619 15.5186 58.3775 14.9485 58.7562 14.4418ZM84.6947 12.985C84.4107 12.2249 83.9689 11.5598 83.4009 11.0214C82.8645 10.5146 82.2018 10.1346 81.4761 9.88124C80.7503 9.62787 79.9929 9.53286 79.2041 9.53286C78.0365 9.50119 76.9005 9.78622 75.8592 10.3563C75.1965 10.7047 74.597 11.2431 74.1552 11.8448V0.728424C74.1552 0.601742 74.0605 0.50673 73.9343 0.50673H70.9365C70.8103 0.50673 70.7157 0.601742 70.7157 0.728424V26.0016C70.7157 26.1283 70.8103 26.2233 70.9365 26.2233H73.9343C74.0605 26.2233 74.1552 26.1283 74.1552 26.0016V17.8622C74.1236 17.0705 74.2499 16.3104 74.4707 15.5503C74.6601 14.9802 74.9441 14.4418 75.3543 13.9984C75.7014 13.5867 76.1747 13.3017 76.6796 13.1116C77.2161 12.9216 77.7525 12.8266 78.3205 12.8266C78.7623 12.8266 79.1725 12.8899 79.5827 13.0166C79.9929 13.1433 80.3401 13.365 80.6556 13.65C81.0027 13.9984 81.2552 14.4101 81.4129 14.8535C81.6023 15.4236 81.6969 16.057 81.6969 16.6587V26.0333C81.6969 26.1599 81.7916 26.255 81.9178 26.255H84.9156C85.0418 26.255 85.1365 26.1599 85.1365 26.0333V15.8036C85.1996 14.8535 85.0418 13.9034 84.6947 12.985ZM88.4813 11.4014C88.6076 11.4014 88.7338 11.3381 88.8285 11.2747C89.996 10.483 91.1004 9.62787 92.1418 8.70942C93.404 7.53761 94.6662 5.89074 94.6662 3.67379C94.6978 1.67854 93.12 0.0316706 91.132 0C89.3649 0 88.4813 1.52019 88.4813 1.52019H88.4498C88.4498 1.52019 87.5662 0 85.7991 0C83.8111 0.0316706 82.2334 1.67854 82.2649 3.67379C82.2649 5.89074 83.5587 7.53761 84.7894 8.70942C85.8307 9.62787 86.9667 10.5146 88.1027 11.2747C88.1974 11.3698 88.3551 11.4014 88.4813 11.4014Z" fill="var(--fill-0, #1730E5)"/>
</svg>
