<svg preserveAspectRatio="none" width="100%" height="100%" overflow="visible" style="display: block;" viewBox="0 0 398 395" fill="none" xmlns="http://www.w3.org/2000/svg">
<g id="Pattern Right">
<path fill-rule="evenodd" clip-rule="evenodd" d="M7.03535 6.54563C6.30156 6.54563 5.7067 7.13885 5.7067 7.87063V10.516C5.7067 10.9264 5.37304 11.2591 4.96146 11.2591H0.745231C0.333651 11.2591 0 10.9264 0 10.516V7.87063C0 3.99582 3.14984 0.854662 7.03535 0.854662C10.9209 0.854662 14.0707 3.99582 14.0707 7.87063V10.516C14.0707 10.9264 13.7371 11.2591 13.3255 11.2591H9.10924C8.69766 11.2591 8.36401 10.9264 8.36401 10.516V7.87063C8.36401 7.13885 7.76915 6.54563 7.03535 6.54563Z" fill="url(#paint0_radial_4706_14377)" fill-opacity="0.2"/>
<path d="M48.0191 6.07569C48.0191 9.41056 45.3081 12.114 41.9641 12.114C38.62 12.114 35.909 9.41056 35.909 6.07569C35.909 2.74082 38.62 0.0373726 41.9641 0.0373726C45.3081 0.0373726 48.0191 2.74082 48.0191 6.07569Z" fill="url(#paint1_radial_4706_14377)" fill-opacity="0.2"/>
<path d="M81.8206 0.111363C82.3668 0.111363 82.8096 0.552938 82.8096 1.09765V11.0159C82.8096 11.5606 82.3668 12.0022 81.8206 12.0022H71.8749C71.3287 12.0022 70.8859 11.5606 70.8859 11.0159V1.09765C70.8859 0.552938 71.3287 0.111363 71.8749 0.111363H81.8206Z" fill="url(#paint2_radial_4706_14377)" fill-opacity="0.2"/>
<path fill-rule="evenodd" clip-rule="evenodd" d="M111.743 6.54563C111.009 6.54563 110.415 7.13885 110.415 7.87063V10.516C110.415 10.9264 110.081 11.2591 109.669 11.2591H105.453C105.042 11.2591 104.708 10.9264 104.708 10.516V7.87063C104.708 3.99582 107.858 0.854662 111.743 0.854662C115.629 0.854662 118.779 3.99582 118.779 7.87063V10.516C118.779 10.9264 118.445 11.2591 118.033 11.2591H113.817C113.406 11.2591 113.072 10.9264 113.072 10.516V7.87063C113.072 7.13885 112.477 6.54563 111.743 6.54563Z" fill="url(#paint3_radial_4706_14377)" fill-opacity="0.2"/>
<path d="M153.235 5.32804C153.501 5.78792 153.501 6.35452 153.235 6.8144L150.602 11.3619C150.336 11.8218 149.844 12.1051 149.312 12.1051L144.046 12.1051C143.514 12.1051 143.022 11.8218 142.755 11.3619L140.123 6.8144C139.856 6.35452 139.856 5.78792 140.123 5.32804L142.755 0.780549C143.022 0.32067 143.514 0.0373721 144.046 0.0373722L149.312 0.0373724C149.844 0.0373724 150.336 0.32067 150.602 0.78055L153.235 5.32804Z" fill="url(#paint4_radial_4706_14377)" fill-opacity="0.2"/>
<path d="M187.629 6.07569C187.629 9.41056 184.918 12.114 181.574 12.114C178.23 12.114 175.519 9.41056 175.519 6.07569C175.519 2.74082 178.23 0.0373726 181.574 0.0373726C184.918 0.0373726 187.629 2.74082 187.629 6.07569Z" fill="url(#paint5_radial_4706_14377)" fill-opacity="0.2"/>
<path d="M215.827 0.371589C216.114 -0.123863 216.831 -0.123863 217.118 0.371589L223.28 11.0143C223.567 11.5097 223.208 12.129 222.634 12.129H210.311C209.738 12.129 209.379 11.5097 209.666 11.0143L215.827 0.371589Z" fill="url(#paint6_radial_4706_14377)" fill-opacity="0.2"/>
<path fill-rule="evenodd" clip-rule="evenodd" d="M251.354 6.54563C250.62 6.54563 250.025 7.13885 250.025 7.87063V10.516C250.025 10.9264 249.692 11.2591 249.28 11.2591H245.064C244.652 11.2591 244.318 10.9264 244.318 10.516V7.87063C244.318 3.99582 247.468 0.854662 251.354 0.854662C255.239 0.854662 258.389 3.99582 258.389 7.87063V10.516C258.389 10.9264 258.056 11.2591 257.644 11.2591H253.428C253.016 11.2591 252.682 10.9264 252.682 10.516V7.87063C252.682 7.13885 252.088 6.54563 251.354 6.54563Z" fill="url(#paint7_radial_4706_14377)" fill-opacity="0.2"/>
<path d="M291.236 0.111363C291.782 0.111363 292.225 0.552938 292.225 1.09765V11.0159C292.225 11.5606 291.782 12.0022 291.236 12.0022H281.291C280.744 12.0022 280.302 11.5606 280.302 11.0159V1.09765C280.302 0.552938 280.744 0.111363 281.291 0.111363H291.236Z" fill="url(#paint8_radial_4706_14377)" fill-opacity="0.2"/>
<path fill-rule="evenodd" clip-rule="evenodd" d="M321.159 6.54563C320.425 6.54563 319.83 7.13885 319.83 7.87063V10.516C319.83 10.9264 319.497 11.2591 319.085 11.2591H314.869C314.457 11.2591 314.124 10.9264 314.124 10.516V7.87063C314.124 3.99582 317.274 0.854662 321.159 0.854662C325.045 0.854662 328.194 3.99582 328.194 7.87063V10.516C328.194 10.9264 327.861 11.2591 327.449 11.2591H323.233C322.821 11.2591 322.488 10.9264 322.488 10.516V7.87063C322.488 7.13885 321.893 6.54563 321.159 6.54563Z" fill="url(#paint9_radial_4706_14377)" fill-opacity="0.2"/>
<path d="M362.651 5.32804C362.917 5.78792 362.917 6.35452 362.651 6.8144L360.018 11.3619C359.752 11.8218 359.26 12.1051 358.728 12.1051L353.462 12.1051C352.93 12.1051 352.438 11.8218 352.171 11.3619L349.539 6.8144C349.272 6.35452 349.272 5.78792 349.539 5.32804L352.171 0.780549C352.438 0.32067 352.93 0.0373721 353.462 0.0373722L358.728 0.0373724C359.26 0.0373724 359.752 0.32067 360.018 0.78055L362.651 5.32804Z" fill="url(#paint10_radial_4706_14377)" fill-opacity="0.2"/>
<path d="M390.341 0.371589C390.628 -0.123863 391.345 -0.123863 391.632 0.371589L397.793 11.0143C398.08 11.5097 397.722 12.129 397.148 12.129H384.825C384.251 12.129 383.893 11.5097 384.179 11.0143L390.341 0.371589Z" fill="url(#paint11_radial_4706_14377)" fill-opacity="0.2"/>
<path d="M13.1162 40.882C13.1162 44.2169 10.4053 46.9203 7.06117 46.9203C3.71709 46.9203 1.00617 44.2169 1.00617 40.882C1.00617 37.5471 3.71709 34.8437 7.06117 34.8437C10.4053 34.8437 13.1162 37.5471 13.1162 40.882Z" fill="url(#paint12_radial_4706_14377)" fill-opacity="0.2"/>
<path d="M46.9181 34.9181C47.4643 34.9181 47.9071 35.3596 47.9071 35.9043V45.8226C47.9071 46.3673 47.4643 46.8089 46.9181 46.8089H36.9724C36.4262 46.8089 35.9834 46.3673 35.9834 45.8226V35.9043C35.9834 35.3596 36.4262 34.9181 36.9724 34.9181H46.9181Z" fill="url(#paint13_radial_4706_14377)" fill-opacity="0.2"/>
<path fill-rule="evenodd" clip-rule="evenodd" d="M76.8409 41.3519C76.1071 41.3519 75.5123 41.9452 75.5123 42.6769V45.3223C75.5123 45.7327 75.1786 46.0655 74.767 46.0655H70.5508C70.1392 46.0655 69.8056 45.7327 69.8056 45.3223V42.6769C69.8056 38.8021 72.9554 35.661 76.8409 35.661C80.7264 35.661 83.8763 38.8021 83.8763 42.6769V45.3223C83.8763 45.7327 83.5426 46.0655 83.131 46.0655H78.9148C78.5032 46.0655 78.1696 45.7327 78.1696 45.3223V42.6769C78.1696 41.9452 77.5747 41.3519 76.8409 41.3519Z" fill="url(#paint14_radial_4706_14377)" fill-opacity="0.2"/>
<path d="M118.332 40.1344C118.599 40.5942 118.599 41.1608 118.332 41.6207L115.7 46.1682C115.433 46.6281 114.941 46.9114 114.409 46.9114H109.143C108.611 46.9114 108.119 46.6281 107.853 46.1682L105.22 41.6207C104.954 41.1608 104.954 40.5942 105.22 40.1344L107.853 35.5869C108.119 35.127 108.611 34.8437 109.143 34.8437H114.409C114.941 34.8437 115.433 35.127 115.7 35.5869L118.332 40.1344Z" fill="url(#paint15_radial_4706_14377)" fill-opacity="0.2"/>
<path d="M146.022 35.1779C146.309 34.6825 147.026 34.6825 147.313 35.1779L153.475 45.8206C153.762 46.316 153.403 46.9353 152.829 46.9353H140.506C139.933 46.9353 139.574 46.316 139.861 45.8206L146.022 35.1779Z" fill="url(#paint16_radial_4706_14377)" fill-opacity="0.2"/>
<path fill-rule="evenodd" clip-rule="evenodd" d="M181.548 41.3519C180.815 41.3519 180.22 41.9452 180.22 42.6769V45.3223C180.22 45.7327 179.886 46.0655 179.475 46.0655H175.258C174.847 46.0655 174.513 45.7327 174.513 45.3223V42.6769C174.513 38.8021 177.663 35.661 181.548 35.661C185.434 35.661 188.584 38.8021 188.584 42.6769V45.3223C188.584 45.7327 188.25 46.0655 187.839 46.0655H183.622C183.211 46.0655 182.877 45.7327 182.877 45.3223V42.6769C182.877 41.9452 182.282 41.3519 181.548 41.3519Z" fill="url(#paint17_radial_4706_14377)" fill-opacity="0.2"/>
<path d="M222.532 40.882C222.532 44.2169 219.821 46.9203 216.477 46.9203C213.133 46.9203 210.422 44.2169 210.422 40.882C210.422 37.5471 213.133 34.8437 216.477 34.8437C219.821 34.8437 222.532 37.5471 222.532 40.882Z" fill="url(#paint18_radial_4706_14377)" fill-opacity="0.2"/>
<path d="M256.334 34.9181C256.88 34.9181 257.323 35.3596 257.323 35.9043V45.8226C257.323 46.3673 256.88 46.8089 256.334 46.8089H246.388C245.842 46.8089 245.399 46.3673 245.399 45.8226V35.9043C245.399 35.3596 245.842 34.9181 246.388 34.9181H256.334Z" fill="url(#paint19_radial_4706_14377)" fill-opacity="0.2"/>
<path fill-rule="evenodd" clip-rule="evenodd" d="M286.257 41.3519C285.523 41.3519 284.928 41.9452 284.928 42.6769V45.3223C284.928 45.7327 284.594 46.0655 284.183 46.0655H279.966C279.555 46.0655 279.221 45.7327 279.221 45.3223V42.6769C279.221 38.8021 282.371 35.661 286.257 35.661C290.142 35.661 293.292 38.8021 293.292 42.6769V45.3223C293.292 45.7327 292.958 46.0655 292.547 46.0655H288.33C287.919 46.0655 287.585 45.7327 287.585 45.3223V42.6769C287.585 41.9452 286.99 41.3519 286.257 41.3519Z" fill="url(#paint20_radial_4706_14377)" fill-opacity="0.2"/>
<path d="M327.748 40.1344C328.014 40.5942 328.014 41.1608 327.748 41.6207L325.116 46.1682C324.849 46.6281 324.357 46.9114 323.825 46.9114H318.559C318.027 46.9114 317.535 46.6281 317.268 46.1682L314.636 41.6207C314.369 41.1608 314.369 40.5942 314.636 40.1344L317.268 35.5869C317.535 35.127 318.027 34.8437 318.559 34.8437H323.825C324.357 34.8437 324.849 35.127 325.116 35.5869L327.748 40.1344Z" fill="url(#paint21_radial_4706_14377)" fill-opacity="0.2"/>
<path d="M355.438 35.1779C355.725 34.6825 356.442 34.6825 356.729 35.1779L362.89 45.8206C363.177 46.316 362.819 46.9353 362.245 46.9353H349.922C349.348 46.9353 348.99 46.316 349.276 45.8206L355.438 35.1779Z" fill="url(#paint22_radial_4706_14377)" fill-opacity="0.2"/>
<path fill-rule="evenodd" clip-rule="evenodd" d="M390.965 41.3519C390.231 41.3519 389.636 41.9452 389.636 42.6769V45.3223C389.636 45.7327 389.302 46.0655 388.891 46.0655H384.675C384.263 46.0655 383.929 45.7327 383.929 45.3223V42.6769C383.929 38.8021 387.079 35.661 390.965 35.661C394.85 35.661 398 38.8021 398 42.6769V45.3223C398 45.7327 397.666 46.0655 397.255 46.0655H393.039C392.627 46.0655 392.293 45.7327 392.293 45.3223V42.6769C392.293 41.9452 391.698 41.3519 390.965 41.3519Z" fill="url(#paint23_radial_4706_14377)" fill-opacity="0.2"/>
<path d="M13.6246 74.941C13.8908 75.4009 13.8908 75.9675 13.6246 76.4274L10.9918 80.9749C10.7256 81.4348 10.2335 81.7181 9.70103 81.7181H4.43553C3.90304 81.7181 3.411 81.4348 3.14475 80.9749L0.512 76.4274C0.245754 75.9675 0.245754 75.4009 0.512 74.941L3.14475 70.3936C3.411 69.9337 3.90304 69.6504 4.43553 69.6504H9.70103C10.2335 69.6504 10.7256 69.9337 10.9918 70.3936L13.6246 74.941Z" fill="url(#paint24_radial_4706_14377)" fill-opacity="0.2"/>
<path d="M48.0189 75.6887C48.0189 79.0236 45.3079 81.727 41.9639 81.727C38.6198 81.727 35.9089 79.0236 35.9089 75.6887C35.9089 72.3538 38.6198 69.6504 41.9639 69.6504C45.3079 69.6504 48.0189 72.3538 48.0189 75.6887Z" fill="url(#paint25_radial_4706_14377)" fill-opacity="0.2"/>
<path d="M81.8206 69.7247C82.3668 69.7247 82.8096 70.1663 82.8096 70.711V80.6293C82.8096 81.174 82.3668 81.6156 81.8206 81.6156H71.8749C71.3287 81.6156 70.8859 81.174 70.8859 80.6293V70.711C70.8859 70.1663 71.3287 69.7247 71.8749 69.7247H81.8206Z" fill="url(#paint26_radial_4706_14377)" fill-opacity="0.2"/>
<path d="M117.824 75.6887C117.824 79.0236 115.113 81.727 111.769 81.727C108.425 81.727 105.714 79.0236 105.714 75.6887C105.714 72.3538 108.425 69.6504 111.769 69.6504C115.113 69.6504 117.824 72.3538 117.824 75.6887Z" fill="url(#paint27_radial_4706_14377)" fill-opacity="0.2"/>
<path fill-rule="evenodd" clip-rule="evenodd" d="M146.646 76.159C145.912 76.159 145.317 76.7522 145.317 77.484V80.1293C145.317 80.5398 144.984 80.8725 144.572 80.8725H140.356C139.944 80.8725 139.611 80.5398 139.611 80.1293V77.484C139.611 73.6092 142.761 70.468 146.646 70.468C150.532 70.468 153.681 73.6092 153.681 77.484V80.1293C153.681 80.5398 153.348 80.8725 152.936 80.8725H148.72C148.308 80.8725 147.975 80.5398 147.975 80.1293V77.484C147.975 76.7522 147.38 76.159 146.646 76.159Z" fill="url(#paint28_radial_4706_14377)" fill-opacity="0.2"/>
<path d="M180.925 69.985C181.212 69.4895 181.929 69.4895 182.216 69.985L188.377 80.6276C188.664 81.1231 188.305 81.7424 187.732 81.7424H175.409C174.835 81.7424 174.476 81.1231 174.763 80.6276L180.925 69.985Z" fill="url(#paint29_radial_4706_14377)" fill-opacity="0.2"/>
<path d="M223.04 74.941C223.307 75.4009 223.307 75.9675 223.04 76.4274L220.408 80.9749C220.141 81.4348 219.649 81.7181 219.117 81.7181H213.851C213.319 81.7181 212.827 81.4348 212.561 80.9749L209.928 76.4274C209.662 75.9675 209.662 75.4009 209.928 74.941L212.561 70.3936C212.827 69.9337 213.319 69.6504 213.851 69.6504H219.117C219.649 69.6504 220.141 69.9337 220.408 70.3936L223.04 74.941Z" fill="url(#paint30_radial_4706_14377)" fill-opacity="0.2"/>
<path d="M257.434 75.6887C257.434 79.0236 254.724 81.727 251.379 81.727C248.035 81.727 245.324 79.0236 245.324 75.6887C245.324 72.3538 248.035 69.6504 251.379 69.6504C254.724 69.6504 257.434 72.3538 257.434 75.6887Z" fill="url(#paint31_radial_4706_14377)" fill-opacity="0.2"/>
<path d="M291.236 69.7247C291.783 69.7247 292.225 70.1663 292.225 70.711V80.6293C292.225 81.174 291.783 81.6156 291.236 81.6156H281.291C280.745 81.6156 280.302 81.174 280.302 80.6293V70.711C280.302 70.1663 280.745 69.7247 281.291 69.7247H291.236Z" fill="url(#paint32_radial_4706_14377)" fill-opacity="0.2"/>
<path d="M327.24 75.6887C327.24 79.0236 324.529 81.727 321.185 81.727C317.841 81.727 315.13 79.0236 315.13 75.6887C315.13 72.3538 317.841 69.6504 321.185 69.6504C324.529 69.6504 327.24 72.3538 327.24 75.6887Z" fill="url(#paint33_radial_4706_14377)" fill-opacity="0.2"/>
<path fill-rule="evenodd" clip-rule="evenodd" d="M356.062 76.159C355.328 76.159 354.733 76.7522 354.733 77.484V80.1293C354.733 80.5398 354.399 80.8725 353.988 80.8725H349.772C349.36 80.8725 349.026 80.5398 349.026 80.1293V77.484C349.026 73.6092 352.176 70.468 356.062 70.468C359.947 70.468 363.097 73.6092 363.097 77.484V80.1293C363.097 80.5398 362.763 80.8725 362.352 80.8725H358.136C357.724 80.8725 357.39 80.5398 357.39 80.1293V77.484C357.39 76.7522 356.796 76.159 356.062 76.159Z" fill="url(#paint34_radial_4706_14377)" fill-opacity="0.2"/>
<path d="M390.341 69.985C390.628 69.4895 391.345 69.4895 391.632 69.985L397.793 80.6276C398.08 81.1231 397.722 81.7424 397.148 81.7424H384.825C384.251 81.7424 383.893 81.1231 384.179 80.6276L390.341 69.985Z" fill="url(#paint35_radial_4706_14377)" fill-opacity="0.2"/>
<path fill-rule="evenodd" clip-rule="evenodd" d="M7.03535 110.965C6.30156 110.965 5.7067 111.558 5.7067 112.29V114.935C5.7067 115.345 5.37304 115.678 4.96146 115.678H0.745231C0.333651 115.678 0 115.345 0 114.935V112.29C0 108.415 3.14984 105.274 7.03535 105.274C10.9209 105.274 14.0707 108.415 14.0707 112.29V114.935C14.0707 115.345 13.7371 115.678 13.3255 115.678H9.10924C8.69766 115.678 8.36401 115.345 8.36401 114.935V112.29C8.36401 111.558 7.76915 110.965 7.03535 110.965Z" fill="url(#paint36_radial_4706_14377)" fill-opacity="0.2"/>
<path d="M48.0189 110.495C48.0189 113.829 45.3079 116.533 41.9639 116.533C38.6198 116.533 35.9089 113.829 35.9089 110.495C35.9089 107.16 38.6198 104.456 41.9639 104.456C45.3079 104.456 48.0189 107.16 48.0189 110.495Z" fill="url(#paint37_radial_4706_14377)" fill-opacity="0.2"/>
<path d="M81.8206 104.531C82.3668 104.531 82.8096 104.972 82.8096 105.517V115.435C82.8096 115.98 82.3668 116.422 81.8206 116.422H71.8749C71.3287 116.422 70.8859 115.98 70.8859 115.435V105.517C70.8859 104.972 71.3287 104.531 71.8749 104.531H81.8206Z" fill="url(#paint38_radial_4706_14377)" fill-opacity="0.2"/>
<path fill-rule="evenodd" clip-rule="evenodd" d="M111.743 110.965C111.009 110.965 110.415 111.558 110.415 112.29V114.935C110.415 115.345 110.081 115.678 109.669 115.678H105.453C105.042 115.678 104.708 115.345 104.708 114.935V112.29C104.708 108.415 107.858 105.274 111.743 105.274C115.629 105.274 118.779 108.415 118.779 112.29V114.935C118.779 115.345 118.445 115.678 118.033 115.678H113.817C113.406 115.678 113.072 115.345 113.072 114.935V112.29C113.072 111.558 112.477 110.965 111.743 110.965Z" fill="url(#paint39_radial_4706_14377)" fill-opacity="0.2"/>
<path d="M153.235 109.747C153.501 110.207 153.501 110.773 153.235 111.233L150.602 115.781C150.336 116.241 149.844 116.524 149.312 116.524H144.046C143.514 116.524 143.022 116.241 142.755 115.781L140.123 111.233C139.856 110.773 139.856 110.207 140.123 109.747L142.755 105.199C143.022 104.74 143.514 104.456 144.046 104.456H149.312C149.844 104.456 150.336 104.74 150.602 105.199L153.235 109.747Z" fill="url(#paint40_radial_4706_14377)" fill-opacity="0.2"/>
<path d="M187.629 110.495C187.629 113.829 184.918 116.533 181.574 116.533C178.23 116.533 175.519 113.829 175.519 110.495C175.519 107.16 178.23 104.456 181.574 104.456C184.918 104.456 187.629 107.16 187.629 110.495Z" fill="url(#paint41_radial_4706_14377)" fill-opacity="0.2"/>
<path d="M215.827 104.791C216.114 104.295 216.831 104.295 217.118 104.791L223.28 115.434C223.567 115.929 223.208 116.548 222.634 116.548H210.311C209.738 116.548 209.379 115.929 209.666 115.434L215.827 104.791Z" fill="url(#paint42_radial_4706_14377)" fill-opacity="0.2"/>
<path fill-rule="evenodd" clip-rule="evenodd" d="M251.354 110.965C250.62 110.965 250.025 111.558 250.025 112.29V114.935C250.025 115.345 249.692 115.678 249.28 115.678H245.064C244.652 115.678 244.318 115.345 244.318 114.935V112.29C244.318 108.415 247.468 105.274 251.354 105.274C255.239 105.274 258.389 108.415 258.389 112.29V114.935C258.389 115.345 258.056 115.678 257.644 115.678H253.428C253.016 115.678 252.682 115.345 252.682 114.935V112.29C252.682 111.558 252.088 110.965 251.354 110.965Z" fill="url(#paint43_radial_4706_14377)" fill-opacity="0.2"/>
<path d="M291.236 104.531C291.783 104.531 292.225 104.972 292.225 105.517V115.435C292.225 115.98 291.783 116.422 291.236 116.422H281.291C280.745 116.422 280.302 115.98 280.302 115.435V105.517C280.302 104.972 280.745 104.531 281.291 104.531H291.236Z" fill="url(#paint44_radial_4706_14377)" fill-opacity="0.2"/>
<path fill-rule="evenodd" clip-rule="evenodd" d="M321.159 110.965C320.425 110.965 319.83 111.558 319.83 112.29V114.935C319.83 115.345 319.497 115.678 319.085 115.678H314.869C314.457 115.678 314.124 115.345 314.124 114.935V112.29C314.124 108.415 317.274 105.274 321.159 105.274C325.045 105.274 328.194 108.415 328.194 112.29V114.935C328.194 115.345 327.861 115.678 327.449 115.678H323.233C322.821 115.678 322.488 115.345 322.488 114.935V112.29C322.488 111.558 321.893 110.965 321.159 110.965Z" fill="url(#paint45_radial_4706_14377)" fill-opacity="0.2"/>
<path d="M362.651 109.747C362.917 110.207 362.917 110.773 362.651 111.233L360.018 115.781C359.752 116.241 359.26 116.524 358.727 116.524H353.462C352.929 116.524 352.437 116.241 352.171 115.781L349.538 111.233C349.272 110.773 349.272 110.207 349.538 109.747L352.171 105.199C352.437 104.74 352.929 104.456 353.462 104.456H358.727C359.26 104.456 359.752 104.74 360.018 105.199L362.651 109.747Z" fill="url(#paint46_radial_4706_14377)" fill-opacity="0.2"/>
<path d="M390.341 104.791C390.628 104.295 391.345 104.295 391.632 104.791L397.793 115.434C398.08 115.929 397.722 116.548 397.148 116.548H384.825C384.251 116.548 383.893 115.929 384.179 115.434L390.341 104.791Z" fill="url(#paint47_radial_4706_14377)" fill-opacity="0.2"/>
<path d="M13.1162 145.301C13.1162 148.636 10.4053 151.34 7.06117 151.34C3.71709 151.34 1.00617 148.636 1.00617 145.301C1.00617 141.966 3.71709 139.263 7.06117 139.263C10.4053 139.263 13.1162 141.966 13.1162 145.301Z" fill="url(#paint48_radial_4706_14377)" fill-opacity="0.2"/>
<path d="M46.9181 139.337C47.4643 139.337 47.9071 139.779 47.9071 140.324V150.242C47.9071 150.787 47.4643 151.228 46.9181 151.228H36.9724C36.4262 151.228 35.9834 150.787 35.9834 150.242V140.324C35.9834 139.779 36.4262 139.337 36.9724 139.337H46.9181Z" fill="url(#paint49_radial_4706_14377)" fill-opacity="0.2"/>
<path fill-rule="evenodd" clip-rule="evenodd" d="M76.8409 145.772C76.1071 145.772 75.5123 146.365 75.5123 147.097V149.742C75.5123 150.152 75.1786 150.485 74.767 150.485H70.5508C70.1392 150.485 69.8056 150.152 69.8056 149.742V147.097C69.8056 143.222 72.9554 140.081 76.8409 140.081C80.7264 140.081 83.8763 143.222 83.8763 147.097V149.742C83.8763 150.152 83.5426 150.485 83.131 150.485H78.9148C78.5032 150.485 78.1696 150.152 78.1696 149.742V147.097C78.1696 146.365 77.5747 145.772 76.8409 145.772Z" fill="url(#paint50_radial_4706_14377)" fill-opacity="0.2"/>
<path d="M118.332 144.554C118.599 145.014 118.599 145.58 118.332 146.04L115.7 150.588C115.433 151.047 114.941 151.331 114.409 151.331H109.143C108.611 151.331 108.119 151.047 107.853 150.588L105.22 146.04C104.954 145.58 104.954 145.014 105.22 144.554L107.853 140.006C108.119 139.546 108.611 139.263 109.143 139.263H114.409C114.941 139.263 115.433 139.546 115.7 140.006L118.332 144.554Z" fill="url(#paint51_radial_4706_14377)" fill-opacity="0.2"/>
<path d="M146.022 139.598C146.309 139.102 147.026 139.102 147.313 139.598L153.475 150.24C153.762 150.736 153.403 151.355 152.829 151.355H140.506C139.933 151.355 139.574 150.736 139.861 150.24L146.022 139.598Z" fill="url(#paint52_radial_4706_14377)" fill-opacity="0.2"/>
<path fill-rule="evenodd" clip-rule="evenodd" d="M181.548 145.772C180.815 145.772 180.22 146.365 180.22 147.097V149.742C180.22 150.152 179.886 150.485 179.475 150.485H175.258C174.847 150.485 174.513 150.152 174.513 149.742V147.097C174.513 143.222 177.663 140.081 181.548 140.081C185.434 140.081 188.584 143.222 188.584 147.097V149.742C188.584 150.152 188.25 150.485 187.839 150.485H183.622C183.211 150.485 182.877 150.152 182.877 149.742V147.097C182.877 146.365 182.282 145.772 181.548 145.772Z" fill="url(#paint53_radial_4706_14377)" fill-opacity="0.2"/>
<path d="M222.532 145.301C222.532 148.636 219.821 151.34 216.477 151.34C213.133 151.34 210.422 148.636 210.422 145.301C210.422 141.966 213.133 139.263 216.477 139.263C219.821 139.263 222.532 141.966 222.532 145.301Z" fill="url(#paint54_radial_4706_14377)" fill-opacity="0.2"/>
<path d="M256.334 139.337C256.88 139.337 257.323 139.779 257.323 140.324V150.242C257.323 150.787 256.88 151.228 256.334 151.228H246.388C245.842 151.228 245.399 150.787 245.399 150.242V140.324C245.399 139.779 245.842 139.337 246.388 139.337H256.334Z" fill="url(#paint55_radial_4706_14377)" fill-opacity="0.2"/>
<path fill-rule="evenodd" clip-rule="evenodd" d="M286.257 145.772C285.523 145.772 284.928 146.365 284.928 147.097V149.742C284.928 150.152 284.594 150.485 284.183 150.485H279.966C279.555 150.485 279.221 150.152 279.221 149.742V147.097C279.221 143.222 282.371 140.081 286.257 140.081C290.142 140.081 293.292 143.222 293.292 147.097V149.742C293.292 150.152 292.958 150.485 292.547 150.485H288.33C287.919 150.485 287.585 150.152 287.585 149.742V147.097C287.585 146.365 286.99 145.772 286.257 145.772Z" fill="url(#paint56_radial_4706_14377)" fill-opacity="0.2"/>
<path d="M327.748 144.554C328.014 145.014 328.014 145.58 327.748 146.04L325.116 150.588C324.849 151.047 324.357 151.331 323.825 151.331H318.559C318.027 151.331 317.535 151.047 317.268 150.588L314.636 146.04C314.369 145.58 314.369 145.014 314.636 144.554L317.268 140.006C317.535 139.546 318.027 139.263 318.559 139.263H323.825C324.357 139.263 324.849 139.546 325.116 140.006L327.748 144.554Z" fill="url(#paint57_radial_4706_14377)" fill-opacity="0.2"/>
<path d="M355.438 139.598C355.725 139.102 356.442 139.102 356.729 139.598L362.89 150.24C363.177 150.736 362.819 151.355 362.245 151.355H349.922C349.348 151.355 348.99 150.736 349.276 150.24L355.438 139.598Z" fill="url(#paint58_radial_4706_14377)" fill-opacity="0.2"/>
<path fill-rule="evenodd" clip-rule="evenodd" d="M390.965 145.772C390.231 145.772 389.636 146.365 389.636 147.097V149.742C389.636 150.152 389.302 150.485 388.891 150.485H384.675C384.263 150.485 383.929 150.152 383.929 149.742V147.097C383.929 143.222 387.079 140.081 390.965 140.081C394.85 140.081 398 143.222 398 147.097V149.742C398 150.152 397.666 150.485 397.255 150.485H393.039C392.627 150.485 392.293 150.152 392.293 149.742V147.097C392.293 146.365 391.698 145.772 390.965 145.772Z" fill="url(#paint59_radial_4706_14377)" fill-opacity="0.2"/>
<path d="M13.6246 179.36C13.8908 179.819 13.8908 180.386 13.6246 180.846L10.9918 185.393C10.7256 185.853 10.2335 186.137 9.70103 186.137H4.43553C3.90304 186.137 3.411 185.853 3.14475 185.393L0.512 180.846C0.245754 180.386 0.245754 179.819 0.512 179.36L3.14475 174.812C3.411 174.352 3.90304 174.069 4.43553 174.069H9.70103C10.2335 174.069 10.7256 174.352 10.9918 174.812L13.6246 179.36Z" fill="url(#paint60_radial_4706_14377)" fill-opacity="0.2"/>
<path d="M48.0189 180.107C48.0189 183.442 45.3079 186.146 41.9639 186.146C38.6198 186.146 35.9089 183.442 35.9089 180.107C35.9089 176.772 38.6198 174.069 41.9639 174.069C45.3079 174.069 48.0189 176.772 48.0189 180.107Z" fill="url(#paint61_radial_4706_14377)" fill-opacity="0.2"/>
<path d="M81.8206 174.143C82.3668 174.143 82.8096 174.585 82.8096 175.13V185.048C82.8096 185.593 82.3668 186.034 81.8206 186.034H71.8749C71.3287 186.034 70.8859 185.593 70.8859 185.048V175.13C70.8859 174.585 71.3287 174.143 71.8749 174.143H81.8206Z" fill="url(#paint62_radial_4706_14377)" fill-opacity="0.2"/>
<path d="M117.824 180.107C117.824 183.442 115.113 186.146 111.769 186.146C108.425 186.146 105.714 183.442 105.714 180.107C105.714 176.772 108.425 174.069 111.769 174.069C115.113 174.069 117.824 176.772 117.824 180.107Z" fill="url(#paint63_radial_4706_14377)" fill-opacity="0.2"/>
<path fill-rule="evenodd" clip-rule="evenodd" d="M146.646 180.577C145.912 180.577 145.317 181.17 145.317 181.902V184.548C145.317 184.958 144.984 185.291 144.572 185.291H140.356C139.944 185.291 139.611 184.958 139.611 184.548V181.902C139.611 178.027 142.761 174.886 146.646 174.886C150.532 174.886 153.681 178.027 153.681 181.902V184.548C153.681 184.958 153.348 185.291 152.936 185.291H148.72C148.308 185.291 147.975 184.958 147.975 184.548V181.902C147.975 181.17 147.38 180.577 146.646 180.577Z" fill="url(#paint64_radial_4706_14377)" fill-opacity="0.2"/>
<path d="M180.925 174.403C181.212 173.908 181.929 173.908 182.216 174.403L188.377 185.046C188.664 185.541 188.305 186.161 187.732 186.161H175.409C174.835 186.161 174.476 185.541 174.763 185.046L180.925 174.403Z" fill="url(#paint65_radial_4706_14377)" fill-opacity="0.2"/>
<path d="M223.04 179.36C223.307 179.819 223.307 180.386 223.04 180.846L220.408 185.393C220.141 185.853 219.649 186.137 219.117 186.137H213.851C213.319 186.137 212.827 185.853 212.561 185.393L209.928 180.846C209.662 180.386 209.662 179.819 209.928 179.36L212.561 174.812C212.827 174.352 213.319 174.069 213.851 174.069H219.117C219.649 174.069 220.141 174.352 220.408 174.812L223.04 179.36Z" fill="url(#paint66_radial_4706_14377)" fill-opacity="0.2"/>
<path d="M257.434 180.107C257.434 183.442 254.724 186.146 251.379 186.146C248.035 186.146 245.324 183.442 245.324 180.107C245.324 176.772 248.035 174.069 251.379 174.069C254.724 174.069 257.434 176.772 257.434 180.107Z" fill="url(#paint67_radial_4706_14377)" fill-opacity="0.2"/>
<path d="M291.236 174.143C291.783 174.143 292.225 174.585 292.225 175.13V185.048C292.225 185.593 291.783 186.034 291.236 186.034H281.291C280.745 186.034 280.302 185.593 280.302 185.048V175.13C280.302 174.585 280.745 174.143 281.291 174.143H291.236Z" fill="url(#paint68_radial_4706_14377)" fill-opacity="0.2"/>
<path d="M327.24 180.107C327.24 183.442 324.529 186.146 321.185 186.146C317.841 186.146 315.13 183.442 315.13 180.107C315.13 176.772 317.841 174.069 321.185 174.069C324.529 174.069 327.24 176.772 327.24 180.107Z" fill="url(#paint69_radial_4706_14377)" fill-opacity="0.2"/>
<path fill-rule="evenodd" clip-rule="evenodd" d="M356.062 180.577C355.328 180.577 354.733 181.17 354.733 181.902V184.548C354.733 184.958 354.399 185.291 353.988 185.291H349.772C349.36 185.291 349.026 184.958 349.026 184.548V181.902C349.026 178.027 352.176 174.886 356.062 174.886C359.947 174.886 363.097 178.027 363.097 181.902V184.548C363.097 184.958 362.763 185.291 362.352 185.291H358.136C357.724 185.291 357.39 184.958 357.39 184.548V181.902C357.39 181.17 356.796 180.577 356.062 180.577Z" fill="url(#paint70_radial_4706_14377)" fill-opacity="0.2"/>
<path d="M390.341 174.403C390.628 173.908 391.345 173.908 391.632 174.403L397.793 185.046C398.08 185.541 397.722 186.161 397.148 186.161H384.825C384.251 186.161 383.893 185.541 384.179 185.046L390.341 174.403Z" fill="url(#paint71_radial_4706_14377)" fill-opacity="0.2"/>
<path fill-rule="evenodd" clip-rule="evenodd" d="M7.03535 215.384C6.30156 215.384 5.7067 215.977 5.7067 216.709V219.354C5.7067 219.765 5.37304 220.097 4.96146 220.097H0.745231C0.333651 220.097 0 219.765 0 219.354V216.709C0 212.834 3.14984 209.693 7.03535 209.693C10.9209 209.693 14.0707 212.834 14.0707 216.709V219.354C14.0707 219.765 13.7371 220.097 13.3255 220.097H9.10924C8.69766 220.097 8.36401 219.765 8.36401 219.354V216.709C8.36401 215.977 7.76915 215.384 7.03535 215.384Z" fill="url(#paint72_radial_4706_14377)" fill-opacity="0.2"/>
<path d="M48.0189 214.914C48.0189 218.249 45.3079 220.952 41.9639 220.952C38.6198 220.952 35.9089 218.249 35.9089 214.914C35.9089 211.579 38.6198 208.876 41.9639 208.876C45.3079 208.876 48.0189 211.579 48.0189 214.914Z" fill="url(#paint73_radial_4706_14377)" fill-opacity="0.2"/>
<path d="M81.8206 208.95C82.3668 208.95 82.8096 209.391 82.8096 209.936V219.854C82.8096 220.399 82.3668 220.84 81.8206 220.84H71.8749C71.3287 220.84 70.8859 220.399 70.8859 219.854V209.936C70.8859 209.391 71.3287 208.95 71.8749 208.95H81.8206Z" fill="url(#paint74_radial_4706_14377)" fill-opacity="0.2"/>
<path fill-rule="evenodd" clip-rule="evenodd" d="M111.743 215.384C111.009 215.384 110.415 215.977 110.415 216.709V219.354C110.415 219.765 110.081 220.097 109.669 220.097H105.453C105.042 220.097 104.708 219.765 104.708 219.354V216.709C104.708 212.834 107.858 209.693 111.743 209.693C115.629 209.693 118.779 212.834 118.779 216.709V219.354C118.779 219.765 118.445 220.097 118.033 220.097H113.817C113.406 220.097 113.072 219.765 113.072 219.354V216.709C113.072 215.977 112.477 215.384 111.743 215.384Z" fill="url(#paint75_radial_4706_14377)" fill-opacity="0.2"/>
<path d="M153.235 214.166C153.501 214.626 153.501 215.193 153.235 215.653L150.602 220.2C150.336 220.66 149.844 220.943 149.312 220.943H144.046C143.514 220.943 143.022 220.66 142.755 220.2L140.123 215.653C139.856 215.193 139.856 214.626 140.123 214.166L142.755 209.619C143.022 209.159 143.514 208.876 144.046 208.876H149.312C149.844 208.876 150.336 209.159 150.602 209.619L153.235 214.166Z" fill="url(#paint76_radial_4706_14377)" fill-opacity="0.2"/>
<path d="M187.629 214.914C187.629 218.249 184.918 220.952 181.574 220.952C178.23 220.952 175.519 218.249 175.519 214.914C175.519 211.579 178.23 208.876 181.574 208.876C184.918 208.876 187.629 211.579 187.629 214.914Z" fill="url(#paint77_radial_4706_14377)" fill-opacity="0.2"/>
<path d="M215.827 209.21C216.114 208.715 216.831 208.715 217.118 209.21L223.28 219.853C223.567 220.348 223.208 220.968 222.634 220.968H210.311C209.738 220.968 209.379 220.348 209.666 219.853L215.827 209.21Z" fill="url(#paint78_radial_4706_14377)" fill-opacity="0.2"/>
<path fill-rule="evenodd" clip-rule="evenodd" d="M251.354 215.384C250.62 215.384 250.025 215.977 250.025 216.709V219.354C250.025 219.765 249.692 220.097 249.28 220.097H245.064C244.652 220.097 244.318 219.765 244.318 219.354V216.709C244.318 212.834 247.468 209.693 251.354 209.693C255.239 209.693 258.389 212.834 258.389 216.709V219.354C258.389 219.765 258.056 220.097 257.644 220.097H253.428C253.016 220.097 252.682 219.765 252.682 219.354V216.709C252.682 215.977 252.088 215.384 251.354 215.384Z" fill="url(#paint79_radial_4706_14377)" fill-opacity="0.2"/>
<path d="M291.236 208.95C291.783 208.95 292.225 209.391 292.225 209.936V219.854C292.225 220.399 291.783 220.84 291.236 220.84H281.291C280.745 220.84 280.302 220.399 280.302 219.854V209.936C280.302 209.391 280.745 208.95 281.291 208.95H291.236Z" fill="url(#paint80_radial_4706_14377)" fill-opacity="0.2"/>
<path fill-rule="evenodd" clip-rule="evenodd" d="M321.159 215.384C320.425 215.384 319.83 215.977 319.83 216.709V219.354C319.83 219.765 319.497 220.097 319.085 220.097H314.869C314.457 220.097 314.124 219.765 314.124 219.354V216.709C314.124 212.834 317.274 209.693 321.159 209.693C325.045 209.693 328.194 212.834 328.194 216.709V219.354C328.194 219.765 327.861 220.097 327.449 220.097H323.233C322.821 220.097 322.488 219.765 322.488 219.354V216.709C322.488 215.977 321.893 215.384 321.159 215.384Z" fill="url(#paint81_radial_4706_14377)" fill-opacity="0.2"/>
<path d="M362.651 214.166C362.917 214.626 362.917 215.193 362.651 215.653L360.018 220.2C359.752 220.66 359.26 220.943 358.727 220.943H353.462C352.929 220.943 352.437 220.66 352.171 220.2L349.538 215.653C349.272 215.193 349.272 214.626 349.538 214.166L352.171 209.619C352.437 209.159 352.929 208.876 353.462 208.876H358.727C359.26 208.876 359.752 209.159 360.018 209.619L362.651 214.166Z" fill="url(#paint82_radial_4706_14377)" fill-opacity="0.2"/>
<path d="M390.341 209.21C390.628 208.715 391.345 208.715 391.632 209.21L397.793 219.853C398.08 220.348 397.722 220.968 397.148 220.968H384.825C384.251 220.968 383.893 220.348 384.179 219.853L390.341 209.21Z" fill="url(#paint83_radial_4706_14377)" fill-opacity="0.2"/>
<path d="M13.1162 249.72C13.1162 253.055 10.4053 255.759 7.06117 255.759C3.71709 255.759 1.00617 253.055 1.00617 249.72C1.00617 246.385 3.71709 243.682 7.06117 243.682C10.4053 243.682 13.1162 246.385 13.1162 249.72Z" fill="url(#paint84_radial_4706_14377)" fill-opacity="0.2"/>
<path d="M46.9183 243.756C47.4645 243.756 47.9073 244.198 47.9073 244.743V254.661C47.9073 255.206 47.4645 255.647 46.9183 255.647H36.9726C36.4264 255.647 35.9836 255.206 35.9836 254.661V244.743C35.9836 244.198 36.4264 243.756 36.9726 243.756H46.9183Z" fill="url(#paint85_radial_4706_14377)" fill-opacity="0.2"/>
<path fill-rule="evenodd" clip-rule="evenodd" d="M76.8409 250.191C76.1071 250.191 75.5123 250.784 75.5123 251.516V254.161C75.5123 254.571 75.1786 254.904 74.767 254.904H70.5508C70.1392 254.904 69.8056 254.571 69.8056 254.161V251.516C69.8056 247.641 72.9554 244.5 76.8409 244.5C80.7264 244.5 83.8763 247.641 83.8763 251.516V254.161C83.8763 254.571 83.5426 254.904 83.131 254.904H78.9148C78.5032 254.904 78.1696 254.571 78.1696 254.161V251.516C78.1696 250.784 77.5747 250.191 76.8409 250.191Z" fill="url(#paint86_radial_4706_14377)" fill-opacity="0.2"/>
<path d="M118.332 248.973C118.599 249.433 118.599 249.999 118.332 250.459L115.7 255.006C115.433 255.466 114.941 255.75 114.409 255.75H109.143C108.611 255.75 108.119 255.466 107.853 255.006L105.22 250.459C104.954 249.999 104.954 249.433 105.22 248.973L107.853 244.425C108.119 243.965 108.611 243.682 109.143 243.682H114.409C114.941 243.682 115.433 243.965 115.7 244.425L118.332 248.973Z" fill="url(#paint87_radial_4706_14377)" fill-opacity="0.2"/>
<path d="M146.022 244.016C146.309 243.521 147.026 243.521 147.313 244.016L153.475 254.659C153.762 255.154 153.403 255.774 152.829 255.774H140.506C139.933 255.774 139.574 255.154 139.861 254.659L146.022 244.016Z" fill="url(#paint88_radial_4706_14377)" fill-opacity="0.2"/>
<path fill-rule="evenodd" clip-rule="evenodd" d="M181.548 250.191C180.815 250.191 180.22 250.784 180.22 251.516V254.161C180.22 254.571 179.886 254.904 179.475 254.904H175.258C174.847 254.904 174.513 254.571 174.513 254.161V251.516C174.513 247.641 177.663 244.5 181.548 244.5C185.434 244.5 188.584 247.641 188.584 251.516V254.161C188.584 254.571 188.25 254.904 187.839 254.904H183.622C183.211 254.904 182.877 254.571 182.877 254.161V251.516C182.877 250.784 182.282 250.191 181.548 250.191Z" fill="url(#paint89_radial_4706_14377)" fill-opacity="0.2"/>
<path d="M222.532 249.72C222.532 253.055 219.821 255.759 216.477 255.759C213.133 255.759 210.422 253.055 210.422 249.72C210.422 246.385 213.133 243.682 216.477 243.682C219.821 243.682 222.532 246.385 222.532 249.72Z" fill="url(#paint90_radial_4706_14377)" fill-opacity="0.2"/>
<path d="M256.334 243.756C256.88 243.756 257.323 244.198 257.323 244.743V254.661C257.323 255.206 256.88 255.647 256.334 255.647H246.388C245.842 255.647 245.399 255.206 245.399 254.661V244.743C245.399 244.198 245.842 243.756 246.388 243.756H256.334Z" fill="url(#paint91_radial_4706_14377)" fill-opacity="0.2"/>
<path fill-rule="evenodd" clip-rule="evenodd" d="M286.256 250.191C285.523 250.191 284.928 250.784 284.928 251.516V254.161C284.928 254.571 284.594 254.904 284.182 254.904H279.966C279.555 254.904 279.221 254.571 279.221 254.161V251.516C279.221 247.641 282.371 244.5 286.256 244.5C290.142 244.5 293.292 247.641 293.292 251.516V254.161C293.292 254.571 292.958 254.904 292.546 254.904H288.33C287.919 254.904 287.585 254.571 287.585 254.161V251.516C287.585 250.784 286.99 250.191 286.256 250.191Z" fill="url(#paint92_radial_4706_14377)" fill-opacity="0.2"/>
<path d="M327.748 248.973C328.014 249.433 328.014 249.999 327.748 250.459L325.116 255.006C324.849 255.466 324.357 255.75 323.825 255.75H318.559C318.027 255.75 317.535 255.466 317.268 255.006L314.636 250.459C314.369 249.999 314.369 249.433 314.636 248.973L317.268 244.425C317.535 243.965 318.027 243.682 318.559 243.682H323.825C324.357 243.682 324.849 243.965 325.116 244.425L327.748 248.973Z" fill="url(#paint93_radial_4706_14377)" fill-opacity="0.2"/>
<path d="M355.438 244.016C355.725 243.521 356.442 243.521 356.729 244.016L362.891 254.659C363.177 255.154 362.819 255.774 362.245 255.774H349.922C349.348 255.774 348.99 255.154 349.277 254.659L355.438 244.016Z" fill="url(#paint94_radial_4706_14377)" fill-opacity="0.2"/>
<path fill-rule="evenodd" clip-rule="evenodd" d="M390.965 250.191C390.231 250.191 389.636 250.784 389.636 251.516V254.161C389.636 254.571 389.302 254.904 388.891 254.904H384.674C384.263 254.904 383.929 254.571 383.929 254.161V251.516C383.929 247.641 387.079 244.5 390.965 244.5C394.85 244.5 398 247.641 398 251.516V254.161C398 254.571 397.666 254.904 397.255 254.904H393.039C392.627 254.904 392.293 254.571 392.293 254.161V251.516C392.293 250.784 391.698 250.191 390.965 250.191Z" fill="url(#paint95_radial_4706_14377)" fill-opacity="0.2"/>
<path d="M13.6246 283.779C13.8908 284.239 13.8908 284.805 13.6246 285.265L10.9918 289.813C10.7256 290.273 10.2335 290.556 9.70103 290.556H4.43553C3.90304 290.556 3.411 290.273 3.14475 289.813L0.512 285.265C0.245754 284.805 0.245754 284.239 0.512 283.779L3.14475 279.231C3.411 278.772 3.90304 278.488 4.43553 278.488H9.70103C10.2335 278.488 10.7256 278.772 10.9918 279.231L13.6246 283.779Z" fill="url(#paint96_radial_4706_14377)" fill-opacity="0.2"/>
<path d="M48.0189 284.527C48.0189 287.861 45.3079 290.565 41.9639 290.565C38.6198 290.565 35.9089 287.861 35.9089 284.527C35.9089 281.192 38.6198 278.488 41.9639 278.488C45.3079 278.488 48.0189 281.192 48.0189 284.527Z" fill="url(#paint97_radial_4706_14377)" fill-opacity="0.2"/>
<path d="M81.8206 278.563C82.3668 278.563 82.8096 279.004 82.8096 279.549V289.467C82.8096 290.012 82.3668 290.453 81.8206 290.453H71.8749C71.3287 290.453 70.8859 290.012 70.8859 289.467V279.549C70.8859 279.004 71.3287 278.563 71.8749 278.563H81.8206Z" fill="url(#paint98_radial_4706_14377)" fill-opacity="0.2"/>
<path d="M117.824 284.527C117.824 287.861 115.113 290.565 111.769 290.565C108.425 290.565 105.714 287.861 105.714 284.527C105.714 281.192 108.425 278.488 111.769 278.488C115.113 278.488 117.824 281.192 117.824 284.527Z" fill="url(#paint99_radial_4706_14377)" fill-opacity="0.2"/>
<path fill-rule="evenodd" clip-rule="evenodd" d="M146.646 284.997C145.912 284.997 145.317 285.59 145.317 286.322V288.967C145.317 289.378 144.984 289.71 144.572 289.71H140.356C139.944 289.71 139.611 289.378 139.611 288.967V286.322C139.611 282.447 142.761 279.306 146.646 279.306C150.532 279.306 153.681 282.447 153.681 286.322V288.967C153.681 289.378 153.348 289.71 152.936 289.71H148.72C148.308 289.71 147.975 289.378 147.975 288.967V286.322C147.975 285.59 147.38 284.997 146.646 284.997Z" fill="url(#paint100_radial_4706_14377)" fill-opacity="0.2"/>
<path d="M180.925 278.823C181.212 278.327 181.929 278.327 182.216 278.823L188.377 289.466C188.664 289.961 188.305 290.58 187.732 290.58H175.409C174.835 290.58 174.476 289.961 174.763 289.466L180.925 278.823Z" fill="url(#paint101_radial_4706_14377)" fill-opacity="0.2"/>
<path d="M223.04 283.779C223.307 284.239 223.307 284.805 223.04 285.265L220.408 289.813C220.141 290.273 219.649 290.556 219.117 290.556H213.851C213.319 290.556 212.827 290.273 212.561 289.813L209.928 285.265C209.662 284.805 209.662 284.239 209.928 283.779L212.561 279.231C212.827 278.772 213.319 278.488 213.851 278.488H219.117C219.649 278.488 220.141 278.772 220.408 279.231L223.04 283.779Z" fill="url(#paint102_radial_4706_14377)" fill-opacity="0.2"/>
<path d="M257.434 284.527C257.434 287.861 254.724 290.565 251.379 290.565C248.035 290.565 245.324 287.861 245.324 284.527C245.324 281.192 248.035 278.488 251.379 278.488C254.724 278.488 257.434 281.192 257.434 284.527Z" fill="url(#paint103_radial_4706_14377)" fill-opacity="0.2"/>
<path d="M291.236 278.563C291.783 278.563 292.225 279.004 292.225 279.549V289.467C292.225 290.012 291.783 290.453 291.236 290.453H281.291C280.745 290.453 280.302 290.012 280.302 289.467V279.549C280.302 279.004 280.745 278.563 281.291 278.563H291.236Z" fill="url(#paint104_radial_4706_14377)" fill-opacity="0.2"/>
<path d="M327.24 284.527C327.24 287.861 324.529 290.565 321.185 290.565C317.841 290.565 315.13 287.861 315.13 284.527C315.13 281.192 317.841 278.488 321.185 278.488C324.529 278.488 327.24 281.192 327.24 284.527Z" fill="url(#paint105_radial_4706_14377)" fill-opacity="0.2"/>
<path fill-rule="evenodd" clip-rule="evenodd" d="M356.062 284.997C355.328 284.997 354.733 285.59 354.733 286.322V288.967C354.733 289.378 354.399 289.71 353.988 289.71H349.772C349.36 289.71 349.026 289.378 349.026 288.967V286.322C349.026 282.447 352.176 279.306 356.062 279.306C359.947 279.306 363.097 282.447 363.097 286.322V288.967C363.097 289.378 362.763 289.71 362.352 289.71H358.136C357.724 289.71 357.39 289.378 357.39 288.967V286.322C357.39 285.59 356.796 284.997 356.062 284.997Z" fill="url(#paint106_radial_4706_14377)" fill-opacity="0.2"/>
<path d="M390.341 278.823C390.628 278.327 391.345 278.327 391.632 278.823L397.793 289.466C398.08 289.961 397.722 290.58 397.148 290.58H384.825C384.251 290.58 383.893 289.961 384.179 289.466L390.341 278.823Z" fill="url(#paint107_radial_4706_14377)" fill-opacity="0.2"/>
<path fill-rule="evenodd" clip-rule="evenodd" d="M7.03535 319.804C6.30156 319.804 5.7067 320.397 5.7067 321.129V323.774C5.7067 324.185 5.37304 324.518 4.96146 324.518H0.745231C0.333651 324.518 0 324.185 0 323.774V321.129C0 317.254 3.14984 314.113 7.03535 314.113C10.9209 314.113 14.0707 317.254 14.0707 321.129V323.774C14.0707 324.185 13.7371 324.518 13.3255 324.518H9.10924C8.69766 324.518 8.36401 324.185 8.36401 323.774V321.129C8.36401 320.397 7.76915 319.804 7.03535 319.804Z" fill="url(#paint108_radial_4706_14377)" fill-opacity="0.2"/>
<path d="M48.0191 319.334C48.0191 322.669 45.3081 325.372 41.9641 325.372C38.62 325.372 35.909 322.669 35.909 319.334C35.909 315.999 38.62 313.296 41.9641 313.296C45.3081 313.296 48.0191 315.999 48.0191 319.334Z" fill="url(#paint109_radial_4706_14377)" fill-opacity="0.2"/>
<path d="M81.8206 313.37C82.3668 313.37 82.8096 313.811 82.8096 314.356V324.274C82.8096 324.819 82.3668 325.261 81.8206 325.261H71.8749C71.3287 325.261 70.8859 324.819 70.8859 324.274V314.356C70.8859 313.811 71.3287 313.37 71.8749 313.37H81.8206Z" fill="url(#paint110_radial_4706_14377)" fill-opacity="0.2"/>
<path fill-rule="evenodd" clip-rule="evenodd" d="M111.743 319.804C111.009 319.804 110.415 320.397 110.415 321.129V323.774C110.415 324.185 110.081 324.518 109.669 324.518H105.453C105.042 324.518 104.708 324.185 104.708 323.774V321.129C104.708 317.254 107.858 314.113 111.743 314.113C115.629 314.113 118.779 317.254 118.779 321.129V323.774C118.779 324.185 118.445 324.518 118.033 324.518H113.817C113.406 324.518 113.072 324.185 113.072 323.774V321.129C113.072 320.397 112.477 319.804 111.743 319.804Z" fill="url(#paint111_radial_4706_14377)" fill-opacity="0.2"/>
<path d="M153.235 318.586C153.501 319.046 153.501 319.613 153.235 320.073L150.602 324.62C150.336 325.08 149.844 325.363 149.312 325.363H144.046C143.514 325.363 143.022 325.08 142.755 324.62L140.123 320.073C139.856 319.613 139.856 319.046 140.123 318.586L142.755 314.039C143.022 313.579 143.514 313.296 144.046 313.296H149.312C149.844 313.296 150.336 313.579 150.602 314.039L153.235 318.586Z" fill="url(#paint112_radial_4706_14377)" fill-opacity="0.2"/>
<path d="M187.629 319.334C187.629 322.669 184.918 325.372 181.574 325.372C178.23 325.372 175.519 322.669 175.519 319.334C175.519 315.999 178.23 313.296 181.574 313.296C184.918 313.296 187.629 315.999 187.629 319.334Z" fill="url(#paint113_radial_4706_14377)" fill-opacity="0.2"/>
<path d="M215.827 313.63C216.114 313.135 216.831 313.135 217.118 313.63L223.28 324.273C223.567 324.768 223.208 325.387 222.634 325.387H210.311C209.738 325.387 209.379 324.768 209.666 324.273L215.827 313.63Z" fill="url(#paint114_radial_4706_14377)" fill-opacity="0.2"/>
<path fill-rule="evenodd" clip-rule="evenodd" d="M251.354 319.804C250.62 319.804 250.025 320.397 250.025 321.129V323.774C250.025 324.185 249.692 324.518 249.28 324.518H245.064C244.652 324.518 244.318 324.185 244.318 323.774V321.129C244.318 317.254 247.468 314.113 251.354 314.113C255.239 314.113 258.389 317.254 258.389 321.129V323.774C258.389 324.185 258.056 324.518 257.644 324.518H253.428C253.016 324.518 252.682 324.185 252.682 323.774V321.129C252.682 320.397 252.088 319.804 251.354 319.804Z" fill="url(#paint115_radial_4706_14377)" fill-opacity="0.2"/>
<path d="M291.236 313.37C291.782 313.37 292.225 313.811 292.225 314.356V324.274C292.225 324.819 291.782 325.261 291.236 325.261H281.291C280.744 325.261 280.302 324.819 280.302 324.274V314.356C280.302 313.811 280.744 313.37 281.291 313.37H291.236Z" fill="url(#paint116_radial_4706_14377)" fill-opacity="0.2"/>
<path fill-rule="evenodd" clip-rule="evenodd" d="M321.159 319.804C320.425 319.804 319.83 320.397 319.83 321.129V323.774C319.83 324.185 319.497 324.518 319.085 324.518H314.869C314.457 324.518 314.124 324.185 314.124 323.774V321.129C314.124 317.254 317.274 314.113 321.159 314.113C325.045 314.113 328.194 317.254 328.194 321.129V323.774C328.194 324.185 327.861 324.518 327.449 324.518H323.233C322.821 324.518 322.488 324.185 322.488 323.774V321.129C322.488 320.397 321.893 319.804 321.159 319.804Z" fill="url(#paint117_radial_4706_14377)" fill-opacity="0.2"/>
<path d="M362.651 318.586C362.917 319.046 362.917 319.613 362.651 320.073L360.018 324.62C359.752 325.08 359.26 325.363 358.728 325.363H353.462C352.93 325.363 352.438 325.08 352.171 324.62L349.539 320.073C349.272 319.613 349.272 319.046 349.539 318.586L352.171 314.039C352.438 313.579 352.93 313.296 353.462 313.296H358.728C359.26 313.296 359.752 313.579 360.018 314.039L362.651 318.586Z" fill="url(#paint118_radial_4706_14377)" fill-opacity="0.2"/>
<path d="M390.341 313.63C390.628 313.135 391.345 313.135 391.632 313.63L397.793 324.273C398.08 324.768 397.722 325.387 397.148 325.387H384.825C384.251 325.387 383.893 324.768 384.179 324.273L390.341 313.63Z" fill="url(#paint119_radial_4706_14377)" fill-opacity="0.2"/>
<path d="M13.1162 354.14C13.1162 357.475 10.4053 360.179 7.06117 360.179C3.71709 360.179 1.00617 357.475 1.00617 354.14C1.00617 350.806 3.71709 348.102 7.06117 348.102C10.4053 348.102 13.1162 350.806 13.1162 354.14Z" fill="url(#paint120_radial_4706_14377)" fill-opacity="0.2"/>
<path d="M46.9181 348.176C47.4643 348.176 47.9071 348.618 47.9071 349.163V359.081C47.9071 359.626 47.4643 360.067 46.9181 360.067H36.9724C36.4262 360.067 35.9834 359.626 35.9834 359.081V349.163C35.9834 348.618 36.4262 348.176 36.9724 348.176H46.9181Z" fill="url(#paint121_radial_4706_14377)" fill-opacity="0.2"/>
<path fill-rule="evenodd" clip-rule="evenodd" d="M76.8409 354.61C76.1071 354.61 75.5123 355.204 75.5123 355.935V358.581C75.5123 358.991 75.1786 359.324 74.767 359.324H70.5508C70.1392 359.324 69.8056 358.991 69.8056 358.581V355.935C69.8056 352.061 72.9554 348.919 76.8409 348.919C80.7264 348.919 83.8763 352.061 83.8763 355.935V358.581C83.8763 358.991 83.5426 359.324 83.131 359.324H78.9148C78.5032 359.324 78.1696 358.991 78.1696 358.581V355.935C78.1696 355.204 77.5747 354.61 76.8409 354.61Z" fill="url(#paint122_radial_4706_14377)" fill-opacity="0.2"/>
<path d="M118.332 353.393C118.599 353.853 118.599 354.419 118.332 354.879L115.7 359.427C115.433 359.886 114.941 360.17 114.409 360.17H109.143C108.611 360.17 108.119 359.886 107.853 359.427L105.22 354.879C104.954 354.419 104.954 353.853 105.22 353.393L107.853 348.845C108.119 348.385 108.611 348.102 109.143 348.102H114.409C114.941 348.102 115.433 348.385 115.7 348.845L118.332 353.393Z" fill="url(#paint123_radial_4706_14377)" fill-opacity="0.2"/>
<path d="M146.022 348.436C146.309 347.941 147.026 347.941 147.313 348.436L153.475 359.079C153.762 359.574 153.403 360.194 152.829 360.194H140.506C139.933 360.194 139.574 359.574 139.861 359.079L146.022 348.436Z" fill="url(#paint124_radial_4706_14377)" fill-opacity="0.2"/>
<path fill-rule="evenodd" clip-rule="evenodd" d="M181.548 354.61C180.815 354.61 180.22 355.204 180.22 355.935V358.581C180.22 358.991 179.886 359.324 179.475 359.324H175.258C174.847 359.324 174.513 358.991 174.513 358.581V355.935C174.513 352.061 177.663 348.919 181.548 348.919C185.434 348.919 188.584 352.061 188.584 355.935V358.581C188.584 358.991 188.25 359.324 187.839 359.324H183.622C183.211 359.324 182.877 358.991 182.877 358.581V355.935C182.877 355.204 182.282 354.61 181.548 354.61Z" fill="url(#paint125_radial_4706_14377)" fill-opacity="0.2"/>
<path d="M222.532 354.14C222.532 357.475 219.821 360.179 216.477 360.179C213.133 360.179 210.422 357.475 210.422 354.14C210.422 350.806 213.133 348.102 216.477 348.102C219.821 348.102 222.532 350.806 222.532 354.14Z" fill="url(#paint126_radial_4706_14377)" fill-opacity="0.2"/>
<path d="M256.334 348.176C256.88 348.176 257.323 348.618 257.323 349.163V359.081C257.323 359.626 256.88 360.067 256.334 360.067H246.388C245.842 360.067 245.399 359.626 245.399 359.081V349.163C245.399 348.618 245.842 348.176 246.388 348.176H256.334Z" fill="url(#paint127_radial_4706_14377)" fill-opacity="0.2"/>
<path fill-rule="evenodd" clip-rule="evenodd" d="M286.257 354.61C285.523 354.61 284.928 355.204 284.928 355.935V358.581C284.928 358.991 284.594 359.324 284.183 359.324H279.966C279.555 359.324 279.221 358.991 279.221 358.581V355.935C279.221 352.061 282.371 348.919 286.257 348.919C290.142 348.919 293.292 352.061 293.292 355.935V358.581C293.292 358.991 292.958 359.324 292.547 359.324H288.33C287.919 359.324 287.585 358.991 287.585 358.581V355.935C287.585 355.204 286.99 354.61 286.257 354.61Z" fill="url(#paint128_radial_4706_14377)" fill-opacity="0.2"/>
<path d="M327.748 353.393C328.014 353.853 328.014 354.419 327.748 354.879L325.116 359.427C324.849 359.886 324.357 360.17 323.825 360.17H318.559C318.027 360.17 317.535 359.886 317.268 359.427L314.636 354.879C314.369 354.419 314.369 353.853 314.636 353.393L317.268 348.845C317.535 348.385 318.027 348.102 318.559 348.102H323.825C324.357 348.102 324.849 348.385 325.116 348.845L327.748 353.393Z" fill="url(#paint129_radial_4706_14377)" fill-opacity="0.2"/>
<path d="M355.438 348.436C355.725 347.941 356.442 347.941 356.729 348.436L362.89 359.079C363.177 359.574 362.819 360.194 362.245 360.194H349.922C349.348 360.194 348.99 359.574 349.276 359.079L355.438 348.436Z" fill="url(#paint130_radial_4706_14377)" fill-opacity="0.2"/>
<path fill-rule="evenodd" clip-rule="evenodd" d="M390.965 354.61C390.231 354.61 389.636 355.204 389.636 355.935V358.581C389.636 358.991 389.302 359.324 388.891 359.324H384.675C384.263 359.324 383.929 358.991 383.929 358.581V355.935C383.929 352.061 387.079 348.919 390.965 348.919C394.85 348.919 398 352.061 398 355.935V358.581C398 358.991 397.666 359.324 397.255 359.324H393.039C392.627 359.324 392.293 358.991 392.293 358.581V355.935C392.293 355.204 391.698 354.61 390.965 354.61Z" fill="url(#paint131_radial_4706_14377)" fill-opacity="0.2"/>
<path d="M13.6246 388.199C13.8908 388.659 13.8908 389.225 13.6246 389.685L10.9918 394.233C10.7256 394.692 10.2335 394.976 9.70103 394.976H4.43553C3.90304 394.976 3.411 394.692 3.14475 394.233L0.512 389.685C0.245754 389.225 0.245754 388.659 0.512 388.199L3.14475 383.651C3.411 383.191 3.90304 382.908 4.43553 382.908H9.70103C10.2335 382.908 10.7256 383.191 10.9918 383.651L13.6246 388.199Z" fill="url(#paint132_radial_4706_14377)" fill-opacity="0.2"/>
<path d="M48.0189 388.946C48.0189 392.281 45.3079 394.985 41.9639 394.985C38.6198 394.985 35.9089 392.281 35.9089 388.946C35.9089 385.611 38.6198 382.908 41.9639 382.908C45.3079 382.908 48.0189 385.611 48.0189 388.946Z" fill="url(#paint133_radial_4706_14377)" fill-opacity="0.2"/>
<path d="M81.8206 382.982C82.3668 382.982 82.8096 383.424 82.8096 383.969V393.887C82.8096 394.432 82.3668 394.873 81.8206 394.873H71.8749C71.3287 394.873 70.8859 394.432 70.8859 393.887V383.969C70.8859 383.424 71.3287 382.982 71.8749 382.982H81.8206Z" fill="url(#paint134_radial_4706_14377)" fill-opacity="0.2"/>
<path d="M117.824 388.946C117.824 392.281 115.113 394.985 111.769 394.985C108.425 394.985 105.714 392.281 105.714 388.946C105.714 385.611 108.425 382.908 111.769 382.908C115.113 382.908 117.824 385.611 117.824 388.946Z" fill="url(#paint135_radial_4706_14377)" fill-opacity="0.2"/>
<path fill-rule="evenodd" clip-rule="evenodd" d="M146.646 389.417C145.912 389.417 145.317 390.01 145.317 390.742V393.387C145.317 393.797 144.984 394.13 144.572 394.13H140.356C139.944 394.13 139.611 393.797 139.611 393.387V390.742C139.611 386.867 142.761 383.726 146.646 383.726C150.532 383.726 153.681 386.867 153.681 390.742V393.387C153.681 393.797 153.348 394.13 152.936 394.13H148.72C148.308 394.13 147.975 393.797 147.975 393.387V390.742C147.975 390.01 147.38 389.417 146.646 389.417Z" fill="url(#paint136_radial_4706_14377)" fill-opacity="0.2"/>
<path d="M180.925 383.243C181.212 382.747 181.929 382.747 182.216 383.243L188.377 393.885C188.664 394.381 188.305 395 187.732 395H175.409C174.835 395 174.476 394.381 174.763 393.885L180.925 383.243Z" fill="url(#paint137_radial_4706_14377)" fill-opacity="0.2"/>
<path d="M223.04 388.199C223.307 388.659 223.307 389.225 223.04 389.685L220.408 394.233C220.141 394.692 219.649 394.976 219.117 394.976H213.851C213.319 394.976 212.827 394.692 212.561 394.233L209.928 389.685C209.662 389.225 209.662 388.659 209.928 388.199L212.561 383.651C212.827 383.191 213.319 382.908 213.851 382.908H219.117C219.649 382.908 220.141 383.191 220.408 383.651L223.04 388.199Z" fill="url(#paint138_radial_4706_14377)" fill-opacity="0.2"/>
<path d="M257.434 388.946C257.434 392.281 254.724 394.985 251.379 394.985C248.035 394.985 245.324 392.281 245.324 388.946C245.324 385.611 248.035 382.908 251.379 382.908C254.724 382.908 257.434 385.611 257.434 388.946Z" fill="url(#paint139_radial_4706_14377)" fill-opacity="0.2"/>
<path d="M291.236 382.982C291.783 382.982 292.225 383.424 292.225 383.969V393.887C292.225 394.432 291.783 394.873 291.236 394.873H281.291C280.745 394.873 280.302 394.432 280.302 393.887V383.969C280.302 383.424 280.745 382.982 281.291 382.982H291.236Z" fill="url(#paint140_radial_4706_14377)" fill-opacity="0.2"/>
<path d="M327.24 388.946C327.24 392.281 324.529 394.985 321.185 394.985C317.841 394.985 315.13 392.281 315.13 388.946C315.13 385.611 317.841 382.908 321.185 382.908C324.529 382.908 327.24 385.611 327.24 388.946Z" fill="url(#paint141_radial_4706_14377)" fill-opacity="0.2"/>
<path fill-rule="evenodd" clip-rule="evenodd" d="M356.062 389.417C355.328 389.417 354.733 390.01 354.733 390.742V393.387C354.733 393.797 354.399 394.13 353.988 394.13H349.772C349.36 394.13 349.026 393.797 349.026 393.387V390.742C349.026 386.867 352.176 383.726 356.062 383.726C359.947 383.726 363.097 386.867 363.097 390.742V393.387C363.097 393.797 362.763 394.13 362.352 394.13H358.136C357.724 394.13 357.39 393.797 357.39 393.387V390.742C357.39 390.01 356.796 389.417 356.062 389.417Z" fill="url(#paint142_radial_4706_14377)" fill-opacity="0.2"/>
<path d="M390.341 383.243C390.628 382.747 391.345 382.747 391.632 383.243L397.793 393.885C398.08 394.381 397.722 395 397.148 395H384.825C384.251 395 383.893 394.381 384.179 393.885L390.341 383.243Z" fill="url(#paint143_radial_4706_14377)" fill-opacity="0.2"/>
</g>
<defs>
<radialGradient id="paint0_radial_4706_14377" cx="0" cy="0" r="1" gradientUnits="userSpaceOnUse" gradientTransform="translate(198.697 197.5) rotate(134.135) scale(224.318 220.644)">
<stop stop-color="#BDCBDB"/>
<stop offset="1" stop-color="#BDCBDB" stop-opacity="0"/>
</radialGradient>
<radialGradient id="paint1_radial_4706_14377" cx="0" cy="0" r="1" gradientUnits="userSpaceOnUse" gradientTransform="translate(198.697 197.5) rotate(134.135) scale(224.318 220.644)">
<stop stop-color="#BDCBDB"/>
<stop offset="1" stop-color="#BDCBDB" stop-opacity="0"/>
</radialGradient>
<radialGradient id="paint2_radial_4706_14377" cx="0" cy="0" r="1" gradientUnits="userSpaceOnUse" gradientTransform="translate(198.697 197.5) rotate(134.135) scale(224.318 220.644)">
<stop stop-color="#BDCBDB"/>
<stop offset="1" stop-color="#BDCBDB" stop-opacity="0"/>
</radialGradient>
<radialGradient id="paint3_radial_4706_14377" cx="0" cy="0" r="1" gradientUnits="userSpaceOnUse" gradientTransform="translate(198.697 197.5) rotate(134.135) scale(224.318 220.644)">
<stop stop-color="#BDCBDB"/>
<stop offset="1" stop-color="#BDCBDB" stop-opacity="0"/>
</radialGradient>
<radialGradient id="paint4_radial_4706_14377" cx="0" cy="0" r="1" gradientUnits="userSpaceOnUse" gradientTransform="translate(198.697 197.5) rotate(134.135) scale(224.318 220.644)">
<stop stop-color="#BDCBDB"/>
<stop offset="1" stop-color="#BDCBDB" stop-opacity="0"/>
</radialGradient>
<radialGradient id="paint5_radial_4706_14377" cx="0" cy="0" r="1" gradientUnits="userSpaceOnUse" gradientTransform="translate(198.697 197.5) rotate(134.135) scale(224.318 220.644)">
<stop stop-color="#BDCBDB"/>
<stop offset="1" stop-color="#BDCBDB" stop-opacity="0"/>
</radialGradient>
<radialGradient id="paint6_radial_4706_14377" cx="0" cy="0" r="1" gradientUnits="userSpaceOnUse" gradientTransform="translate(198.697 197.5) rotate(134.135) scale(224.318 220.644)">
<stop stop-color="#BDCBDB"/>
<stop offset="1" stop-color="#BDCBDB" stop-opacity="0"/>
</radialGradient>
<radialGradient id="paint7_radial_4706_14377" cx="0" cy="0" r="1" gradientUnits="userSpaceOnUse" gradientTransform="translate(198.697 197.5) rotate(134.135) scale(224.318 220.644)">
<stop stop-color="#BDCBDB"/>
<stop offset="1" stop-color="#BDCBDB" stop-opacity="0"/>
</radialGradient>
<radialGradient id="paint8_radial_4706_14377" cx="0" cy="0" r="1" gradientUnits="userSpaceOnUse" gradientTransform="translate(198.697 197.5) rotate(134.135) scale(224.318 220.644)">
<stop stop-color="#BDCBDB"/>
<stop offset="1" stop-color="#BDCBDB" stop-opacity="0"/>
</radialGradient>
<radialGradient id="paint9_radial_4706_14377" cx="0" cy="0" r="1" gradientUnits="userSpaceOnUse" gradientTransform="translate(198.697 197.5) rotate(134.135) scale(224.318 220.644)">
<stop stop-color="#BDCBDB"/>
<stop offset="1" stop-color="#BDCBDB" stop-opacity="0"/>
</radialGradient>
<radialGradient id="paint10_radial_4706_14377" cx="0" cy="0" r="1" gradientUnits="userSpaceOnUse" gradientTransform="translate(198.697 197.5) rotate(134.135) scale(224.318 220.644)">
<stop stop-color="#BDCBDB"/>
<stop offset="1" stop-color="#BDCBDB" stop-opacity="0"/>
</radialGradient>
<radialGradient id="paint11_radial_4706_14377" cx="0" cy="0" r="1" gradientUnits="userSpaceOnUse" gradientTransform="translate(198.697 197.5) rotate(134.135) scale(224.318 220.644)">
<stop stop-color="#BDCBDB"/>
<stop offset="1" stop-color="#BDCBDB" stop-opacity="0"/>
</radialGradient>
<radialGradient id="paint12_radial_4706_14377" cx="0" cy="0" r="1" gradientUnits="userSpaceOnUse" gradientTransform="translate(198.697 197.5) rotate(134.135) scale(224.318 220.644)">
<stop stop-color="#BDCBDB"/>
<stop offset="1" stop-color="#BDCBDB" stop-opacity="0"/>
</radialGradient>
<radialGradient id="paint13_radial_4706_14377" cx="0" cy="0" r="1" gradientUnits="userSpaceOnUse" gradientTransform="translate(198.697 197.5) rotate(134.135) scale(224.318 220.644)">
<stop stop-color="#BDCBDB"/>
<stop offset="1" stop-color="#BDCBDB" stop-opacity="0"/>
</radialGradient>
<radialGradient id="paint14_radial_4706_14377" cx="0" cy="0" r="1" gradientUnits="userSpaceOnUse" gradientTransform="translate(198.697 197.5) rotate(134.135) scale(224.318 220.644)">
<stop stop-color="#BDCBDB"/>
<stop offset="1" stop-color="#BDCBDB" stop-opacity="0"/>
</radialGradient>
<radialGradient id="paint15_radial_4706_14377" cx="0" cy="0" r="1" gradientUnits="userSpaceOnUse" gradientTransform="translate(198.697 197.5) rotate(134.135) scale(224.318 220.644)">
<stop stop-color="#BDCBDB"/>
<stop offset="1" stop-color="#BDCBDB" stop-opacity="0"/>
</radialGradient>
<radialGradient id="paint16_radial_4706_14377" cx="0" cy="0" r="1" gradientUnits="userSpaceOnUse" gradientTransform="translate(198.697 197.5) rotate(134.135) scale(224.318 220.644)">
<stop stop-color="#BDCBDB"/>
<stop offset="1" stop-color="#BDCBDB" stop-opacity="0"/>
</radialGradient>
<radialGradient id="paint17_radial_4706_14377" cx="0" cy="0" r="1" gradientUnits="userSpaceOnUse" gradientTransform="translate(198.697 197.5) rotate(134.135) scale(224.318 220.644)">
<stop stop-color="#BDCBDB"/>
<stop offset="1" stop-color="#BDCBDB" stop-opacity="0"/>
</radialGradient>
<radialGradient id="paint18_radial_4706_14377" cx="0" cy="0" r="1" gradientUnits="userSpaceOnUse" gradientTransform="translate(198.697 197.5) rotate(134.135) scale(224.318 220.644)">
<stop stop-color="#BDCBDB"/>
<stop offset="1" stop-color="#BDCBDB" stop-opacity="0"/>
</radialGradient>
<radialGradient id="paint19_radial_4706_14377" cx="0" cy="0" r="1" gradientUnits="userSpaceOnUse" gradientTransform="translate(198.697 197.5) rotate(134.135) scale(224.318 220.644)">
<stop stop-color="#BDCBDB"/>
<stop offset="1" stop-color="#BDCBDB" stop-opacity="0"/>
</radialGradient>
<radialGradient id="paint20_radial_4706_14377" cx="0" cy="0" r="1" gradientUnits="userSpaceOnUse" gradientTransform="translate(198.697 197.5) rotate(134.135) scale(224.318 220.644)">
<stop stop-color="#BDCBDB"/>
<stop offset="1" stop-color="#BDCBDB" stop-opacity="0"/>
</radialGradient>
<radialGradient id="paint21_radial_4706_14377" cx="0" cy="0" r="1" gradientUnits="userSpaceOnUse" gradientTransform="translate(198.697 197.5) rotate(134.135) scale(224.318 220.644)">
<stop stop-color="#BDCBDB"/>
<stop offset="1" stop-color="#BDCBDB" stop-opacity="0"/>
</radialGradient>
<radialGradient id="paint22_radial_4706_14377" cx="0" cy="0" r="1" gradientUnits="userSpaceOnUse" gradientTransform="translate(198.697 197.5) rotate(134.135) scale(224.318 220.644)">
<stop stop-color="#BDCBDB"/>
<stop offset="1" stop-color="#BDCBDB" stop-opacity="0"/>
</radialGradient>
<radialGradient id="paint23_radial_4706_14377" cx="0" cy="0" r="1" gradientUnits="userSpaceOnUse" gradientTransform="translate(198.697 197.5) rotate(134.135) scale(224.318 220.644)">
<stop stop-color="#BDCBDB"/>
<stop offset="1" stop-color="#BDCBDB" stop-opacity="0"/>
</radialGradient>
<radialGradient id="paint24_radial_4706_14377" cx="0" cy="0" r="1" gradientUnits="userSpaceOnUse" gradientTransform="translate(198.697 197.5) rotate(134.135) scale(224.318 220.644)">
<stop stop-color="#BDCBDB"/>
<stop offset="1" stop-color="#BDCBDB" stop-opacity="0"/>
</radialGradient>
<radialGradient id="paint25_radial_4706_14377" cx="0" cy="0" r="1" gradientUnits="userSpaceOnUse" gradientTransform="translate(198.697 197.5) rotate(134.135) scale(224.318 220.644)">
<stop stop-color="#BDCBDB"/>
<stop offset="1" stop-color="#BDCBDB" stop-opacity="0"/>
</radialGradient>
<radialGradient id="paint26_radial_4706_14377" cx="0" cy="0" r="1" gradientUnits="userSpaceOnUse" gradientTransform="translate(198.697 197.5) rotate(134.135) scale(224.318 220.644)">
<stop stop-color="#BDCBDB"/>
<stop offset="1" stop-color="#BDCBDB" stop-opacity="0"/>
</radialGradient>
<radialGradient id="paint27_radial_4706_14377" cx="0" cy="0" r="1" gradientUnits="userSpaceOnUse" gradientTransform="translate(198.697 197.5) rotate(134.135) scale(224.318 220.644)">
<stop stop-color="#BDCBDB"/>
<stop offset="1" stop-color="#BDCBDB" stop-opacity="0"/>
</radialGradient>
<radialGradient id="paint28_radial_4706_14377" cx="0" cy="0" r="1" gradientUnits="userSpaceOnUse" gradientTransform="translate(198.697 197.5) rotate(134.135) scale(224.318 220.644)">
<stop stop-color="#BDCBDB"/>
<stop offset="1" stop-color="#BDCBDB" stop-opacity="0"/>
</radialGradient>
<radialGradient id="paint29_radial_4706_14377" cx="0" cy="0" r="1" gradientUnits="userSpaceOnUse" gradientTransform="translate(198.697 197.5) rotate(134.135) scale(224.318 220.644)">
<stop stop-color="#BDCBDB"/>
<stop offset="1" stop-color="#BDCBDB" stop-opacity="0"/>
</radialGradient>
<radialGradient id="paint30_radial_4706_14377" cx="0" cy="0" r="1" gradientUnits="userSpaceOnUse" gradientTransform="translate(198.697 197.5) rotate(134.135) scale(224.318 220.644)">
<stop stop-color="#BDCBDB"/>
<stop offset="1" stop-color="#BDCBDB" stop-opacity="0"/>
</radialGradient>
<radialGradient id="paint31_radial_4706_14377" cx="0" cy="0" r="1" gradientUnits="userSpaceOnUse" gradientTransform="translate(198.697 197.5) rotate(134.135) scale(224.318 220.644)">
<stop stop-color="#BDCBDB"/>
<stop offset="1" stop-color="#BDCBDB" stop-opacity="0"/>
</radialGradient>
<radialGradient id="paint32_radial_4706_14377" cx="0" cy="0" r="1" gradientUnits="userSpaceOnUse" gradientTransform="translate(198.697 197.5) rotate(134.135) scale(224.318 220.644)">
<stop stop-color="#BDCBDB"/>
<stop offset="1" stop-color="#BDCBDB" stop-opacity="0"/>
</radialGradient>
<radialGradient id="paint33_radial_4706_14377" cx="0" cy="0" r="1" gradientUnits="userSpaceOnUse" gradientTransform="translate(198.697 197.5) rotate(134.135) scale(224.318 220.644)">
<stop stop-color="#BDCBDB"/>
<stop offset="1" stop-color="#BDCBDB" stop-opacity="0"/>
</radialGradient>
<radialGradient id="paint34_radial_4706_14377" cx="0" cy="0" r="1" gradientUnits="userSpaceOnUse" gradientTransform="translate(198.697 197.5) rotate(134.135) scale(224.318 220.644)">
<stop stop-color="#BDCBDB"/>
<stop offset="1" stop-color="#BDCBDB" stop-opacity="0"/>
</radialGradient>
<radialGradient id="paint35_radial_4706_14377" cx="0" cy="0" r="1" gradientUnits="userSpaceOnUse" gradientTransform="translate(198.697 197.5) rotate(134.135) scale(224.318 220.644)">
<stop stop-color="#BDCBDB"/>
<stop offset="1" stop-color="#BDCBDB" stop-opacity="0"/>
</radialGradient>
<radialGradient id="paint36_radial_4706_14377" cx="0" cy="0" r="1" gradientUnits="userSpaceOnUse" gradientTransform="translate(198.697 197.5) rotate(134.135) scale(224.318 220.644)">
<stop stop-color="#BDCBDB"/>
<stop offset="1" stop-color="#BDCBDB" stop-opacity="0"/>
</radialGradient>
<radialGradient id="paint37_radial_4706_14377" cx="0" cy="0" r="1" gradientUnits="userSpaceOnUse" gradientTransform="translate(198.697 197.5) rotate(134.135) scale(224.318 220.644)">
<stop stop-color="#BDCBDB"/>
<stop offset="1" stop-color="#BDCBDB" stop-opacity="0"/>
</radialGradient>
<radialGradient id="paint38_radial_4706_14377" cx="0" cy="0" r="1" gradientUnits="userSpaceOnUse" gradientTransform="translate(198.697 197.5) rotate(134.135) scale(224.318 220.644)">
<stop stop-color="#BDCBDB"/>
<stop offset="1" stop-color="#BDCBDB" stop-opacity="0"/>
</radialGradient>
<radialGradient id="paint39_radial_4706_14377" cx="0" cy="0" r="1" gradientUnits="userSpaceOnUse" gradientTransform="translate(198.697 197.5) rotate(134.135) scale(224.318 220.644)">
<stop stop-color="#BDCBDB"/>
<stop offset="1" stop-color="#BDCBDB" stop-opacity="0"/>
</radialGradient>
<radialGradient id="paint40_radial_4706_14377" cx="0" cy="0" r="1" gradientUnits="userSpaceOnUse" gradientTransform="translate(198.697 197.5) rotate(134.135) scale(224.318 220.644)">
<stop stop-color="#BDCBDB"/>
<stop offset="1" stop-color="#BDCBDB" stop-opacity="0"/>
</radialGradient>
<radialGradient id="paint41_radial_4706_14377" cx="0" cy="0" r="1" gradientUnits="userSpaceOnUse" gradientTransform="translate(198.697 197.5) rotate(134.135) scale(224.318 220.644)">
<stop stop-color="#BDCBDB"/>
<stop offset="1" stop-color="#BDCBDB" stop-opacity="0"/>
</radialGradient>
<radialGradient id="paint42_radial_4706_14377" cx="0" cy="0" r="1" gradientUnits="userSpaceOnUse" gradientTransform="translate(198.697 197.5) rotate(134.135) scale(224.318 220.644)">
<stop stop-color="#BDCBDB"/>
<stop offset="1" stop-color="#BDCBDB" stop-opacity="0"/>
</radialGradient>
<radialGradient id="paint43_radial_4706_14377" cx="0" cy="0" r="1" gradientUnits="userSpaceOnUse" gradientTransform="translate(198.697 197.5) rotate(134.135) scale(224.318 220.644)">
<stop stop-color="#BDCBDB"/>
<stop offset="1" stop-color="#BDCBDB" stop-opacity="0"/>
</radialGradient>
<radialGradient id="paint44_radial_4706_14377" cx="0" cy="0" r="1" gradientUnits="userSpaceOnUse" gradientTransform="translate(198.697 197.5) rotate(134.135) scale(224.318 220.644)">
<stop stop-color="#BDCBDB"/>
<stop offset="1" stop-color="#BDCBDB" stop-opacity="0"/>
</radialGradient>
<radialGradient id="paint45_radial_4706_14377" cx="0" cy="0" r="1" gradientUnits="userSpaceOnUse" gradientTransform="translate(198.697 197.5) rotate(134.135) scale(224.318 220.644)">
<stop stop-color="#BDCBDB"/>
<stop offset="1" stop-color="#BDCBDB" stop-opacity="0"/>
</radialGradient>
<radialGradient id="paint46_radial_4706_14377" cx="0" cy="0" r="1" gradientUnits="userSpaceOnUse" gradientTransform="translate(198.697 197.5) rotate(134.135) scale(224.318 220.644)">
<stop stop-color="#BDCBDB"/>
<stop offset="1" stop-color="#BDCBDB" stop-opacity="0"/>
</radialGradient>
<radialGradient id="paint47_radial_4706_14377" cx="0" cy="0" r="1" gradientUnits="userSpaceOnUse" gradientTransform="translate(198.697 197.5) rotate(134.135) scale(224.318 220.644)">
<stop stop-color="#BDCBDB"/>
<stop offset="1" stop-color="#BDCBDB" stop-opacity="0"/>
</radialGradient>
<radialGradient id="paint48_radial_4706_14377" cx="0" cy="0" r="1" gradientUnits="userSpaceOnUse" gradientTransform="translate(198.697 197.5) rotate(134.135) scale(224.318 220.644)">
<stop stop-color="#BDCBDB"/>
<stop offset="1" stop-color="#BDCBDB" stop-opacity="0"/>
</radialGradient>
<radialGradient id="paint49_radial_4706_14377" cx="0" cy="0" r="1" gradientUnits="userSpaceOnUse" gradientTransform="translate(198.697 197.5) rotate(134.135) scale(224.318 220.644)">
<stop stop-color="#BDCBDB"/>
<stop offset="1" stop-color="#BDCBDB" stop-opacity="0"/>
</radialGradient>
<radialGradient id="paint50_radial_4706_14377" cx="0" cy="0" r="1" gradientUnits="userSpaceOnUse" gradientTransform="translate(198.697 197.5) rotate(134.135) scale(224.318 220.644)">
<stop stop-color="#BDCBDB"/>
<stop offset="1" stop-color="#BDCBDB" stop-opacity="0"/>
</radialGradient>
<radialGradient id="paint51_radial_4706_14377" cx="0" cy="0" r="1" gradientUnits="userSpaceOnUse" gradientTransform="translate(198.697 197.5) rotate(134.135) scale(224.318 220.644)">
<stop stop-color="#BDCBDB"/>
<stop offset="1" stop-color="#BDCBDB" stop-opacity="0"/>
</radialGradient>
<radialGradient id="paint52_radial_4706_14377" cx="0" cy="0" r="1" gradientUnits="userSpaceOnUse" gradientTransform="translate(198.697 197.5) rotate(134.135) scale(224.318 220.644)">
<stop stop-color="#BDCBDB"/>
<stop offset="1" stop-color="#BDCBDB" stop-opacity="0"/>
</radialGradient>
<radialGradient id="paint53_radial_4706_14377" cx="0" cy="0" r="1" gradientUnits="userSpaceOnUse" gradientTransform="translate(198.697 197.5) rotate(134.135) scale(224.318 220.644)">
<stop stop-color="#BDCBDB"/>
<stop offset="1" stop-color="#BDCBDB" stop-opacity="0"/>
</radialGradient>
<radialGradient id="paint54_radial_4706_14377" cx="0" cy="0" r="1" gradientUnits="userSpaceOnUse" gradientTransform="translate(198.697 197.5) rotate(134.135) scale(224.318 220.644)">
<stop stop-color="#BDCBDB"/>
<stop offset="1" stop-color="#BDCBDB" stop-opacity="0"/>
</radialGradient>
<radialGradient id="paint55_radial_4706_14377" cx="0" cy="0" r="1" gradientUnits="userSpaceOnUse" gradientTransform="translate(198.697 197.5) rotate(134.135) scale(224.318 220.644)">
<stop stop-color="#BDCBDB"/>
<stop offset="1" stop-color="#BDCBDB" stop-opacity="0"/>
</radialGradient>
<radialGradient id="paint56_radial_4706_14377" cx="0" cy="0" r="1" gradientUnits="userSpaceOnUse" gradientTransform="translate(198.697 197.5) rotate(134.135) scale(224.318 220.644)">
<stop stop-color="#BDCBDB"/>
<stop offset="1" stop-color="#BDCBDB" stop-opacity="0"/>
</radialGradient>
<radialGradient id="paint57_radial_4706_14377" cx="0" cy="0" r="1" gradientUnits="userSpaceOnUse" gradientTransform="translate(198.697 197.5) rotate(134.135) scale(224.318 220.644)">
<stop stop-color="#BDCBDB"/>
<stop offset="1" stop-color="#BDCBDB" stop-opacity="0"/>
</radialGradient>
<radialGradient id="paint58_radial_4706_14377" cx="0" cy="0" r="1" gradientUnits="userSpaceOnUse" gradientTransform="translate(198.697 197.5) rotate(134.135) scale(224.318 220.644)">
<stop stop-color="#BDCBDB"/>
<stop offset="1" stop-color="#BDCBDB" stop-opacity="0"/>
</radialGradient>
<radialGradient id="paint59_radial_4706_14377" cx="0" cy="0" r="1" gradientUnits="userSpaceOnUse" gradientTransform="translate(198.697 197.5) rotate(134.135) scale(224.318 220.644)">
<stop stop-color="#BDCBDB"/>
<stop offset="1" stop-color="#BDCBDB" stop-opacity="0"/>
</radialGradient>
<radialGradient id="paint60_radial_4706_14377" cx="0" cy="0" r="1" gradientUnits="userSpaceOnUse" gradientTransform="translate(198.697 197.5) rotate(134.135) scale(224.318 220.644)">
<stop stop-color="#BDCBDB"/>
<stop offset="1" stop-color="#BDCBDB" stop-opacity="0"/>
</radialGradient>
<radialGradient id="paint61_radial_4706_14377" cx="0" cy="0" r="1" gradientUnits="userSpaceOnUse" gradientTransform="translate(198.697 197.5) rotate(134.135) scale(224.318 220.644)">
<stop stop-color="#BDCBDB"/>
<stop offset="1" stop-color="#BDCBDB" stop-opacity="0"/>
</radialGradient>
<radialGradient id="paint62_radial_4706_14377" cx="0" cy="0" r="1" gradientUnits="userSpaceOnUse" gradientTransform="translate(198.697 197.5) rotate(134.135) scale(224.318 220.644)">
<stop stop-color="#BDCBDB"/>
<stop offset="1" stop-color="#BDCBDB" stop-opacity="0"/>
</radialGradient>
<radialGradient id="paint63_radial_4706_14377" cx="0" cy="0" r="1" gradientUnits="userSpaceOnUse" gradientTransform="translate(198.697 197.5) rotate(134.135) scale(224.318 220.644)">
<stop stop-color="#BDCBDB"/>
<stop offset="1" stop-color="#BDCBDB" stop-opacity="0"/>
</radialGradient>
<radialGradient id="paint64_radial_4706_14377" cx="0" cy="0" r="1" gradientUnits="userSpaceOnUse" gradientTransform="translate(198.697 197.5) rotate(134.135) scale(224.318 220.644)">
<stop stop-color="#BDCBDB"/>
<stop offset="1" stop-color="#BDCBDB" stop-opacity="0"/>
</radialGradient>
<radialGradient id="paint65_radial_4706_14377" cx="0" cy="0" r="1" gradientUnits="userSpaceOnUse" gradientTransform="translate(198.697 197.5) rotate(134.135) scale(224.318 220.644)">
<stop stop-color="#BDCBDB"/>
<stop offset="1" stop-color="#BDCBDB" stop-opacity="0"/>
</radialGradient>
<radialGradient id="paint66_radial_4706_14377" cx="0" cy="0" r="1" gradientUnits="userSpaceOnUse" gradientTransform="translate(198.697 197.5) rotate(134.135) scale(224.318 220.644)">
<stop stop-color="#BDCBDB"/>
<stop offset="1" stop-color="#BDCBDB" stop-opacity="0"/>
</radialGradient>
<radialGradient id="paint67_radial_4706_14377" cx="0" cy="0" r="1" gradientUnits="userSpaceOnUse" gradientTransform="translate(198.697 197.5) rotate(134.135) scale(224.318 220.644)">
<stop stop-color="#BDCBDB"/>
<stop offset="1" stop-color="#BDCBDB" stop-opacity="0"/>
</radialGradient>
<radialGradient id="paint68_radial_4706_14377" cx="0" cy="0" r="1" gradientUnits="userSpaceOnUse" gradientTransform="translate(198.697 197.5) rotate(134.135) scale(224.318 220.644)">
<stop stop-color="#BDCBDB"/>
<stop offset="1" stop-color="#BDCBDB" stop-opacity="0"/>
</radialGradient>
<radialGradient id="paint69_radial_4706_14377" cx="0" cy="0" r="1" gradientUnits="userSpaceOnUse" gradientTransform="translate(198.697 197.5) rotate(134.135) scale(224.318 220.644)">
<stop stop-color="#BDCBDB"/>
<stop offset="1" stop-color="#BDCBDB" stop-opacity="0"/>
</radialGradient>
<radialGradient id="paint70_radial_4706_14377" cx="0" cy="0" r="1" gradientUnits="userSpaceOnUse" gradientTransform="translate(198.697 197.5) rotate(134.135) scale(224.318 220.644)">
<stop stop-color="#BDCBDB"/>
<stop offset="1" stop-color="#BDCBDB" stop-opacity="0"/>
</radialGradient>
<radialGradient id="paint71_radial_4706_14377" cx="0" cy="0" r="1" gradientUnits="userSpaceOnUse" gradientTransform="translate(198.697 197.5) rotate(134.135) scale(224.318 220.644)">
<stop stop-color="#BDCBDB"/>
<stop offset="1" stop-color="#BDCBDB" stop-opacity="0"/>
</radialGradient>
<radialGradient id="paint72_radial_4706_14377" cx="0" cy="0" r="1" gradientUnits="userSpaceOnUse" gradientTransform="translate(198.697 197.5) rotate(134.135) scale(224.318 220.644)">
<stop stop-color="#BDCBDB"/>
<stop offset="1" stop-color="#BDCBDB" stop-opacity="0"/>
</radialGradient>
<radialGradient id="paint73_radial_4706_14377" cx="0" cy="0" r="1" gradientUnits="userSpaceOnUse" gradientTransform="translate(198.697 197.5) rotate(134.135) scale(224.318 220.644)">
<stop stop-color="#BDCBDB"/>
<stop offset="1" stop-color="#BDCBDB" stop-opacity="0"/>
</radialGradient>
<radialGradient id="paint74_radial_4706_14377" cx="0" cy="0" r="1" gradientUnits="userSpaceOnUse" gradientTransform="translate(198.697 197.5) rotate(134.135) scale(224.318 220.644)">
<stop stop-color="#BDCBDB"/>
<stop offset="1" stop-color="#BDCBDB" stop-opacity="0"/>
</radialGradient>
<radialGradient id="paint75_radial_4706_14377" cx="0" cy="0" r="1" gradientUnits="userSpaceOnUse" gradientTransform="translate(198.697 197.5) rotate(134.135) scale(224.318 220.644)">
<stop stop-color="#BDCBDB"/>
<stop offset="1" stop-color="#BDCBDB" stop-opacity="0"/>
</radialGradient>
<radialGradient id="paint76_radial_4706_14377" cx="0" cy="0" r="1" gradientUnits="userSpaceOnUse" gradientTransform="translate(198.697 197.5) rotate(134.135) scale(224.318 220.644)">
<stop stop-color="#BDCBDB"/>
<stop offset="1" stop-color="#BDCBDB" stop-opacity="0"/>
</radialGradient>
<radialGradient id="paint77_radial_4706_14377" cx="0" cy="0" r="1" gradientUnits="userSpaceOnUse" gradientTransform="translate(198.697 197.5) rotate(134.135) scale(224.318 220.644)">
<stop stop-color="#BDCBDB"/>
<stop offset="1" stop-color="#BDCBDB" stop-opacity="0"/>
</radialGradient>
<radialGradient id="paint78_radial_4706_14377" cx="0" cy="0" r="1" gradientUnits="userSpaceOnUse" gradientTransform="translate(198.697 197.5) rotate(134.135) scale(224.318 220.644)">
<stop stop-color="#BDCBDB"/>
<stop offset="1" stop-color="#BDCBDB" stop-opacity="0"/>
</radialGradient>
<radialGradient id="paint79_radial_4706_14377" cx="0" cy="0" r="1" gradientUnits="userSpaceOnUse" gradientTransform="translate(198.697 197.5) rotate(134.135) scale(224.318 220.644)">
<stop stop-color="#BDCBDB"/>
<stop offset="1" stop-color="#BDCBDB" stop-opacity="0"/>
</radialGradient>
<radialGradient id="paint80_radial_4706_14377" cx="0" cy="0" r="1" gradientUnits="userSpaceOnUse" gradientTransform="translate(198.697 197.5) rotate(134.135) scale(224.318 220.644)">
<stop stop-color="#BDCBDB"/>
<stop offset="1" stop-color="#BDCBDB" stop-opacity="0"/>
</radialGradient>
<radialGradient id="paint81_radial_4706_14377" cx="0" cy="0" r="1" gradientUnits="userSpaceOnUse" gradientTransform="translate(198.697 197.5) rotate(134.135) scale(224.318 220.644)">
<stop stop-color="#BDCBDB"/>
<stop offset="1" stop-color="#BDCBDB" stop-opacity="0"/>
</radialGradient>
<radialGradient id="paint82_radial_4706_14377" cx="0" cy="0" r="1" gradientUnits="userSpaceOnUse" gradientTransform="translate(198.697 197.5) rotate(134.135) scale(224.318 220.644)">
<stop stop-color="#BDCBDB"/>
<stop offset="1" stop-color="#BDCBDB" stop-opacity="0"/>
</radialGradient>
<radialGradient id="paint83_radial_4706_14377" cx="0" cy="0" r="1" gradientUnits="userSpaceOnUse" gradientTransform="translate(198.697 197.5) rotate(134.135) scale(224.318 220.644)">
<stop stop-color="#BDCBDB"/>
<stop offset="1" stop-color="#BDCBDB" stop-opacity="0"/>
</radialGradient>
<radialGradient id="paint84_radial_4706_14377" cx="0" cy="0" r="1" gradientUnits="userSpaceOnUse" gradientTransform="translate(198.697 197.5) rotate(134.135) scale(224.318 220.644)">
<stop stop-color="#BDCBDB"/>
<stop offset="1" stop-color="#BDCBDB" stop-opacity="0"/>
</radialGradient>
<radialGradient id="paint85_radial_4706_14377" cx="0" cy="0" r="1" gradientUnits="userSpaceOnUse" gradientTransform="translate(198.697 197.5) rotate(134.135) scale(224.318 220.644)">
<stop stop-color="#BDCBDB"/>
<stop offset="1" stop-color="#BDCBDB" stop-opacity="0"/>
</radialGradient>
<radialGradient id="paint86_radial_4706_14377" cx="0" cy="0" r="1" gradientUnits="userSpaceOnUse" gradientTransform="translate(198.697 197.5) rotate(134.135) scale(224.318 220.644)">
<stop stop-color="#BDCBDB"/>
<stop offset="1" stop-color="#BDCBDB" stop-opacity="0"/>
</radialGradient>
<radialGradient id="paint87_radial_4706_14377" cx="0" cy="0" r="1" gradientUnits="userSpaceOnUse" gradientTransform="translate(198.697 197.5) rotate(134.135) scale(224.318 220.644)">
<stop stop-color="#BDCBDB"/>
<stop offset="1" stop-color="#BDCBDB" stop-opacity="0"/>
</radialGradient>
<radialGradient id="paint88_radial_4706_14377" cx="0" cy="0" r="1" gradientUnits="userSpaceOnUse" gradientTransform="translate(198.697 197.5) rotate(134.135) scale(224.318 220.644)">
<stop stop-color="#BDCBDB"/>
<stop offset="1" stop-color="#BDCBDB" stop-opacity="0"/>
</radialGradient>
<radialGradient id="paint89_radial_4706_14377" cx="0" cy="0" r="1" gradientUnits="userSpaceOnUse" gradientTransform="translate(198.697 197.5) rotate(134.135) scale(224.318 220.644)">
<stop stop-color="#BDCBDB"/>
<stop offset="1" stop-color="#BDCBDB" stop-opacity="0"/>
</radialGradient>
<radialGradient id="paint90_radial_4706_14377" cx="0" cy="0" r="1" gradientUnits="userSpaceOnUse" gradientTransform="translate(198.697 197.5) rotate(134.135) scale(224.318 220.644)">
<stop stop-color="#BDCBDB"/>
<stop offset="1" stop-color="#BDCBDB" stop-opacity="0"/>
</radialGradient>
<radialGradient id="paint91_radial_4706_14377" cx="0" cy="0" r="1" gradientUnits="userSpaceOnUse" gradientTransform="translate(198.697 197.5) rotate(134.135) scale(224.318 220.644)">
<stop stop-color="#BDCBDB"/>
<stop offset="1" stop-color="#BDCBDB" stop-opacity="0"/>
</radialGradient>
<radialGradient id="paint92_radial_4706_14377" cx="0" cy="0" r="1" gradientUnits="userSpaceOnUse" gradientTransform="translate(198.697 197.5) rotate(134.135) scale(224.318 220.644)">
<stop stop-color="#BDCBDB"/>
<stop offset="1" stop-color="#BDCBDB" stop-opacity="0"/>
</radialGradient>
<radialGradient id="paint93_radial_4706_14377" cx="0" cy="0" r="1" gradientUnits="userSpaceOnUse" gradientTransform="translate(198.697 197.5) rotate(134.135) scale(224.318 220.644)">
<stop stop-color="#BDCBDB"/>
<stop offset="1" stop-color="#BDCBDB" stop-opacity="0"/>
</radialGradient>
<radialGradient id="paint94_radial_4706_14377" cx="0" cy="0" r="1" gradientUnits="userSpaceOnUse" gradientTransform="translate(198.697 197.5) rotate(134.135) scale(224.318 220.644)">
<stop stop-color="#BDCBDB"/>
<stop offset="1" stop-color="#BDCBDB" stop-opacity="0"/>
</radialGradient>
<radialGradient id="paint95_radial_4706_14377" cx="0" cy="0" r="1" gradientUnits="userSpaceOnUse" gradientTransform="translate(198.697 197.5) rotate(134.135) scale(224.318 220.644)">
<stop stop-color="#BDCBDB"/>
<stop offset="1" stop-color="#BDCBDB" stop-opacity="0"/>
</radialGradient>
<radialGradient id="paint96_radial_4706_14377" cx="0" cy="0" r="1" gradientUnits="userSpaceOnUse" gradientTransform="translate(198.697 197.5) rotate(134.135) scale(224.318 220.644)">
<stop stop-color="#BDCBDB"/>
<stop offset="1" stop-color="#BDCBDB" stop-opacity="0"/>
</radialGradient>
<radialGradient id="paint97_radial_4706_14377" cx="0" cy="0" r="1" gradientUnits="userSpaceOnUse" gradientTransform="translate(198.697 197.5) rotate(134.135) scale(224.318 220.644)">
<stop stop-color="#BDCBDB"/>
<stop offset="1" stop-color="#BDCBDB" stop-opacity="0"/>
</radialGradient>
<radialGradient id="paint98_radial_4706_14377" cx="0" cy="0" r="1" gradientUnits="userSpaceOnUse" gradientTransform="translate(198.697 197.5) rotate(134.135) scale(224.318 220.644)">
<stop stop-color="#BDCBDB"/>
<stop offset="1" stop-color="#BDCBDB" stop-opacity="0"/>
</radialGradient>
<radialGradient id="paint99_radial_4706_14377" cx="0" cy="0" r="1" gradientUnits="userSpaceOnUse" gradientTransform="translate(198.697 197.5) rotate(134.135) scale(224.318 220.644)">
<stop stop-color="#BDCBDB"/>
<stop offset="1" stop-color="#BDCBDB" stop-opacity="0"/>
</radialGradient>
<radialGradient id="paint100_radial_4706_14377" cx="0" cy="0" r="1" gradientUnits="userSpaceOnUse" gradientTransform="translate(198.697 197.5) rotate(134.135) scale(224.318 220.644)">
<stop stop-color="#BDCBDB"/>
<stop offset="1" stop-color="#BDCBDB" stop-opacity="0"/>
</radialGradient>
<radialGradient id="paint101_radial_4706_14377" cx="0" cy="0" r="1" gradientUnits="userSpaceOnUse" gradientTransform="translate(198.697 197.5) rotate(134.135) scale(224.318 220.644)">
<stop stop-color="#BDCBDB"/>
<stop offset="1" stop-color="#BDCBDB" stop-opacity="0"/>
</radialGradient>
<radialGradient id="paint102_radial_4706_14377" cx="0" cy="0" r="1" gradientUnits="userSpaceOnUse" gradientTransform="translate(198.697 197.5) rotate(134.135) scale(224.318 220.644)">
<stop stop-color="#BDCBDB"/>
<stop offset="1" stop-color="#BDCBDB" stop-opacity="0"/>
</radialGradient>
<radialGradient id="paint103_radial_4706_14377" cx="0" cy="0" r="1" gradientUnits="userSpaceOnUse" gradientTransform="translate(198.697 197.5) rotate(134.135) scale(224.318 220.644)">
<stop stop-color="#BDCBDB"/>
<stop offset="1" stop-color="#BDCBDB" stop-opacity="0"/>
</radialGradient>
<radialGradient id="paint104_radial_4706_14377" cx="0" cy="0" r="1" gradientUnits="userSpaceOnUse" gradientTransform="translate(198.697 197.5) rotate(134.135) scale(224.318 220.644)">
<stop stop-color="#BDCBDB"/>
<stop offset="1" stop-color="#BDCBDB" stop-opacity="0"/>
</radialGradient>
<radialGradient id="paint105_radial_4706_14377" cx="0" cy="0" r="1" gradientUnits="userSpaceOnUse" gradientTransform="translate(198.697 197.5) rotate(134.135) scale(224.318 220.644)">
<stop stop-color="#BDCBDB"/>
<stop offset="1" stop-color="#BDCBDB" stop-opacity="0"/>
</radialGradient>
<radialGradient id="paint106_radial_4706_14377" cx="0" cy="0" r="1" gradientUnits="userSpaceOnUse" gradientTransform="translate(198.697 197.5) rotate(134.135) scale(224.318 220.644)">
<stop stop-color="#BDCBDB"/>
<stop offset="1" stop-color="#BDCBDB" stop-opacity="0"/>
</radialGradient>
<radialGradient id="paint107_radial_4706_14377" cx="0" cy="0" r="1" gradientUnits="userSpaceOnUse" gradientTransform="translate(198.697 197.5) rotate(134.135) scale(224.318 220.644)">
<stop stop-color="#BDCBDB"/>
<stop offset="1" stop-color="#BDCBDB" stop-opacity="0"/>
</radialGradient>
<radialGradient id="paint108_radial_4706_14377" cx="0" cy="0" r="1" gradientUnits="userSpaceOnUse" gradientTransform="translate(198.697 197.5) rotate(134.135) scale(224.318 220.644)">
<stop stop-color="#BDCBDB"/>
<stop offset="1" stop-color="#BDCBDB" stop-opacity="0"/>
</radialGradient>
<radialGradient id="paint109_radial_4706_14377" cx="0" cy="0" r="1" gradientUnits="userSpaceOnUse" gradientTransform="translate(198.697 197.5) rotate(134.135) scale(224.318 220.644)">
<stop stop-color="#BDCBDB"/>
<stop offset="1" stop-color="#BDCBDB" stop-opacity="0"/>
</radialGradient>
<radialGradient id="paint110_radial_4706_14377" cx="0" cy="0" r="1" gradientUnits="userSpaceOnUse" gradientTransform="translate(198.697 197.5) rotate(134.135) scale(224.318 220.644)">
<stop stop-color="#BDCBDB"/>
<stop offset="1" stop-color="#BDCBDB" stop-opacity="0"/>
</radialGradient>
<radialGradient id="paint111_radial_4706_14377" cx="0" cy="0" r="1" gradientUnits="userSpaceOnUse" gradientTransform="translate(198.697 197.5) rotate(134.135) scale(224.318 220.644)">
<stop stop-color="#BDCBDB"/>
<stop offset="1" stop-color="#BDCBDB" stop-opacity="0"/>
</radialGradient>
<radialGradient id="paint112_radial_4706_14377" cx="0" cy="0" r="1" gradientUnits="userSpaceOnUse" gradientTransform="translate(198.697 197.5) rotate(134.135) scale(224.318 220.644)">
<stop stop-color="#BDCBDB"/>
<stop offset="1" stop-color="#BDCBDB" stop-opacity="0"/>
</radialGradient>
<radialGradient id="paint113_radial_4706_14377" cx="0" cy="0" r="1" gradientUnits="userSpaceOnUse" gradientTransform="translate(198.697 197.5) rotate(134.135) scale(224.318 220.644)">
<stop stop-color="#BDCBDB"/>
<stop offset="1" stop-color="#BDCBDB" stop-opacity="0"/>
</radialGradient>
<radialGradient id="paint114_radial_4706_14377" cx="0" cy="0" r="1" gradientUnits="userSpaceOnUse" gradientTransform="translate(198.697 197.5) rotate(134.135) scale(224.318 220.644)">
<stop stop-color="#BDCBDB"/>
<stop offset="1" stop-color="#BDCBDB" stop-opacity="0"/>
</radialGradient>
<radialGradient id="paint115_radial_4706_14377" cx="0" cy="0" r="1" gradientUnits="userSpaceOnUse" gradientTransform="translate(198.697 197.5) rotate(134.135) scale(224.318 220.644)">
<stop stop-color="#BDCBDB"/>
<stop offset="1" stop-color="#BDCBDB" stop-opacity="0"/>
</radialGradient>
<radialGradient id="paint116_radial_4706_14377" cx="0" cy="0" r="1" gradientUnits="userSpaceOnUse" gradientTransform="translate(198.697 197.5) rotate(134.135) scale(224.318 220.644)">
<stop stop-color="#BDCBDB"/>
<stop offset="1" stop-color="#BDCBDB" stop-opacity="0"/>
</radialGradient>
<radialGradient id="paint117_radial_4706_14377" cx="0" cy="0" r="1" gradientUnits="userSpaceOnUse" gradientTransform="translate(198.697 197.5) rotate(134.135) scale(224.318 220.644)">
<stop stop-color="#BDCBDB"/>
<stop offset="1" stop-color="#BDCBDB" stop-opacity="0"/>
</radialGradient>
<radialGradient id="paint118_radial_4706_14377" cx="0" cy="0" r="1" gradientUnits="userSpaceOnUse" gradientTransform="translate(198.697 197.5) rotate(134.135) scale(224.318 220.644)">
<stop stop-color="#BDCBDB"/>
<stop offset="1" stop-color="#BDCBDB" stop-opacity="0"/>
</radialGradient>
<radialGradient id="paint119_radial_4706_14377" cx="0" cy="0" r="1" gradientUnits="userSpaceOnUse" gradientTransform="translate(198.697 197.5) rotate(134.135) scale(224.318 220.644)">
<stop stop-color="#BDCBDB"/>
<stop offset="1" stop-color="#BDCBDB" stop-opacity="0"/>
</radialGradient>
<radialGradient id="paint120_radial_4706_14377" cx="0" cy="0" r="1" gradientUnits="userSpaceOnUse" gradientTransform="translate(198.697 197.5) rotate(134.135) scale(224.318 220.644)">
<stop stop-color="#BDCBDB"/>
<stop offset="1" stop-color="#BDCBDB" stop-opacity="0"/>
</radialGradient>
<radialGradient id="paint121_radial_4706_14377" cx="0" cy="0" r="1" gradientUnits="userSpaceOnUse" gradientTransform="translate(198.697 197.5) rotate(134.135) scale(224.318 220.644)">
<stop stop-color="#BDCBDB"/>
<stop offset="1" stop-color="#BDCBDB" stop-opacity="0"/>
</radialGradient>
<radialGradient id="paint122_radial_4706_14377" cx="0" cy="0" r="1" gradientUnits="userSpaceOnUse" gradientTransform="translate(198.697 197.5) rotate(134.135) scale(224.318 220.644)">
<stop stop-color="#BDCBDB"/>
<stop offset="1" stop-color="#BDCBDB" stop-opacity="0"/>
</radialGradient>
<radialGradient id="paint123_radial_4706_14377" cx="0" cy="0" r="1" gradientUnits="userSpaceOnUse" gradientTransform="translate(198.697 197.5) rotate(134.135) scale(224.318 220.644)">
<stop stop-color="#BDCBDB"/>
<stop offset="1" stop-color="#BDCBDB" stop-opacity="0"/>
</radialGradient>
<radialGradient id="paint124_radial_4706_14377" cx="0" cy="0" r="1" gradientUnits="userSpaceOnUse" gradientTransform="translate(198.697 197.5) rotate(134.135) scale(224.318 220.644)">
<stop stop-color="#BDCBDB"/>
<stop offset="1" stop-color="#BDCBDB" stop-opacity="0"/>
</radialGradient>
<radialGradient id="paint125_radial_4706_14377" cx="0" cy="0" r="1" gradientUnits="userSpaceOnUse" gradientTransform="translate(198.697 197.5) rotate(134.135) scale(224.318 220.644)">
<stop stop-color="#BDCBDB"/>
<stop offset="1" stop-color="#BDCBDB" stop-opacity="0"/>
</radialGradient>
<radialGradient id="paint126_radial_4706_14377" cx="0" cy="0" r="1" gradientUnits="userSpaceOnUse" gradientTransform="translate(198.697 197.5) rotate(134.135) scale(224.318 220.644)">
<stop stop-color="#BDCBDB"/>
<stop offset="1" stop-color="#BDCBDB" stop-opacity="0"/>
</radialGradient>
<radialGradient id="paint127_radial_4706_14377" cx="0" cy="0" r="1" gradientUnits="userSpaceOnUse" gradientTransform="translate(198.697 197.5) rotate(134.135) scale(224.318 220.644)">
<stop stop-color="#BDCBDB"/>
<stop offset="1" stop-color="#BDCBDB" stop-opacity="0"/>
</radialGradient>
<radialGradient id="paint128_radial_4706_14377" cx="0" cy="0" r="1" gradientUnits="userSpaceOnUse" gradientTransform="translate(198.697 197.5) rotate(134.135) scale(224.318 220.644)">
<stop stop-color="#BDCBDB"/>
<stop offset="1" stop-color="#BDCBDB" stop-opacity="0"/>
</radialGradient>
<radialGradient id="paint129_radial_4706_14377" cx="0" cy="0" r="1" gradientUnits="userSpaceOnUse" gradientTransform="translate(198.697 197.5) rotate(134.135) scale(224.318 220.644)">
<stop stop-color="#BDCBDB"/>
<stop offset="1" stop-color="#BDCBDB" stop-opacity="0"/>
</radialGradient>
<radialGradient id="paint130_radial_4706_14377" cx="0" cy="0" r="1" gradientUnits="userSpaceOnUse" gradientTransform="translate(198.697 197.5) rotate(134.135) scale(224.318 220.644)">
<stop stop-color="#BDCBDB"/>
<stop offset="1" stop-color="#BDCBDB" stop-opacity="0"/>
</radialGradient>
<radialGradient id="paint131_radial_4706_14377" cx="0" cy="0" r="1" gradientUnits="userSpaceOnUse" gradientTransform="translate(198.697 197.5) rotate(134.135) scale(224.318 220.644)">
<stop stop-color="#BDCBDB"/>
<stop offset="1" stop-color="#BDCBDB" stop-opacity="0"/>
</radialGradient>
<radialGradient id="paint132_radial_4706_14377" cx="0" cy="0" r="1" gradientUnits="userSpaceOnUse" gradientTransform="translate(198.697 197.5) rotate(134.135) scale(224.318 220.644)">
<stop stop-color="#BDCBDB"/>
<stop offset="1" stop-color="#BDCBDB" stop-opacity="0"/>
</radialGradient>
<radialGradient id="paint133_radial_4706_14377" cx="0" cy="0" r="1" gradientUnits="userSpaceOnUse" gradientTransform="translate(198.697 197.5) rotate(134.135) scale(224.318 220.644)">
<stop stop-color="#BDCBDB"/>
<stop offset="1" stop-color="#BDCBDB" stop-opacity="0"/>
</radialGradient>
<radialGradient id="paint134_radial_4706_14377" cx="0" cy="0" r="1" gradientUnits="userSpaceOnUse" gradientTransform="translate(198.697 197.5) rotate(134.135) scale(224.318 220.644)">
<stop stop-color="#BDCBDB"/>
<stop offset="1" stop-color="#BDCBDB" stop-opacity="0"/>
</radialGradient>
<radialGradient id="paint135_radial_4706_14377" cx="0" cy="0" r="1" gradientUnits="userSpaceOnUse" gradientTransform="translate(198.697 197.5) rotate(134.135) scale(224.318 220.644)">
<stop stop-color="#BDCBDB"/>
<stop offset="1" stop-color="#BDCBDB" stop-opacity="0"/>
</radialGradient>
<radialGradient id="paint136_radial_4706_14377" cx="0" cy="0" r="1" gradientUnits="userSpaceOnUse" gradientTransform="translate(198.697 197.5) rotate(134.135) scale(224.318 220.644)">
<stop stop-color="#BDCBDB"/>
<stop offset="1" stop-color="#BDCBDB" stop-opacity="0"/>
</radialGradient>
<radialGradient id="paint137_radial_4706_14377" cx="0" cy="0" r="1" gradientUnits="userSpaceOnUse" gradientTransform="translate(198.697 197.5) rotate(134.135) scale(224.318 220.644)">
<stop stop-color="#BDCBDB"/>
<stop offset="1" stop-color="#BDCBDB" stop-opacity="0"/>
</radialGradient>
<radialGradient id="paint138_radial_4706_14377" cx="0" cy="0" r="1" gradientUnits="userSpaceOnUse" gradientTransform="translate(198.697 197.5) rotate(134.135) scale(224.318 220.644)">
<stop stop-color="#BDCBDB"/>
<stop offset="1" stop-color="#BDCBDB" stop-opacity="0"/>
</radialGradient>
<radialGradient id="paint139_radial_4706_14377" cx="0" cy="0" r="1" gradientUnits="userSpaceOnUse" gradientTransform="translate(198.697 197.5) rotate(134.135) scale(224.318 220.644)">
<stop stop-color="#BDCBDB"/>
<stop offset="1" stop-color="#BDCBDB" stop-opacity="0"/>
</radialGradient>
<radialGradient id="paint140_radial_4706_14377" cx="0" cy="0" r="1" gradientUnits="userSpaceOnUse" gradientTransform="translate(198.697 197.5) rotate(134.135) scale(224.318 220.644)">
<stop stop-color="#BDCBDB"/>
<stop offset="1" stop-color="#BDCBDB" stop-opacity="0"/>
</radialGradient>
<radialGradient id="paint141_radial_4706_14377" cx="0" cy="0" r="1" gradientUnits="userSpaceOnUse" gradientTransform="translate(198.697 197.5) rotate(134.135) scale(224.318 220.644)">
<stop stop-color="#BDCBDB"/>
<stop offset="1" stop-color="#BDCBDB" stop-opacity="0"/>
</radialGradient>
<radialGradient id="paint142_radial_4706_14377" cx="0" cy="0" r="1" gradientUnits="userSpaceOnUse" gradientTransform="translate(198.697 197.5) rotate(134.135) scale(224.318 220.644)">
<stop stop-color="#BDCBDB"/>
<stop offset="1" stop-color="#BDCBDB" stop-opacity="0"/>
</radialGradient>
<radialGradient id="paint143_radial_4706_14377" cx="0" cy="0" r="1" gradientUnits="userSpaceOnUse" gradientTransform="translate(198.697 197.5) rotate(134.135) scale(224.318 220.644)">
<stop stop-color="#BDCBDB"/>
<stop offset="1" stop-color="#BDCBDB" stop-opacity="0"/>
</radialGradient>
</defs>
</svg>
