<svg preserveAspectRatio="none" width="100%" height="100%" overflow="visible" style="display: block;" viewBox="0 0 112 26.6667" fill="none" xmlns="http://www.w3.org/2000/svg">
<g id="tinder">
<path id="Vector" fill-rule="evenodd" clip-rule="evenodd" d="M6.76536 10.7546C11.8495 8.99989 12.7148 4.42894 12.0658 0.22626C12.0658 0.0746169 12.1956 -0.0336996 12.3254 0.00962703C17.1932 2.39259 22.6667 7.59178 22.6667 15.3906C22.6667 21.3696 18.0369 26.6555 11.3086 26.6555C8.90774 26.7648 6.53889 26.0704 4.57594 24.6819C2.61299 23.2934 1.16773 21.2898 0.468264 18.9874C-0.231199 16.6851 -0.145027 14.215 0.71318 11.9671C1.57139 9.71926 3.15275 7.82158 5.20768 6.57361C5.33749 6.48695 5.51056 6.57361 5.51056 6.72525C5.57547 7.52679 5.79181 9.54148 6.67882 10.7546H6.76536Z" fill="url(#paint0_linear_4735_25147)"/>
<path id="Vector_2" fill-rule="evenodd" clip-rule="evenodd" d="M36.8851 21.9118L37.2523 21.4785L38.3973 25.1179L38.2461 25.2696C37.3819 26.0711 36.0857 26.4827 34.4223 26.4827H34.3575C32.8452 26.4827 31.657 26.0495 30.8361 25.2479C30.0152 24.4247 29.5831 23.1899 29.5831 21.6301V11.7084H26.6667V7.70065H29.5831V2.86973H34.0766V7.70065H37.6412V11.7084H34.055V20.6553C34.055 21.0669 34.163 22.3884 35.416 22.3884C36.0641 22.3884 36.669 22.1501 36.8851 21.8901V21.9118ZM39.2614 26.0711V7.72231H43.7549V26.0711H39.2614ZM41.4866 0.226807C42.0198 0.226824 42.541 0.385108 42.9846 0.681711C43.4282 0.978313 43.7743 1.39996 43.9793 1.8935C44.1843 2.38705 44.239 2.93041 44.1366 3.45509C44.0341 3.97977 43.7791 4.4623 43.4036 4.84186C43.0281 5.22142 42.5489 5.48101 42.0265 5.58793C41.5041 5.69485 40.9619 5.64431 40.4681 5.44267C39.9743 5.24103 39.551 4.89733 39.2517 4.45487C38.9524 4.01242 38.7904 3.49101 38.7862 2.95638C38.7862 1.48328 40.0176 0.226807 41.4866 0.226807ZM55.8312 7.26738C59.7198 7.26738 61.8586 9.39038 61.8586 13.2681V26.0495H57.3651V14.3513C57.2787 12.2716 56.2849 11.3184 54.1678 11.3184C52.2667 11.3184 50.7328 12.4882 49.9551 13.4847V26.0495H45.4616V7.74397H49.9551V9.69367C51.2513 8.4372 53.3252 7.31071 55.8312 7.31071V7.26738ZM76.8081 9.62868V1.00669H81.3016V26.0928H76.8081V24.1864C76.1205 24.9136 75.2933 25.4939 74.3763 25.8922C73.4593 26.2906 72.4714 26.4988 71.4721 26.5044C66.5681 26.5044 63.2844 22.6483 63.2844 16.9075C63.2844 11.1451 66.5681 7.28904 71.4721 7.28904C72.4736 7.29363 73.4636 7.50354 74.3812 7.90588C75.2988 8.30823 76.1247 8.89451 76.8081 9.62868V9.62868ZM76.8081 13.5064C76.3073 12.8524 75.6674 12.3185 74.9349 11.9438C74.2024 11.569 73.3958 11.3628 72.5738 11.3401C69.787 11.3401 67.9291 13.5714 67.9291 16.9075C67.9291 20.222 69.787 22.4534 72.5738 22.4534C74.1941 22.4534 75.9656 21.5868 76.8081 20.3304V13.5064ZM91.8008 7.28904C97.1153 7.28904 100.809 11.4051 100.809 17.2542V18.489H87.2209C87.6746 21.0669 89.7053 22.7133 92.4705 22.7133C94.2204 22.7133 96.1431 21.9551 97.2449 20.8503L97.5473 20.5903L99.6861 23.6665L99.47 23.8615C97.4457 25.6613 94.8067 26.6081 92.1033 26.5044C86.4864 26.5044 82.533 22.54 82.533 16.8859C82.4893 15.6376 82.6976 14.3933 83.1454 13.2277C83.5932 12.0621 84.2713 10.9992 85.1388 10.1029C86.0064 9.20664 87.0457 8.49537 88.1942 8.01183C89.3427 7.52829 90.5768 7.28244 91.8224 7.28904H91.8008ZM87.1993 15.0878H96.424C96.1647 12.3366 93.8964 11.0801 91.8008 11.0801C88.6467 11.0801 87.4586 13.4631 87.1993 15.1095V15.0878ZM111.676 7.28904H112V11.8383L111.611 11.7733C111.287 11.7084 110.877 11.665 110.466 11.665C109.019 11.665 107.01 12.6832 106.254 13.7664V26.0495H101.76V7.72231H106.275V9.75866C107.766 8.1989 109.732 7.28904 111.676 7.28904V7.28904Z" fill="var(--fill-0, #424242)"/>
</g>
<defs>
<linearGradient id="paint0_linear_4735_25147" x1="22.6668" y1="-1.58946e-06" x2="-3.65166" y2="22.3707" gradientUnits="userSpaceOnUse">
<stop stop-color="#FF7854"/>
<stop offset="1" stop-color="#FD267D"/>
</linearGradient>
</defs>
</svg>
