<svg preserveAspectRatio="none" width="100%" height="100%" overflow="visible" style="display: block;" viewBox="0 0 16.6667 16.6667" fill="none" xmlns="http://www.w3.org/2000/svg">
<path id="Shape" fill-rule="evenodd" clip-rule="evenodd" d="M0 8.33333C0 3.73096 3.73096 0 8.33333 0C12.9357 0 16.6667 3.73096 16.6667 8.33333C16.6667 12.9357 12.9357 16.6667 8.33333 16.6667C3.73096 16.6667 0 12.9357 0 8.33333ZM8.33333 4.16667C8.79357 4.16667 9.16667 4.53976 9.16667 5V8.33333C9.16667 8.79357 8.79357 9.16667 8.33333 9.16667C7.8731 9.16667 7.5 8.79357 7.5 8.33333V5C7.5 4.53976 7.8731 4.16667 8.33333 4.16667ZM7.5 11.6667C7.5 11.2064 7.8731 10.8333 8.33333 10.8333C8.79357 10.8333 9.16667 11.2064 9.16667 11.6667C9.16667 12.1269 8.79357 12.5 8.33333 12.5C7.8731 12.5 7.5 12.1269 7.5 11.6667Z" fill="var(--fill-0, #CB3030)"/>
</svg>
