<svg preserveAspectRatio="none" width="100%" height="100%" overflow="visible" style="display: block;" viewBox="0 0 45.3333 26.6667" fill="none" xmlns="http://www.w3.org/2000/svg">
<path id="WSJ" fill-rule="evenodd" clip-rule="evenodd" d="M10.9778 4.78285C10.2667 1.35364 10.0444 1.21827 8.44445 1.12803V0.541455H15.6V1.12803C13.6444 1.30852 13.6 1.30852 14.3111 5.32431L16.6667 18.0034L19.4667 4.37676C20.0444 1.57924 19.8222 1.30852 18 1.17315L17.4222 1.12803V0.541455H22.5333V1.12803C20.9778 1.2634 20.9778 1.66949 20.3556 4.64749L15.7778 26.6667H15.3333L11.4222 6.94868L7.28889 26.6667H6.84444L2.17778 3.56458C1.77778 1.53412 1.68889 1.21827 0 1.12803V0.541455H6.97778V1.12803C5.2 1.30852 5.15556 1.489 5.86667 5.32431L8.26667 17.9131L10.9778 4.78285ZM29.6 26.5313C27.0667 26.5313 25.5556 24.1399 24.9778 24.1399C24.3556 24.1399 23.6444 25.4935 23.4222 26.0801H22.8889V17.5973H23.4222C24.9778 22.2448 27.4667 25.8996 29.5111 25.8996C30.7111 25.8996 31.4667 24.7716 31.4667 23.1021C31.4667 16.9656 23.0222 12.9949 23.0222 5.45967C23.0222 2.39143 25.1556 0 27.4667 0C29.5556 0 30.7111 1.71461 31.3778 1.71461C31.7333 1.71461 32 1.44388 32.4444 0.36097H32.8444V7.94134H32.3111C31.3333 4.28652 29.3333 0.586577 27.3778 0.586577C26.1778 0.586577 25.2889 1.71461 25.2889 3.3841C25.2889 9.29498 33.7333 13.04 33.7333 20.846C33.7778 24.0948 31.8222 26.5313 29.6 26.5313ZM38.3556 26.5313C35.7778 26.5313 34.7556 24.9069 34.7556 23.3277C34.7556 21.7484 35.6889 20.1241 37.1111 20.1241C38.6222 20.1241 39.2444 21.6582 38.5333 22.7411C37.9556 23.6887 36.4 23.7789 36.4 24.5008C36.4 25.6289 37.3333 25.8996 38.0889 25.8996C40.3111 25.8996 40.1778 24.5008 40.1778 19.718V2.79752C40.1778 1.44388 39.8667 1.12803 38.4444 1.12803H37.9111V0.541455H45.3333V1.12803H44.7111C43.9556 1.12803 43.6444 1.44388 43.6444 2.84264V19.4021C43.6444 24.0496 40.3556 26.5313 38.3556 26.5313Z" fill="var(--fill-0, #A0AAB0)"/>
</svg>
