<svg preserveAspectRatio="none" width="100%" height="100%" overflow="visible" style="display: block;" viewBox="0 0 24.9109 25" fill="none" xmlns="http://www.w3.org/2000/svg">
<g id="Symbol">
<path id="Vector" fill-rule="evenodd" clip-rule="evenodd" d="M14.195 5.1865L12.4557 0C19.3387 0.0239279 24.9109 5.6111 24.9109 12.5C24.9109 19.3927 19.3437 24.9821 12.4557 25L14.1829 19.8164C17.4845 19.0196 19.9376 16.0466 19.9376 12.5C19.9376 8.95779 17.4906 5.98759 14.195 5.1865Z" fill="var(--fill-0, #3392FF)"/>
<path id="Vector_2" fill-rule="evenodd" clip-rule="evenodd" d="M10.7159 5.1865L12.4552 0C5.57225 0.0239279 0 5.6111 0 12.5C0 19.3927 5.56717 24.9821 12.4552 25L10.728 19.8164C7.42638 19.0196 4.97329 16.0466 4.97329 12.5C4.97329 8.95779 7.42033 5.98759 10.7159 5.1865Z" fill="var(--fill-0, #3392FF)"/>
</g>
</svg>
