<svg preserveAspectRatio="none" width="100%" height="100%" overflow="visible" style="display: block;" viewBox="0 0 17.9999 17.9999" fill="none" xmlns="http://www.w3.org/2000/svg">
<path id="search" d="M7 0C10.866 0 14 3.13401 14 7C14 8.57231 13.4807 10.0228 12.6055 11.1914L17.707 16.293C18.0976 16.6835 18.0976 17.3165 17.707 17.707C17.3165 18.0976 16.6835 18.0976 16.293 17.707L11.1914 12.6055C10.0228 13.4807 8.57231 14 7 14C3.13401 14 0 10.866 0 7C0 3.13401 3.13401 0 7 0ZM7 2C4.23858 2 2 4.23858 2 7C2 9.76142 4.23858 12 7 12C9.76142 12 12 9.76142 12 7C12 4.23858 9.76142 2 7 2Z" fill="var(--fill-0, #4E5A63)"/>
</svg>
