<svg preserveAspectRatio="none" width="100%" height="100%" overflow="visible" style="display: block;" viewBox="0 0 16 15.1477" fill="none" xmlns="http://www.w3.org/2000/svg">
<g id="Linkedin">
<path id="Vector" d="M10.6721 8.29186C9.83264 8.29186 9.15213 8.97238 9.15213 9.81183V15.1397H5.3442C5.3442 15.1397 5.3922 6.0119 5.3442 5.25192H9.15213V6.3799C9.99403 5.67647 11.055 5.28886 12.1521 5.28392C14.4 5.28392 16 6.88389 16 10.0838V15.1477H12.1921V9.81183C12.1921 8.97238 11.5116 8.29186 10.6721 8.29186ZM1.92026 3.72395C1.41143 3.74158 0.917699 3.54942 0.554674 3.19244C0.191649 2.83547 -0.00878792 2.34503 0.000295849 1.83598C-0.000517659 1.33155 0.206702 0.849096 0.573098 0.502383C0.939493 0.15567 1.43264 -0.0246221 1.93626 0.00401462C2.62988 -0.0414989 3.29119 0.302719 3.65181 0.896965C4.01243 1.49121 4.01243 2.23675 3.65181 2.831C3.29119 3.42524 2.62988 3.76946 1.93626 3.72395H1.92026ZM3.82423 15.1397H0.000295849V5.25192H3.82423V15.1397Z" fill="var(--fill-0, #0E0F10)"/>
</g>
</svg>
