<svg preserveAspectRatio="none" width="100%" height="100%" overflow="visible" style="display: block;" viewBox="0 0 26.6667 26.6667" fill="none" xmlns="http://www.w3.org/2000/svg">
<g id="Group">
<path id="Vector" d="M13.3377 6.22559e-07C7.77115 6.22559e-07 6.14314 0.00574542 5.82668 0.0320005C4.68434 0.126983 3.97351 0.306898 3.19908 0.692561C2.60227 0.989007 2.13159 1.33262 1.66706 1.8143C0.821067 2.69274 0.308341 3.77344 0.122731 5.05807C0.0324963 5.68171 0.00624098 5.80889 0.000909327 8.9944C-0.00113666 10.0562 0.000909327 11.4537 0.000909327 13.3281C0.000909327 18.8916 0.00705733 20.5185 0.0337257 20.8344C0.126017 21.9463 0.300338 22.6458 0.669503 23.411C1.37501 24.8757 2.72244 25.9753 4.30984 26.3856C4.85949 26.5272 5.46655 26.6051 6.24589 26.642C6.57609 26.6564 9.9416 26.6667 13.3092 26.6667C16.6768 26.6667 20.0443 26.6626 20.3663 26.6462C21.2687 26.6037 21.7927 26.5333 22.3721 26.3836C23.9697 25.9712 25.2926 24.8881 26.0124 23.4028C26.3744 22.6561 26.558 21.9298 26.641 20.876C26.6591 20.6463 26.6667 16.983 26.6667 13.3246C26.6667 9.66563 26.6585 6.00912 26.6404 5.77935C26.5563 4.7085 26.3728 3.98844 25.9991 3.22734C25.6925 2.60432 25.3521 2.13904 24.8578 1.66333C23.9757 0.820581 22.8969 0.307715 21.6114 0.122266C20.9886 0.0322022 20.8645 0.00553385 17.6774 6.22559e-07H13.3377Z" fill="url(#paint0_radial_4706_14183)"/>
<path id="Vector_2" d="M13.3377 6.22559e-07C7.77115 6.22559e-07 6.14314 0.00574542 5.82668 0.0320005C4.68434 0.126983 3.97351 0.306898 3.19908 0.692561C2.60227 0.989007 2.13159 1.33262 1.66706 1.8143C0.821067 2.69274 0.308341 3.77344 0.122731 5.05807C0.0324963 5.68171 0.00624098 5.80889 0.000909327 8.9944C-0.00113666 10.0562 0.000909327 11.4537 0.000909327 13.3281C0.000909327 18.8916 0.00705733 20.5185 0.0337257 20.8344C0.126017 21.9463 0.300338 22.6458 0.669503 23.411C1.37501 24.8757 2.72244 25.9753 4.30984 26.3856C4.85949 26.5272 5.46655 26.6051 6.24589 26.642C6.57609 26.6564 9.9416 26.6667 13.3092 26.6667C16.6768 26.6667 20.0443 26.6626 20.3663 26.6462C21.2687 26.6037 21.7927 26.5333 22.3721 26.3836C23.9697 25.9712 25.2926 24.8881 26.0124 23.4028C26.3744 22.6561 26.558 21.9298 26.641 20.876C26.6591 20.6463 26.6667 16.983 26.6667 13.3246C26.6667 9.66563 26.6585 6.00912 26.6404 5.77935C26.5563 4.7085 26.3728 3.98844 25.9991 3.22734C25.6925 2.60432 25.3521 2.13904 24.8578 1.66333C23.9757 0.820581 22.8969 0.307715 21.6114 0.122266C20.9886 0.0322022 20.8645 0.00553385 17.6774 6.22559e-07H13.3377Z" fill="url(#paint1_radial_4706_14183)"/>
<path id="Vector_3" d="M13.3377 6.22559e-07C7.77115 6.22559e-07 6.14314 0.00574542 5.82668 0.0320005C4.68434 0.126983 3.97351 0.306898 3.19908 0.692561C2.60227 0.989007 2.13159 1.33262 1.66706 1.8143C0.821067 2.69274 0.308341 3.77344 0.122731 5.05807C0.0324963 5.68171 0.00624098 5.80889 0.000909327 8.9944C-0.00113666 10.0562 0.000909327 11.4537 0.000909327 13.3281C0.000909327 18.8916 0.00705733 20.5185 0.0337257 20.8344C0.126017 21.9463 0.300338 22.6458 0.669503 23.411C1.37501 24.8757 2.72244 25.9753 4.30984 26.3856C4.85949 26.5272 5.46655 26.6051 6.24589 26.642C6.57609 26.6564 9.9416 26.6667 13.3092 26.6667C16.6768 26.6667 20.0443 26.6626 20.3663 26.6462C21.2687 26.6037 21.7927 26.5333 22.3721 26.3836C23.9697 25.9712 25.2926 24.8881 26.0124 23.4028C26.3744 22.6561 26.558 21.9298 26.641 20.876C26.6591 20.6463 26.6667 16.983 26.6667 13.3246C26.6667 9.66563 26.6585 6.00912 26.6404 5.77935C26.5563 4.7085 26.3728 3.98844 25.9991 3.22734C25.6925 2.60432 25.3521 2.13904 24.8578 1.66333C23.9757 0.820581 22.8969 0.307715 21.6114 0.122266C20.9886 0.0322022 20.8645 0.00553385 17.6774 6.22559e-07H13.3377Z" fill="url(#paint2_radial_4706_14183)"/>
<path id="Vector_4" d="M13.3377 6.22559e-07C7.77115 6.22559e-07 6.14314 0.00574542 5.82668 0.0320005C4.68434 0.126983 3.97351 0.306898 3.19908 0.692561C2.60227 0.989007 2.13159 1.33262 1.66706 1.8143C0.821067 2.69274 0.308341 3.77344 0.122731 5.05807C0.0324963 5.68171 0.00624098 5.80889 0.000909327 8.9944C-0.00113666 10.0562 0.000909327 11.4537 0.000909327 13.3281C0.000909327 18.8916 0.00705733 20.5185 0.0337257 20.8344C0.126017 21.9463 0.300338 22.6458 0.669503 23.411C1.37501 24.8757 2.72244 25.9753 4.30984 26.3856C4.85949 26.5272 5.46655 26.6051 6.24589 26.642C6.57609 26.6564 9.9416 26.6667 13.3092 26.6667C16.6768 26.6667 20.0443 26.6626 20.3663 26.6462C21.2687 26.6037 21.7927 26.5333 22.3721 26.3836C23.9697 25.9712 25.2926 24.8881 26.0124 23.4028C26.3744 22.6561 26.558 21.9298 26.641 20.876C26.6591 20.6463 26.6667 16.983 26.6667 13.3246C26.6667 9.66563 26.6585 6.00912 26.6404 5.77935C26.5563 4.7085 26.3728 3.98844 25.9991 3.22734C25.6925 2.60432 25.3521 2.13904 24.8578 1.66333C23.9757 0.820581 22.8969 0.307715 21.6114 0.122266C20.9886 0.0322022 20.8645 0.00553385 17.6774 6.22559e-07H13.3377Z" fill="url(#paint3_radial_4706_14183)"/>
<path id="Vector_5" d="M13.3387 3.42409C10.646 3.42409 10.3081 3.43585 9.25048 3.48394C8.19496 3.53224 7.47448 3.69923 6.84406 3.94424C6.19195 4.19729 5.63878 4.53579 5.08769 5.08669C4.53618 5.63739 4.19741 6.19014 3.94335 6.84156C3.69753 7.47172 3.53022 8.19186 3.48272 9.24619C3.43542 10.303 3.42302 10.6409 3.42302 13.3316C3.42302 16.0223 3.435 16.359 3.48292 17.4157C3.53147 18.4705 3.69857 19.1904 3.94355 19.8204C4.197 20.472 4.53575 21.0248 5.08706 21.5755C5.63796 22.1266 6.19113 22.4659 6.84282 22.7189C7.47365 22.964 8.19435 23.1309 9.24965 23.1792C10.3072 23.2273 10.645 23.2391 13.3375 23.2391C16.0304 23.2391 16.3673 23.2273 17.4249 23.1792C18.4804 23.1309 19.2017 22.964 19.8325 22.7189C20.4844 22.4659 21.0368 22.1266 21.5877 21.5755C22.1392 21.0248 22.478 20.472 22.732 19.8206C22.9757 19.1904 23.1431 18.4703 23.1926 17.416C23.2401 16.3592 23.2525 16.0223 23.2525 13.3316C23.2525 10.6409 23.2401 10.3032 23.1926 9.24639C23.1431 8.19165 22.9757 7.47172 22.732 6.84177C22.478 6.19014 22.1392 5.63738 21.5877 5.08669C21.0362 4.53558 20.4846 4.19708 19.8319 3.94423C19.1998 3.69923 18.4789 3.53224 17.4234 3.48394C16.3658 3.43585 16.0291 3.42409 13.3356 3.42409H13.3387ZM12.4493 5.2095C12.7133 5.20909 13.0078 5.2095 13.3387 5.2095C15.986 5.2095 16.2997 5.219 17.3451 5.26647C18.3118 5.31065 18.8365 5.47205 19.186 5.60766C19.6487 5.78723 19.9786 6.0019 20.3254 6.34865C20.6724 6.69542 20.8872 7.02567 21.0673 7.48802C21.2031 7.83684 21.3648 8.36112 21.4088 9.3271C21.4563 10.3715 21.4666 10.6853 21.4666 13.3293C21.4666 15.9734 21.4563 16.2871 21.4088 17.3315C21.3646 18.2975 21.2031 18.8218 21.0673 19.1706C20.8876 19.633 20.6724 19.9622 20.3254 20.3087C19.9784 20.6555 19.6489 20.8702 19.186 21.0497C18.8369 21.186 18.3118 21.347 17.3451 21.3911C16.3 21.4386 15.986 21.4489 13.3387 21.4489C10.6912 21.4489 10.3775 21.4386 9.33228 21.3911C8.36558 21.3466 7.84093 21.1851 7.49121 21.0495C7.02852 20.87 6.69802 20.6553 6.35101 20.3085C6.00398 19.9618 5.78917 19.6324 5.60904 19.1698C5.47333 18.821 5.31159 18.2967 5.2676 17.3307C5.22009 16.2863 5.21059 15.9726 5.21059 13.3268C5.21059 10.6811 5.22009 10.369 5.2676 9.32463C5.31181 8.35864 5.47333 7.83437 5.60904 7.48513C5.78874 7.02278 6.00398 6.69253 6.35101 6.34577C6.69802 5.999 7.02852 5.78435 7.49121 5.60436C7.84071 5.46813 8.36558 5.30714 9.33228 5.26275C10.2469 5.22147 10.6014 5.20909 12.4493 5.20702L12.4493 5.2095ZM18.6312 6.85456C17.9743 6.85456 17.4414 7.38647 17.4414 8.04304C17.4414 8.69942 17.9743 9.23195 18.6312 9.23195C19.288 9.23195 19.821 8.69942 19.821 8.04304C19.821 7.38667 19.288 6.85415 18.6312 6.85415L18.6312 6.85456ZM13.3387 8.24367C10.5268 8.24367 8.24702 10.5218 8.24702 13.3316C8.24702 16.1414 10.5268 18.4185 13.3387 18.4185C16.1506 18.4185 18.4296 16.1414 18.4296 13.3316C18.4296 10.5218 16.1504 8.24367 13.3385 8.24367H13.3387ZM13.3387 10.0291C15.1639 10.0291 16.6437 11.5076 16.6437 13.3316C16.6437 15.1554 15.1639 16.6341 13.3387 16.6341C11.5133 16.6341 10.0338 15.1554 10.0338 13.3316C10.0338 11.5076 11.5133 10.0291 13.3387 10.0291Z" fill="var(--fill-0, white)"/>
</g>
<defs>
<radialGradient id="paint0_radial_4706_14183" cx="0" cy="0" r="1" gradientTransform="matrix(-16.3988 4.62485 -3.33203 -11.8145 25.8056 12.499)" gradientUnits="userSpaceOnUse">
<stop stop-color="#FF005F"/>
<stop offset="1" stop-color="#FC01D8"/>
</radialGradient>
<radialGradient id="paint1_radial_4706_14183" cx="0" cy="0" r="1" gradientUnits="userSpaceOnUse" gradientTransform="translate(7.08313 28.7205) rotate(-90) scale(21.2858 22.5838)">
<stop stop-color="#FFCC00"/>
<stop offset="0.1242" stop-color="#FFCC00"/>
<stop offset="0.5672" stop-color="#FE4A05"/>
<stop offset="0.6942" stop-color="#FF0F3F"/>
<stop offset="1" stop-color="#FE0657" stop-opacity="0"/>
</radialGradient>
<radialGradient id="paint2_radial_4706_14183" cx="0" cy="0" r="1" gradientTransform="matrix(4.41818 -7.61267 9.91082 5.752 14.0072 26.2906)" gradientUnits="userSpaceOnUse">
<stop stop-color="#FFCC00"/>
<stop offset="1" stop-color="#FFCC00" stop-opacity="0"/>
</radialGradient>
<radialGradient id="paint3_radial_4706_14183" cx="0" cy="0" r="1" gradientTransform="matrix(-16.2188 4.56693 -1.55555 -5.52584 3.61809 1.08586)" gradientUnits="userSpaceOnUse">
<stop stop-color="#780CFF"/>
<stop offset="1" stop-color="#820BFF" stop-opacity="0"/>
</radialGradient>
</defs>
</svg>
