<svg preserveAspectRatio="none" width="100%" height="100%" overflow="visible" style="display: block;" viewBox="0 0 93.333 26.667" fill="none" xmlns="http://www.w3.org/2000/svg">
<path id="Union" d="M13.4502 0C20.8789 0 26.9014 5.97384 26.9014 13.3428L26.8975 13.6504C26.7231 20.8602 20.7813 26.6568 13.4688 26.667H13.4502C6.02776 26.6523 0.0144756 20.687 0 13.3242C0.0246395 5.96858 6.03507 0.0144931 13.4502 0ZM84.6533 0.763672C90.0202 0.763672 92.7996 4.01989 92.8135 4.03613L89.3389 7.47949C88.1801 6.21028 86.5506 5.46353 84.8252 5.41113C82.21 5.41121 81.1787 6.44553 81.1787 7.82422C81.1795 11.9561 93.333 10.0482 93.333 18.502C93.3328 22.4637 89.8623 25.914 84.1309 25.9141C77.8977 25.8809 74.7737 22.1114 74.7559 22.0898L78.2275 18.6465C79.6831 20.2751 81.7652 21.217 83.959 21.2402C86.7347 21.2401 87.953 20.0361 87.9531 18.4834C87.9531 14.3507 75.7952 16.2593 75.7949 7.80566C75.7949 4.01777 79.0939 0.763733 84.6533 0.763672ZM42.4932 0.733398C46.468 0.714327 50.237 2.48702 52.7383 5.55176L49.2822 8.99902C49.2822 8.99902 46.8533 5.55566 42.5117 5.55566C38.197 5.55579 34.6992 9.02565 34.6992 13.3057C34.6992 17.5857 38.197 21.0555 42.5117 21.0557C47.0252 21.0557 49.458 17.6123 49.458 17.6123L52.9287 21.0557C50.378 24.1524 46.5427 25.9266 42.5117 25.874C35.0241 25.8813 29.2969 20.1954 29.2969 13.3057C29.2969 6.41561 35.024 0.733457 42.4932 0.733398ZM65.1016 1.24902C69.9588 1.24902 72.9141 4.17717 72.9141 7.62402C72.9429 9.79942 71.6379 11.7747 69.6152 12.6162C69.6539 12.6267 74.1288 13.8442 74.1289 18.4717C74.1289 22.2629 71.005 25.3621 65.7969 25.3623H54.8564V1.24902H65.1016ZM13.4512 5.33301C10.6774 5.31273 7.96285 6.13002 5.66797 7.67578C3.54242 9.05637 1.85737 11.0091 0.810547 13.3057C1.8612 15.6084 3.54473 17.5711 5.66797 18.9688C7.97048 20.4942 10.6825 21.2982 13.4512 21.2773C16.2086 21.301 18.909 20.4966 21.1963 18.9688C23.3359 17.5795 25.0336 15.6155 26.0908 13.3057C25.0374 11.0023 23.3383 9.04785 21.1963 7.67578C18.9166 6.12844 16.2134 5.31051 13.4512 5.33301ZM60.0654 20.8848H65.4492C67.53 20.8847 68.7479 19.6802 68.748 17.957C68.748 16.2336 67.5301 15.0294 65.4492 15.0293H60.0654V20.8848ZM8.42188 8.30566C11.2078 5.54252 15.7242 5.54234 18.5098 8.30566C19.8788 9.61071 20.6378 11.4224 20.6055 13.3057C20.6071 17.2151 17.4139 20.386 13.4727 20.3877C11.5779 20.3886 9.7612 19.6418 8.42188 18.3125C5.63616 15.549 5.63616 11.0689 8.42188 8.30566ZM60.0654 10.5439L64.7539 10.5518C66.4913 10.5518 67.5303 9.51741 67.5303 8.13867C67.5302 6.75993 66.4912 5.72559 64.7539 5.72559H60.0654V10.5439Z" fill="var(--fill-0, #A0AAB0)"/>
</svg>
