<svg preserveAspectRatio="none" width="100%" height="100%" overflow="visible" style="display: block;" viewBox="0 0 332 330" fill="none" xmlns="http://www.w3.org/2000/svg">
<g id="Pattern Left">
<path fill-rule="evenodd" clip-rule="evenodd" d="M5.86869 5.4685C5.25657 5.4685 4.76036 5.96411 4.76036 6.57546V8.78549C4.76036 9.12839 4.48204 9.40637 4.13871 9.40637H0.62165C0.278322 9.40637 0 9.12839 0 8.78549V6.57546C0 3.33828 2.6275 0.714022 5.86869 0.714022C9.10987 0.714022 11.7374 3.33828 11.7374 6.57546V8.78549C11.7374 9.12839 11.4591 9.40637 11.1157 9.40637H7.59866C7.25534 9.40637 6.97701 9.12839 6.97701 8.78549V6.57546C6.97701 5.96411 6.4808 5.4685 5.86869 5.4685Z" fill="url(#paint0_radial_4706_14150)" fill-opacity="0.2"/>
<path d="M40.0561 5.07589C40.0561 7.86198 37.7947 10.1206 35.0052 10.1206C32.2156 10.1206 29.9543 7.86198 29.9543 5.07589C29.9543 2.2898 32.2156 0.0312227 35.0052 0.0312227C37.7947 0.0312227 40.0561 2.2898 40.0561 5.07589Z" fill="url(#paint1_radial_4706_14150)" fill-opacity="0.2"/>
<path d="M68.2524 0.0930372C68.708 0.0930372 69.0774 0.461948 69.0774 0.917023V9.20317C69.0774 9.65824 68.708 10.0272 68.2524 10.0272H59.956C59.5003 10.0272 59.131 9.65824 59.131 9.20317V0.917023C59.131 0.461948 59.5003 0.0930372 59.956 0.0930372H68.2524Z" fill="url(#paint2_radial_4706_14150)" fill-opacity="0.2"/>
<path fill-rule="evenodd" clip-rule="evenodd" d="M93.2129 5.4685C92.6008 5.4685 92.1046 5.96411 92.1046 6.57546V8.78549C92.1046 9.12839 91.8263 9.40637 91.483 9.40637H87.9659C87.6226 9.40637 87.3443 9.12839 87.3443 8.78549V6.57546C87.3443 3.33828 89.9718 0.714022 93.2129 0.714022C96.4541 0.714022 99.0816 3.33828 99.0816 6.57546V8.78549C99.0816 9.12839 98.8033 9.40637 98.46 9.40637H94.9429C94.5996 9.40637 94.3213 9.12839 94.3213 8.78549V6.57546C94.3213 5.96411 93.8251 5.4685 93.2129 5.4685Z" fill="url(#paint3_radial_4706_14150)" fill-opacity="0.2"/>
<path d="M127.824 4.45128C128.046 4.83548 128.046 5.30884 127.824 5.69304L125.628 9.49221C125.406 9.87642 124.996 10.1131 124.551 10.1131L120.159 10.1131C119.715 10.1131 119.304 9.87641 119.082 9.49221L116.886 5.69304C116.664 5.30884 116.664 4.83548 116.886 4.45128L119.082 0.652105C119.304 0.267901 119.715 0.0312223 120.159 0.0312223L124.551 0.0312225C124.996 0.0312225 125.406 0.267902 125.628 0.652105L127.824 4.45128Z" fill="url(#paint4_radial_4706_14150)" fill-opacity="0.2"/>
<path d="M156.515 5.07589C156.515 7.86198 154.253 10.1206 151.464 10.1206C148.674 10.1206 146.413 7.86198 146.413 5.07589C146.413 2.2898 148.674 0.0312227 151.464 0.0312227C154.253 0.0312227 156.515 2.2898 156.515 5.07589Z" fill="url(#paint5_radial_4706_14150)" fill-opacity="0.2"/>
<path d="M180.037 0.310441C180.276 -0.10348 180.874 -0.10348 181.114 0.310441L186.253 9.20179C186.493 9.61571 186.194 10.1331 185.715 10.1331H175.436C174.957 10.1331 174.658 9.61571 174.897 9.20179L180.037 0.310441Z" fill="url(#paint6_radial_4706_14150)" fill-opacity="0.2"/>
<path fill-rule="evenodd" clip-rule="evenodd" d="M209.672 5.4685C209.06 5.4685 208.564 5.96411 208.564 6.57546V8.78549C208.564 9.12839 208.285 9.40637 207.942 9.40637H204.425C204.082 9.40637 203.803 9.12839 203.803 8.78549V6.57546C203.803 3.33828 206.431 0.714022 209.672 0.714022C212.913 0.714022 215.541 3.33828 215.541 6.57546V8.78549C215.541 9.12839 215.262 9.40637 214.919 9.40637H211.402C211.059 9.40637 210.78 9.12839 210.78 8.78549V6.57546C210.78 5.96411 210.284 5.4685 209.672 5.4685Z" fill="url(#paint7_radial_4706_14150)" fill-opacity="0.2"/>
<path d="M242.941 0.0930372C243.396 0.0930372 243.766 0.461948 243.766 0.917023V9.20317C243.766 9.65824 243.396 10.0272 242.941 10.0272H234.644C234.189 10.0272 233.819 9.65824 233.819 9.20317V0.917023C233.819 0.461948 234.189 0.0930372 234.644 0.0930372H242.941Z" fill="url(#paint8_radial_4706_14150)" fill-opacity="0.2"/>
<path fill-rule="evenodd" clip-rule="evenodd" d="M267.902 5.4685C267.289 5.4685 266.793 5.96411 266.793 6.57546V8.78549C266.793 9.12839 266.515 9.40637 266.172 9.40637H262.654C262.311 9.40637 262.033 9.12839 262.033 8.78549V6.57546C262.033 3.33828 264.66 0.714022 267.902 0.714022C271.143 0.714022 273.77 3.33828 273.77 6.57546V8.78549C273.77 9.12839 273.492 9.40637 273.149 9.40637H269.631C269.288 9.40637 269.01 9.12839 269.01 8.78549V6.57546C269.01 5.96411 268.514 5.4685 267.902 5.4685Z" fill="url(#paint9_radial_4706_14150)" fill-opacity="0.2"/>
<path d="M302.513 4.45128C302.735 4.83548 302.735 5.30884 302.513 5.69304L300.317 9.49221C300.095 9.87642 299.684 10.1131 299.24 10.1131L294.848 10.1131C294.404 10.1131 293.993 9.87641 293.771 9.49221L291.575 5.69304C291.353 5.30884 291.353 4.83548 291.575 4.45128L293.771 0.652105C293.993 0.267901 294.404 0.0312223 294.848 0.0312223L299.24 0.0312225C299.684 0.0312225 300.095 0.267902 300.317 0.652105L302.513 4.45128Z" fill="url(#paint10_radial_4706_14150)" fill-opacity="0.2"/>
<path d="M325.611 0.310441C325.85 -0.10348 326.448 -0.10348 326.688 0.310441L331.827 9.20179C332.067 9.61571 331.768 10.1331 331.289 10.1331H321.01C320.531 10.1331 320.232 9.61571 320.471 9.20179L325.611 0.310441Z" fill="url(#paint11_radial_4706_14150)" fill-opacity="0.2"/>
<path d="M10.9411 34.1546C10.9411 36.9407 8.67976 39.1992 5.89022 39.1992C3.10069 39.1992 0.839318 36.9407 0.839318 34.1546C0.839318 31.3685 3.10069 29.1099 5.89022 29.1099C8.67976 29.1099 10.9411 31.3685 10.9411 34.1546Z" fill="url(#paint12_radial_4706_14150)" fill-opacity="0.2"/>
<path d="M39.1377 29.172C39.5934 29.172 39.9627 29.541 39.9627 29.996V38.2822C39.9627 38.7372 39.5934 39.1062 39.1377 39.1062H30.8413C30.3857 39.1062 30.0163 38.7372 30.0163 38.2822V29.996C30.0163 29.541 30.3857 29.172 30.8413 29.172H39.1377Z" fill="url(#paint13_radial_4706_14150)" fill-opacity="0.2"/>
<path fill-rule="evenodd" clip-rule="evenodd" d="M64.0985 34.5472C63.4863 34.5472 62.9901 35.0428 62.9901 35.6542V37.8642C62.9901 38.2071 62.7118 38.4851 62.3685 38.4851H58.8514C58.5081 38.4851 58.2298 38.2071 58.2298 37.8642V35.6542C58.2298 32.417 60.8573 29.7927 64.0985 29.7927C67.3396 29.7927 69.9671 32.417 69.9671 35.6542V37.8642C69.9671 38.2071 69.6888 38.4851 69.3455 38.4851H65.8284C65.4851 38.4851 65.2068 38.2071 65.2068 37.8642V35.6542C65.2068 35.0428 64.7106 34.5472 64.0985 34.5472Z" fill="url(#paint14_radial_4706_14150)" fill-opacity="0.2"/>
<path d="M98.7095 33.53C98.9316 33.9142 98.9316 34.3875 98.7095 34.7717L96.5133 38.5709C96.2912 38.9551 95.8808 39.1918 95.4366 39.1918H91.0442C90.6001 39.1918 90.1896 38.9551 89.9675 38.5709L87.7714 34.7717C87.5493 34.3875 87.5493 33.9142 87.7714 33.53L89.9675 29.7308C90.1896 29.3466 90.6001 29.1099 91.0442 29.1099H95.4366C95.8808 29.1099 96.2912 29.3466 96.5133 29.7308L98.7095 33.53Z" fill="url(#paint15_radial_4706_14150)" fill-opacity="0.2"/>
<path d="M121.808 29.3891C122.047 28.9752 122.645 28.9752 122.884 29.3891L128.024 38.2805C128.263 38.6944 127.964 39.2118 127.486 39.2118H117.206C116.728 39.2118 116.429 38.6944 116.668 38.2805L121.808 29.3891Z" fill="url(#paint16_radial_4706_14150)" fill-opacity="0.2"/>
<path fill-rule="evenodd" clip-rule="evenodd" d="M151.442 34.5472C150.83 34.5472 150.334 35.0428 150.334 35.6542V37.8642C150.334 38.2071 150.056 38.4851 149.712 38.4851H146.195C145.852 38.4851 145.574 38.2071 145.574 37.8642V35.6542C145.574 32.417 148.201 29.7927 151.442 29.7927C154.684 29.7927 157.311 32.417 157.311 35.6542V37.8642C157.311 38.2071 157.033 38.4851 156.689 38.4851H153.172C152.829 38.4851 152.551 38.2071 152.551 37.8642V35.6542C152.551 35.0428 152.055 34.5472 151.442 34.5472Z" fill="url(#paint17_radial_4706_14150)" fill-opacity="0.2"/>
<path d="M185.63 34.1546C185.63 36.9407 183.368 39.1992 180.579 39.1992C177.789 39.1992 175.528 36.9407 175.528 34.1546C175.528 31.3685 177.789 29.1099 180.579 29.1099C183.368 29.1099 185.63 31.3685 185.63 34.1546Z" fill="url(#paint18_radial_4706_14150)" fill-opacity="0.2"/>
<path d="M213.826 29.172C214.282 29.172 214.651 29.541 214.651 29.996V38.2822C214.651 38.7372 214.282 39.1062 213.826 39.1062H205.53C205.074 39.1062 204.705 38.7372 204.705 38.2822V29.996C204.705 29.541 205.074 29.172 205.53 29.172H213.826Z" fill="url(#paint19_radial_4706_14150)" fill-opacity="0.2"/>
<path fill-rule="evenodd" clip-rule="evenodd" d="M238.787 34.5472C238.175 34.5472 237.679 35.0428 237.679 35.6542V37.8642C237.679 38.2071 237.4 38.4851 237.057 38.4851H233.54C233.196 38.4851 232.918 38.2071 232.918 37.8642V35.6542C232.918 32.417 235.546 29.7927 238.787 29.7927C242.028 29.7927 244.656 32.417 244.656 35.6542V37.8642C244.656 38.2071 244.377 38.4851 244.034 38.4851H240.517C240.174 38.4851 239.895 38.2071 239.895 37.8642V35.6542C239.895 35.0428 239.399 34.5472 238.787 34.5472Z" fill="url(#paint20_radial_4706_14150)" fill-opacity="0.2"/>
<path d="M273.398 33.53C273.62 33.9142 273.62 34.3875 273.398 34.7717L271.202 38.5709C270.98 38.9551 270.569 39.1918 270.125 39.1918H265.733C265.289 39.1918 264.878 38.9551 264.656 38.5709L262.46 34.7717C262.238 34.3875 262.238 33.9142 262.46 33.53L264.656 29.7308C264.878 29.3466 265.289 29.1099 265.733 29.1099H270.125C270.569 29.1099 270.98 29.3466 271.202 29.7308L273.398 33.53Z" fill="url(#paint21_radial_4706_14150)" fill-opacity="0.2"/>
<path d="M296.496 29.3891C296.735 28.9752 297.333 28.9752 297.573 29.3891L302.713 38.2805C302.952 38.6944 302.653 39.2118 302.174 39.2118H291.895C291.416 39.2118 291.117 38.6944 291.356 38.2805L296.496 29.3891Z" fill="url(#paint22_radial_4706_14150)" fill-opacity="0.2"/>
<path fill-rule="evenodd" clip-rule="evenodd" d="M326.131 34.5472C325.519 34.5472 325.023 35.0428 325.023 35.6542V37.8642C325.023 38.2071 324.745 38.4851 324.401 38.4851H320.884C320.541 38.4851 320.263 38.2071 320.263 37.8642V35.6542C320.263 32.417 322.89 29.7927 326.131 29.7927C329.372 29.7927 332 32.417 332 35.6542V37.8642C332 38.2071 331.722 38.4851 331.378 38.4851H327.861C327.518 38.4851 327.24 38.2071 327.24 37.8642V35.6542C327.24 35.0428 326.743 34.5472 326.131 34.5472Z" fill="url(#paint23_radial_4706_14150)" fill-opacity="0.2"/>
<path d="M11.3652 62.609C11.5873 62.9932 11.5873 63.4665 11.3652 63.8507L9.16905 67.6499C8.94695 68.0341 8.53651 68.2708 8.09232 68.2708H3.69999C3.2558 68.2708 2.84535 68.0341 2.62326 67.6499L0.427095 63.8507C0.205001 63.4665 0.205001 62.9932 0.427095 62.609L2.62326 58.8098C2.84535 58.4256 3.2558 58.1889 3.69999 58.1889H8.09232C8.53651 58.1889 8.94696 58.4256 9.16905 58.8098L11.3652 62.609Z" fill="url(#paint24_radial_4706_14150)" fill-opacity="0.2"/>
<path d="M40.0559 63.2336C40.0559 66.0197 37.7946 68.2783 35.005 68.2783C32.2155 68.2783 29.9541 66.0197 29.9541 63.2336C29.9541 60.4475 32.2155 58.1889 35.005 58.1889C37.7946 58.1889 40.0559 60.4475 40.0559 63.2336Z" fill="url(#paint25_radial_4706_14150)" fill-opacity="0.2"/>
<path d="M68.2524 58.251C68.708 58.251 69.0774 58.62 69.0774 59.075V67.3612C69.0774 67.8163 68.708 68.1852 68.2524 68.1852H59.956C59.5003 68.1852 59.131 67.8163 59.131 67.3612V59.075C59.131 58.62 59.5003 58.251 59.956 58.251H68.2524Z" fill="url(#paint26_radial_4706_14150)" fill-opacity="0.2"/>
<path d="M98.2854 63.2336C98.2854 66.0197 96.024 68.2783 93.2345 68.2783C90.4449 68.2783 88.1836 66.0197 88.1836 63.2336C88.1836 60.4475 90.4449 58.1889 93.2345 58.1889C96.024 58.1889 98.2854 60.4475 98.2854 63.2336Z" fill="url(#paint27_radial_4706_14150)" fill-opacity="0.2"/>
<path fill-rule="evenodd" clip-rule="evenodd" d="M122.328 63.6265C121.716 63.6265 121.22 64.1221 121.22 64.7335V66.9435C121.22 67.2864 120.941 67.5644 120.598 67.5644H117.081C116.738 67.5644 116.459 67.2864 116.459 66.9435V64.7335C116.459 61.4963 119.087 58.872 122.328 58.872C125.569 58.872 128.197 61.4963 128.197 64.7335V66.9435C128.197 67.2864 127.918 67.5644 127.575 67.5644H124.058C123.715 67.5644 123.436 67.2864 123.436 66.9435V64.7335C123.436 64.1221 122.94 63.6265 122.328 63.6265Z" fill="url(#paint28_radial_4706_14150)" fill-opacity="0.2"/>
<path d="M150.922 58.4685C151.161 58.0545 151.76 58.0545 151.999 58.4685L157.139 67.3598C157.378 67.7737 157.079 68.2911 156.6 68.2911H146.321C145.842 68.2911 145.543 67.7737 145.782 67.3598L150.922 58.4685Z" fill="url(#paint29_radial_4706_14150)" fill-opacity="0.2"/>
<path d="M186.054 62.609C186.276 62.9932 186.276 63.4665 186.054 63.8507L183.858 67.6499C183.636 68.0341 183.225 68.2708 182.781 68.2708H178.389C177.944 68.2708 177.534 68.0341 177.312 67.6499L175.116 63.8507C174.894 63.4665 174.894 62.9932 175.116 62.609L177.312 58.8098C177.534 58.4256 177.944 58.1889 178.389 58.1889H182.781C183.225 58.1889 183.636 58.4256 183.858 58.8098L186.054 62.609Z" fill="url(#paint30_radial_4706_14150)" fill-opacity="0.2"/>
<path d="M214.744 63.2336C214.744 66.0197 212.483 68.2783 209.693 68.2783C206.904 68.2783 204.643 66.0197 204.643 63.2336C204.643 60.4475 206.904 58.1889 209.693 58.1889C212.483 58.1889 214.744 60.4475 214.744 63.2336Z" fill="url(#paint31_radial_4706_14150)" fill-opacity="0.2"/>
<path d="M242.941 58.251C243.397 58.251 243.766 58.62 243.766 59.075V67.3612C243.766 67.8163 243.397 68.1852 242.941 68.1852H234.645C234.189 68.1852 233.82 67.8163 233.82 67.3612V59.075C233.82 58.62 234.189 58.251 234.645 58.251H242.941Z" fill="url(#paint32_radial_4706_14150)" fill-opacity="0.2"/>
<path d="M272.974 63.2336C272.974 66.0197 270.713 68.2783 267.923 68.2783C265.134 68.2783 262.872 66.0197 262.872 63.2336C262.872 60.4475 265.134 58.1889 267.923 58.1889C270.713 58.1889 272.974 60.4475 272.974 63.2336Z" fill="url(#paint33_radial_4706_14150)" fill-opacity="0.2"/>
<path fill-rule="evenodd" clip-rule="evenodd" d="M297.016 63.6265C296.404 63.6265 295.908 64.1221 295.908 64.7335V66.9435C295.908 67.2864 295.63 67.5644 295.286 67.5644H291.769C291.426 67.5644 291.148 67.2864 291.148 66.9435V64.7335C291.148 61.4963 293.775 58.872 297.016 58.872C300.258 58.872 302.885 61.4963 302.885 64.7335V66.9435C302.885 67.2864 302.607 67.5644 302.263 67.5644H298.746C298.403 67.5644 298.125 67.2864 298.125 66.9435V64.7335C298.125 64.1221 297.628 63.6265 297.016 63.6265Z" fill="url(#paint34_radial_4706_14150)" fill-opacity="0.2"/>
<path d="M325.611 58.4685C325.85 58.0545 326.448 58.0545 326.688 58.4685L331.828 67.3598C332.067 67.7737 331.768 68.2911 331.289 68.2911H321.01C320.531 68.2911 320.232 67.7737 320.471 67.3598L325.611 58.4685Z" fill="url(#paint35_radial_4706_14150)" fill-opacity="0.2"/>
<path fill-rule="evenodd" clip-rule="evenodd" d="M5.86869 92.7046C5.25657 92.7046 4.76036 93.2002 4.76036 93.8115V96.0216C4.76036 96.3645 4.48204 96.6424 4.13871 96.6424H0.62165C0.278322 96.6424 0 96.3645 0 96.0216V93.8115C0 90.5743 2.6275 87.9501 5.86869 87.9501C9.10987 87.9501 11.7374 90.5743 11.7374 93.8115V96.0216C11.7374 96.3645 11.4591 96.6424 11.1157 96.6424H7.59866C7.25534 96.6424 6.97701 96.3645 6.97701 96.0216V93.8115C6.97701 93.2002 6.4808 92.7046 5.86869 92.7046Z" fill="url(#paint36_radial_4706_14150)" fill-opacity="0.2"/>
<path d="M40.0559 92.312C40.0559 95.0981 37.7946 97.3566 35.005 97.3566C32.2155 97.3566 29.9541 95.0981 29.9541 92.312C29.9541 89.5259 32.2155 87.2673 35.005 87.2673C37.7946 87.2673 40.0559 89.5259 40.0559 92.312Z" fill="url(#paint37_radial_4706_14150)" fill-opacity="0.2"/>
<path d="M68.2524 87.3294C68.708 87.3294 69.0774 87.6983 69.0774 88.1534V96.4395C69.0774 96.8946 68.708 97.2635 68.2524 97.2635H59.956C59.5003 97.2635 59.131 96.8946 59.131 96.4395V88.1534C59.131 87.6983 59.5003 87.3294 59.956 87.3294H68.2524Z" fill="url(#paint38_radial_4706_14150)" fill-opacity="0.2"/>
<path fill-rule="evenodd" clip-rule="evenodd" d="M93.2129 92.7046C92.6008 92.7046 92.1046 93.2002 92.1046 93.8115V96.0216C92.1046 96.3645 91.8263 96.6424 91.483 96.6424H87.9659C87.6226 96.6424 87.3443 96.3645 87.3443 96.0216V93.8115C87.3443 90.5743 89.9718 87.9501 93.2129 87.9501C96.4541 87.9501 99.0816 90.5743 99.0816 93.8115V96.0216C99.0816 96.3645 98.8033 96.6424 98.46 96.6424H94.9429C94.5996 96.6424 94.3213 96.3645 94.3213 96.0216V93.8115C94.3213 93.2002 93.8251 92.7046 93.2129 92.7046Z" fill="url(#paint39_radial_4706_14150)" fill-opacity="0.2"/>
<path d="M127.824 91.6874C128.046 92.0716 128.046 92.5449 127.824 92.9291L125.628 96.7283C125.406 97.1125 124.996 97.3492 124.551 97.3492H120.159C119.715 97.3492 119.304 97.1125 119.082 96.7283L116.886 92.9291C116.664 92.5449 116.664 92.0716 116.886 91.6874L119.082 87.8882C119.304 87.504 119.715 87.2673 120.159 87.2673H124.551C124.996 87.2673 125.406 87.504 125.628 87.8882L127.824 91.6874Z" fill="url(#paint40_radial_4706_14150)" fill-opacity="0.2"/>
<path d="M156.515 92.312C156.515 95.0981 154.253 97.3566 151.464 97.3566C148.674 97.3566 146.413 95.0981 146.413 92.312C146.413 89.5259 148.674 87.2673 151.464 87.2673C154.253 87.2673 156.515 89.5259 156.515 92.312Z" fill="url(#paint41_radial_4706_14150)" fill-opacity="0.2"/>
<path d="M180.037 87.5468C180.276 87.1329 180.874 87.1329 181.114 87.5468L186.253 96.4382C186.493 96.8521 186.194 97.3695 185.715 97.3695H175.436C174.957 97.3695 174.658 96.8521 174.897 96.4382L180.037 87.5468Z" fill="url(#paint42_radial_4706_14150)" fill-opacity="0.2"/>
<path fill-rule="evenodd" clip-rule="evenodd" d="M209.672 92.7046C209.06 92.7046 208.564 93.2002 208.564 93.8115V96.0216C208.564 96.3645 208.285 96.6424 207.942 96.6424H204.425C204.082 96.6424 203.803 96.3645 203.803 96.0216V93.8115C203.803 90.5743 206.431 87.9501 209.672 87.9501C212.913 87.9501 215.541 90.5743 215.541 93.8115V96.0216C215.541 96.3645 215.262 96.6424 214.919 96.6424H211.402C211.059 96.6424 210.78 96.3645 210.78 96.0216V93.8115C210.78 93.2002 210.284 92.7046 209.672 92.7046Z" fill="url(#paint43_radial_4706_14150)" fill-opacity="0.2"/>
<path d="M242.941 87.3294C243.397 87.3294 243.766 87.6983 243.766 88.1534V96.4395C243.766 96.8946 243.397 97.2635 242.941 97.2635H234.645C234.189 97.2635 233.82 96.8946 233.82 96.4395V88.1534C233.82 87.6983 234.189 87.3294 234.645 87.3294H242.941Z" fill="url(#paint44_radial_4706_14150)" fill-opacity="0.2"/>
<path fill-rule="evenodd" clip-rule="evenodd" d="M267.902 92.7046C267.289 92.7046 266.793 93.2002 266.793 93.8115V96.0216C266.793 96.3645 266.515 96.6424 266.172 96.6424H262.654C262.311 96.6424 262.033 96.3645 262.033 96.0216V93.8115C262.033 90.5743 264.66 87.9501 267.902 87.9501C271.143 87.9501 273.77 90.5743 273.77 93.8115V96.0216C273.77 96.3645 273.492 96.6424 273.149 96.6424H269.631C269.288 96.6424 269.01 96.3645 269.01 96.0216V93.8115C269.01 93.2002 268.514 92.7046 267.902 92.7046Z" fill="url(#paint45_radial_4706_14150)" fill-opacity="0.2"/>
<path d="M302.513 91.6874C302.735 92.0716 302.735 92.5449 302.513 92.9291L300.317 96.7283C300.094 97.1125 299.684 97.3492 299.24 97.3492H294.847C294.403 97.3492 293.993 97.1125 293.771 96.7283L291.575 92.9291C291.352 92.5449 291.352 92.0716 291.575 91.6874L293.771 87.8882C293.993 87.504 294.403 87.2673 294.847 87.2673H299.24C299.684 87.2673 300.094 87.504 300.317 87.8882L302.513 91.6874Z" fill="url(#paint46_radial_4706_14150)" fill-opacity="0.2"/>
<path d="M325.611 87.5468C325.85 87.1329 326.448 87.1329 326.688 87.5468L331.828 96.4382C332.067 96.8521 331.768 97.3695 331.289 97.3695H321.01C320.531 97.3695 320.232 96.8521 320.471 96.4382L325.611 87.5468Z" fill="url(#paint47_radial_4706_14150)" fill-opacity="0.2"/>
<path d="M10.9411 121.391C10.9411 124.177 8.67976 126.436 5.89022 126.436C3.10069 126.436 0.839318 124.177 0.839318 121.391C0.839318 118.605 3.10069 116.346 5.89022 116.346C8.67976 116.346 10.9411 118.605 10.9411 121.391Z" fill="url(#paint48_radial_4706_14150)" fill-opacity="0.2"/>
<path d="M39.1377 116.408C39.5934 116.408 39.9627 116.777 39.9627 117.232V125.519C39.9627 125.974 39.5934 126.343 39.1377 126.343H30.8413C30.3857 126.343 30.0163 125.974 30.0163 125.519V117.232C30.0163 116.777 30.3857 116.408 30.8413 116.408H39.1377Z" fill="url(#paint49_radial_4706_14150)" fill-opacity="0.2"/>
<path fill-rule="evenodd" clip-rule="evenodd" d="M64.0985 121.784C63.4863 121.784 62.9901 122.279 62.9901 122.891V125.101C62.9901 125.444 62.7118 125.722 62.3685 125.722H58.8514C58.5081 125.722 58.2298 125.444 58.2298 125.101V122.891C58.2298 119.654 60.8573 117.029 64.0985 117.029C67.3396 117.029 69.9671 119.654 69.9671 122.891V125.101C69.9671 125.444 69.6888 125.722 69.3455 125.722H65.8284C65.4851 125.722 65.2068 125.444 65.2068 125.101V122.891C65.2068 122.279 64.7106 121.784 64.0985 121.784Z" fill="url(#paint50_radial_4706_14150)" fill-opacity="0.2"/>
<path d="M98.7095 120.766C98.9316 121.151 98.9316 121.624 98.7095 122.008L96.5133 125.807C96.2912 126.191 95.8808 126.428 95.4366 126.428H91.0442C90.6001 126.428 90.1896 126.191 89.9675 125.807L87.7714 122.008C87.5493 121.624 87.5493 121.151 87.7714 120.766L89.9675 116.967C90.1896 116.583 90.6001 116.346 91.0442 116.346H95.4366C95.8808 116.346 96.2912 116.583 96.5133 116.967L98.7095 120.766Z" fill="url(#paint51_radial_4706_14150)" fill-opacity="0.2"/>
<path d="M121.808 116.626C122.047 116.212 122.645 116.212 122.884 116.626L128.024 125.517C128.263 125.931 127.964 126.449 127.486 126.449H117.206C116.728 126.449 116.429 125.931 116.668 125.517L121.808 116.626Z" fill="url(#paint52_radial_4706_14150)" fill-opacity="0.2"/>
<path fill-rule="evenodd" clip-rule="evenodd" d="M151.442 121.784C150.83 121.784 150.334 122.279 150.334 122.891V125.101C150.334 125.444 150.056 125.722 149.712 125.722H146.195C145.852 125.722 145.574 125.444 145.574 125.101V122.891C145.574 119.654 148.201 117.029 151.442 117.029C154.684 117.029 157.311 119.654 157.311 122.891V125.101C157.311 125.444 157.033 125.722 156.689 125.722H153.172C152.829 125.722 152.551 125.444 152.551 125.101V122.891C152.551 122.279 152.055 121.784 151.442 121.784Z" fill="url(#paint53_radial_4706_14150)" fill-opacity="0.2"/>
<path d="M185.63 121.391C185.63 124.177 183.368 126.436 180.579 126.436C177.789 126.436 175.528 124.177 175.528 121.391C175.528 118.605 177.789 116.346 180.579 116.346C183.368 116.346 185.63 118.605 185.63 121.391Z" fill="url(#paint54_radial_4706_14150)" fill-opacity="0.2"/>
<path d="M213.826 116.408C214.282 116.408 214.651 116.777 214.651 117.232V125.519C214.651 125.974 214.282 126.343 213.826 126.343H205.53C205.074 126.343 204.705 125.974 204.705 125.519V117.232C204.705 116.777 205.074 116.408 205.53 116.408H213.826Z" fill="url(#paint55_radial_4706_14150)" fill-opacity="0.2"/>
<path fill-rule="evenodd" clip-rule="evenodd" d="M238.787 121.784C238.175 121.784 237.679 122.279 237.679 122.891V125.101C237.679 125.444 237.4 125.722 237.057 125.722H233.54C233.196 125.722 232.918 125.444 232.918 125.101V122.891C232.918 119.654 235.546 117.029 238.787 117.029C242.028 117.029 244.656 119.654 244.656 122.891V125.101C244.656 125.444 244.377 125.722 244.034 125.722H240.517C240.174 125.722 239.895 125.444 239.895 125.101V122.891C239.895 122.279 239.399 121.784 238.787 121.784Z" fill="url(#paint56_radial_4706_14150)" fill-opacity="0.2"/>
<path d="M273.398 120.766C273.62 121.151 273.62 121.624 273.398 122.008L271.202 125.807C270.98 126.191 270.569 126.428 270.125 126.428H265.733C265.289 126.428 264.878 126.191 264.656 125.807L262.46 122.008C262.238 121.624 262.238 121.151 262.46 120.766L264.656 116.967C264.878 116.583 265.289 116.346 265.733 116.346H270.125C270.569 116.346 270.98 116.583 271.202 116.967L273.398 120.766Z" fill="url(#paint57_radial_4706_14150)" fill-opacity="0.2"/>
<path d="M296.496 116.626C296.735 116.212 297.333 116.212 297.573 116.626L302.713 125.517C302.952 125.931 302.653 126.449 302.174 126.449H291.895C291.416 126.449 291.117 125.931 291.356 125.517L296.496 116.626Z" fill="url(#paint58_radial_4706_14150)" fill-opacity="0.2"/>
<path fill-rule="evenodd" clip-rule="evenodd" d="M326.131 121.784C325.519 121.784 325.023 122.279 325.023 122.891V125.101C325.023 125.444 324.745 125.722 324.401 125.722H320.884C320.541 125.722 320.263 125.444 320.263 125.101V122.891C320.263 119.654 322.89 117.029 326.131 117.029C329.372 117.029 332 119.654 332 122.891V125.101C332 125.444 331.722 125.722 331.378 125.722H327.861C327.518 125.722 327.24 125.444 327.24 125.101V122.891C327.24 122.279 326.743 121.784 326.131 121.784Z" fill="url(#paint59_radial_4706_14150)" fill-opacity="0.2"/>
<path d="M11.3652 149.845C11.5873 150.229 11.5873 150.702 11.3652 151.086L9.16905 154.886C8.94695 155.27 8.53651 155.507 8.09232 155.507H3.69999C3.2558 155.507 2.84535 155.27 2.62326 154.886L0.427095 151.086C0.205001 150.702 0.205001 150.229 0.427095 149.845L2.62326 146.046C2.84535 145.661 3.2558 145.425 3.69999 145.425H8.09232C8.53651 145.425 8.94696 145.661 9.16905 146.046L11.3652 149.845Z" fill="url(#paint60_radial_4706_14150)" fill-opacity="0.2"/>
<path d="M40.0559 150.469C40.0559 153.255 37.7946 155.514 35.005 155.514C32.2155 155.514 29.9541 153.255 29.9541 150.469C29.9541 147.683 32.2155 145.425 35.005 145.425C37.7946 145.425 40.0559 147.683 40.0559 150.469Z" fill="url(#paint61_radial_4706_14150)" fill-opacity="0.2"/>
<path d="M68.2524 145.487C68.708 145.487 69.0774 145.856 69.0774 146.311V154.597C69.0774 155.052 68.708 155.421 68.2524 155.421H59.956C59.5003 155.421 59.131 155.052 59.131 154.597V146.311C59.131 145.856 59.5003 145.487 59.956 145.487H68.2524Z" fill="url(#paint62_radial_4706_14150)" fill-opacity="0.2"/>
<path d="M98.2854 150.469C98.2854 153.255 96.024 155.514 93.2345 155.514C90.4449 155.514 88.1836 153.255 88.1836 150.469C88.1836 147.683 90.4449 145.425 93.2345 145.425C96.024 145.425 98.2854 147.683 98.2854 150.469Z" fill="url(#paint63_radial_4706_14150)" fill-opacity="0.2"/>
<path fill-rule="evenodd" clip-rule="evenodd" d="M122.328 150.862C121.716 150.862 121.22 151.358 121.22 151.969V154.179C121.22 154.522 120.941 154.8 120.598 154.8H117.081C116.738 154.8 116.459 154.522 116.459 154.179V151.969C116.459 148.732 119.087 146.107 122.328 146.107C125.569 146.107 128.197 148.732 128.197 151.969V154.179C128.197 154.522 127.918 154.8 127.575 154.8H124.058C123.715 154.8 123.436 154.522 123.436 154.179V151.969C123.436 151.358 122.94 150.862 122.328 150.862Z" fill="url(#paint64_radial_4706_14150)" fill-opacity="0.2"/>
<path d="M150.922 145.704C151.161 145.29 151.76 145.29 151.999 145.704L157.139 154.595C157.378 155.009 157.079 155.527 156.6 155.527H146.321C145.842 155.527 145.543 155.009 145.782 154.595L150.922 145.704Z" fill="url(#paint65_radial_4706_14150)" fill-opacity="0.2"/>
<path d="M186.054 149.845C186.276 150.229 186.276 150.702 186.054 151.086L183.858 154.886C183.636 155.27 183.225 155.507 182.781 155.507H178.389C177.944 155.507 177.534 155.27 177.312 154.886L175.116 151.086C174.894 150.702 174.894 150.229 175.116 149.845L177.312 146.046C177.534 145.661 177.944 145.425 178.389 145.425H182.781C183.225 145.425 183.636 145.661 183.858 146.046L186.054 149.845Z" fill="url(#paint66_radial_4706_14150)" fill-opacity="0.2"/>
<path d="M214.744 150.469C214.744 153.255 212.483 155.514 209.693 155.514C206.904 155.514 204.643 153.255 204.643 150.469C204.643 147.683 206.904 145.425 209.693 145.425C212.483 145.425 214.744 147.683 214.744 150.469Z" fill="url(#paint67_radial_4706_14150)" fill-opacity="0.2"/>
<path d="M242.941 145.487C243.397 145.487 243.766 145.856 243.766 146.311V154.597C243.766 155.052 243.397 155.421 242.941 155.421H234.645C234.189 155.421 233.82 155.052 233.82 154.597V146.311C233.82 145.856 234.189 145.487 234.645 145.487H242.941Z" fill="url(#paint68_radial_4706_14150)" fill-opacity="0.2"/>
<path d="M272.974 150.469C272.974 153.255 270.713 155.514 267.923 155.514C265.134 155.514 262.872 153.255 262.872 150.469C262.872 147.683 265.134 145.425 267.923 145.425C270.713 145.425 272.974 147.683 272.974 150.469Z" fill="url(#paint69_radial_4706_14150)" fill-opacity="0.2"/>
<path fill-rule="evenodd" clip-rule="evenodd" d="M297.016 150.862C296.404 150.862 295.908 151.358 295.908 151.969V154.179C295.908 154.522 295.63 154.8 295.286 154.8H291.769C291.426 154.8 291.148 154.522 291.148 154.179V151.969C291.148 148.732 293.775 146.107 297.016 146.107C300.258 146.107 302.885 148.732 302.885 151.969V154.179C302.885 154.522 302.607 154.8 302.263 154.8H298.746C298.403 154.8 298.125 154.522 298.125 154.179V151.969C298.125 151.358 297.628 150.862 297.016 150.862Z" fill="url(#paint70_radial_4706_14150)" fill-opacity="0.2"/>
<path d="M325.611 145.704C325.85 145.29 326.448 145.29 326.688 145.704L331.828 154.595C332.067 155.009 331.768 155.527 331.289 155.527H321.01C320.531 155.527 320.232 155.009 320.471 154.595L325.611 145.704Z" fill="url(#paint71_radial_4706_14150)" fill-opacity="0.2"/>
<path fill-rule="evenodd" clip-rule="evenodd" d="M5.86869 179.941C5.25657 179.941 4.76036 180.437 4.76036 181.048V183.258C4.76036 183.601 4.48204 183.879 4.13871 183.879H0.62165C0.278322 183.879 0 183.601 0 183.258V181.048C0 177.811 2.6275 175.186 5.86869 175.186C9.10987 175.186 11.7374 177.811 11.7374 181.048V183.258C11.7374 183.601 11.4591 183.879 11.1157 183.879H7.59866C7.25534 183.879 6.97701 183.601 6.97701 183.258V181.048C6.97701 180.437 6.4808 179.941 5.86869 179.941Z" fill="url(#paint72_radial_4706_14150)" fill-opacity="0.2"/>
<path d="M40.0559 179.548C40.0559 182.334 37.7946 184.593 35.005 184.593C32.2155 184.593 29.9541 182.334 29.9541 179.548C29.9541 176.762 32.2155 174.504 35.005 174.504C37.7946 174.504 40.0559 176.762 40.0559 179.548Z" fill="url(#paint73_radial_4706_14150)" fill-opacity="0.2"/>
<path d="M68.2524 174.566C68.708 174.566 69.0774 174.934 69.0774 175.389V183.676C69.0774 184.131 68.708 184.5 68.2524 184.5H59.956C59.5003 184.5 59.131 184.131 59.131 183.676V175.389C59.131 174.934 59.5003 174.566 59.956 174.566H68.2524Z" fill="url(#paint74_radial_4706_14150)" fill-opacity="0.2"/>
<path fill-rule="evenodd" clip-rule="evenodd" d="M93.2129 179.941C92.6008 179.941 92.1046 180.437 92.1046 181.048V183.258C92.1046 183.601 91.8263 183.879 91.483 183.879H87.9659C87.6226 183.879 87.3443 183.601 87.3443 183.258V181.048C87.3443 177.811 89.9718 175.186 93.2129 175.186C96.4541 175.186 99.0816 177.811 99.0816 181.048V183.258C99.0816 183.601 98.8033 183.879 98.46 183.879H94.9429C94.5996 183.879 94.3213 183.601 94.3213 183.258V181.048C94.3213 180.437 93.8251 179.941 93.2129 179.941Z" fill="url(#paint75_radial_4706_14150)" fill-opacity="0.2"/>
<path d="M127.824 178.924C128.046 179.308 128.046 179.781 127.824 180.166L125.628 183.965C125.406 184.349 124.996 184.586 124.551 184.586H120.159C119.715 184.586 119.304 184.349 119.082 183.965L116.886 180.166C116.664 179.781 116.664 179.308 116.886 178.924L119.082 175.125C119.304 174.74 119.715 174.504 120.159 174.504H124.551C124.996 174.504 125.406 174.74 125.628 175.125L127.824 178.924Z" fill="url(#paint76_radial_4706_14150)" fill-opacity="0.2"/>
<path d="M156.515 179.548C156.515 182.334 154.253 184.593 151.464 184.593C148.674 184.593 146.413 182.334 146.413 179.548C146.413 176.762 148.674 174.504 151.464 174.504C154.253 174.504 156.515 176.762 156.515 179.548Z" fill="url(#paint77_radial_4706_14150)" fill-opacity="0.2"/>
<path d="M180.037 174.783C180.276 174.369 180.874 174.369 181.114 174.783L186.253 183.675C186.493 184.088 186.194 184.606 185.715 184.606H175.436C174.957 184.606 174.658 184.088 174.897 183.675L180.037 174.783Z" fill="url(#paint78_radial_4706_14150)" fill-opacity="0.2"/>
<path fill-rule="evenodd" clip-rule="evenodd" d="M209.672 179.941C209.06 179.941 208.564 180.437 208.564 181.048V183.258C208.564 183.601 208.285 183.879 207.942 183.879H204.425C204.082 183.879 203.803 183.601 203.803 183.258V181.048C203.803 177.811 206.431 175.186 209.672 175.186C212.913 175.186 215.541 177.811 215.541 181.048V183.258C215.541 183.601 215.262 183.879 214.919 183.879H211.402C211.059 183.879 210.78 183.601 210.78 183.258V181.048C210.78 180.437 210.284 179.941 209.672 179.941Z" fill="url(#paint79_radial_4706_14150)" fill-opacity="0.2"/>
<path d="M242.941 174.566C243.397 174.566 243.766 174.934 243.766 175.389V183.676C243.766 184.131 243.397 184.5 242.941 184.5H234.645C234.189 184.5 233.82 184.131 233.82 183.676V175.389C233.82 174.934 234.189 174.566 234.645 174.566H242.941Z" fill="url(#paint80_radial_4706_14150)" fill-opacity="0.2"/>
<path fill-rule="evenodd" clip-rule="evenodd" d="M267.902 179.941C267.289 179.941 266.793 180.437 266.793 181.048V183.258C266.793 183.601 266.515 183.879 266.172 183.879H262.654C262.311 183.879 262.033 183.601 262.033 183.258V181.048C262.033 177.811 264.66 175.186 267.902 175.186C271.143 175.186 273.77 177.811 273.77 181.048V183.258C273.77 183.601 273.492 183.879 273.149 183.879H269.631C269.288 183.879 269.01 183.601 269.01 183.258V181.048C269.01 180.437 268.514 179.941 267.902 179.941Z" fill="url(#paint81_radial_4706_14150)" fill-opacity="0.2"/>
<path d="M302.513 178.924C302.735 179.308 302.735 179.781 302.513 180.166L300.317 183.965C300.094 184.349 299.684 184.586 299.24 184.586H294.847C294.403 184.586 293.993 184.349 293.771 183.965L291.575 180.166C291.352 179.781 291.352 179.308 291.575 178.924L293.771 175.125C293.993 174.74 294.403 174.504 294.847 174.504H299.24C299.684 174.504 300.094 174.74 300.317 175.125L302.513 178.924Z" fill="url(#paint82_radial_4706_14150)" fill-opacity="0.2"/>
<path d="M325.611 174.783C325.85 174.369 326.448 174.369 326.688 174.783L331.828 183.675C332.067 184.088 331.768 184.606 331.289 184.606H321.01C320.531 184.606 320.232 184.088 320.471 183.675L325.611 174.783Z" fill="url(#paint83_radial_4706_14150)" fill-opacity="0.2"/>
<path d="M10.9411 208.627C10.9411 211.413 8.67976 213.672 5.89022 213.672C3.10069 213.672 0.839318 211.413 0.839318 208.627C0.839318 205.841 3.10069 203.582 5.89022 203.582C8.67976 203.582 10.9411 205.841 10.9411 208.627Z" fill="url(#paint84_radial_4706_14150)" fill-opacity="0.2"/>
<path d="M39.1379 203.645C39.5935 203.645 39.9629 204.013 39.9629 204.469V212.755C39.9629 213.21 39.5935 213.579 39.1379 213.579H30.8415C30.3859 213.579 30.0165 213.21 30.0165 212.755V204.469C30.0165 204.013 30.3859 203.645 30.8415 203.645H39.1379Z" fill="url(#paint85_radial_4706_14150)" fill-opacity="0.2"/>
<path fill-rule="evenodd" clip-rule="evenodd" d="M64.0985 209.02C63.4863 209.02 62.9901 209.516 62.9901 210.127V212.337C62.9901 212.68 62.7118 212.958 62.3685 212.958H58.8514C58.5081 212.958 58.2298 212.68 58.2298 212.337V210.127C58.2298 206.89 60.8573 204.266 64.0985 204.266C67.3396 204.266 69.9671 206.89 69.9671 210.127V212.337C69.9671 212.68 69.6888 212.958 69.3455 212.958H65.8284C65.4851 212.958 65.2068 212.68 65.2068 212.337V210.127C65.2068 209.516 64.7106 209.02 64.0985 209.02Z" fill="url(#paint86_radial_4706_14150)" fill-opacity="0.2"/>
<path d="M98.7095 208.002C98.9316 208.387 98.9316 208.86 98.7095 209.244L96.5133 213.043C96.2912 213.428 95.8808 213.664 95.4366 213.664H91.0442C90.6001 213.664 90.1896 213.428 89.9675 213.043L87.7714 209.244C87.5493 208.86 87.5493 208.387 87.7714 208.002L89.9675 204.203C90.1896 203.819 90.6001 203.582 91.0442 203.582H95.4366C95.8808 203.582 96.2912 203.819 96.5133 204.203L98.7095 208.002Z" fill="url(#paint87_radial_4706_14150)" fill-opacity="0.2"/>
<path d="M121.808 203.862C122.047 203.448 122.645 203.448 122.884 203.862L128.024 212.753C128.263 213.167 127.964 213.684 127.486 213.684H117.206C116.728 213.684 116.429 213.167 116.668 212.753L121.808 203.862Z" fill="url(#paint88_radial_4706_14150)" fill-opacity="0.2"/>
<path fill-rule="evenodd" clip-rule="evenodd" d="M151.442 209.02C150.83 209.02 150.334 209.516 150.334 210.127V212.337C150.334 212.68 150.056 212.958 149.712 212.958H146.195C145.852 212.958 145.574 212.68 145.574 212.337V210.127C145.574 206.89 148.201 204.266 151.442 204.266C154.684 204.266 157.311 206.89 157.311 210.127V212.337C157.311 212.68 157.033 212.958 156.689 212.958H153.172C152.829 212.958 152.551 212.68 152.551 212.337V210.127C152.551 209.516 152.055 209.02 151.442 209.02Z" fill="url(#paint89_radial_4706_14150)" fill-opacity="0.2"/>
<path d="M185.63 208.627C185.63 211.413 183.368 213.672 180.579 213.672C177.789 213.672 175.528 211.413 175.528 208.627C175.528 205.841 177.789 203.582 180.579 203.582C183.368 203.582 185.63 205.841 185.63 208.627Z" fill="url(#paint90_radial_4706_14150)" fill-opacity="0.2"/>
<path d="M213.826 203.645C214.282 203.645 214.651 204.013 214.651 204.469V212.755C214.651 213.21 214.282 213.579 213.826 213.579H205.53C205.074 213.579 204.705 213.21 204.705 212.755V204.469C204.705 204.013 205.074 203.645 205.53 203.645H213.826Z" fill="url(#paint91_radial_4706_14150)" fill-opacity="0.2"/>
<path fill-rule="evenodd" clip-rule="evenodd" d="M238.787 209.02C238.175 209.02 237.678 209.516 237.678 210.127V212.337C237.678 212.68 237.4 212.958 237.057 212.958H233.54C233.196 212.958 232.918 212.68 232.918 212.337V210.127C232.918 206.89 235.546 204.266 238.787 204.266C242.028 204.266 244.655 206.89 244.655 210.127V212.337C244.655 212.68 244.377 212.958 244.034 212.958H240.517C240.173 212.958 239.895 212.68 239.895 212.337V210.127C239.895 209.516 239.399 209.02 238.787 209.02Z" fill="url(#paint92_radial_4706_14150)" fill-opacity="0.2"/>
<path d="M273.398 208.002C273.62 208.387 273.62 208.86 273.398 209.244L271.202 213.043C270.98 213.428 270.569 213.664 270.125 213.664H265.733C265.289 213.664 264.878 213.428 264.656 213.043L262.46 209.244C262.238 208.86 262.238 208.387 262.46 208.002L264.656 204.203C264.878 203.819 265.289 203.582 265.733 203.582H270.125C270.569 203.582 270.98 203.819 271.202 204.203L273.398 208.002Z" fill="url(#paint93_radial_4706_14150)" fill-opacity="0.2"/>
<path d="M296.496 203.862C296.735 203.448 297.334 203.448 297.573 203.862L302.713 212.753C302.952 213.167 302.653 213.684 302.174 213.684H291.895C291.416 213.684 291.117 213.167 291.356 212.753L296.496 203.862Z" fill="url(#paint94_radial_4706_14150)" fill-opacity="0.2"/>
<path fill-rule="evenodd" clip-rule="evenodd" d="M326.131 209.02C325.519 209.02 325.023 209.516 325.023 210.127V212.337C325.023 212.68 324.745 212.958 324.401 212.958H320.884C320.541 212.958 320.263 212.68 320.263 212.337V210.127C320.263 206.89 322.89 204.266 326.131 204.266C329.372 204.266 332 206.89 332 210.127V212.337C332 212.68 331.722 212.958 331.378 212.958H327.861C327.518 212.958 327.24 212.68 327.24 212.337V210.127C327.24 209.516 326.743 209.02 326.131 209.02Z" fill="url(#paint95_radial_4706_14150)" fill-opacity="0.2"/>
<path d="M11.3652 237.081C11.5873 237.465 11.5873 237.939 11.3652 238.323L9.16905 242.122C8.94695 242.506 8.53651 242.743 8.09232 242.743H3.69999C3.2558 242.743 2.84535 242.506 2.62326 242.122L0.427095 238.323C0.205001 237.939 0.205001 237.465 0.427095 237.081L2.62326 233.282C2.84535 232.898 3.2558 232.661 3.69999 232.661H8.09232C8.53651 232.661 8.94696 232.898 9.16905 233.282L11.3652 237.081Z" fill="url(#paint96_radial_4706_14150)" fill-opacity="0.2"/>
<path d="M40.0559 237.706C40.0559 240.492 37.7946 242.75 35.005 242.75C32.2155 242.75 29.9541 240.492 29.9541 237.706C29.9541 234.92 32.2155 232.661 35.005 232.661C37.7946 232.661 40.0559 234.92 40.0559 237.706Z" fill="url(#paint97_radial_4706_14150)" fill-opacity="0.2"/>
<path d="M68.2524 232.723C68.708 232.723 69.0774 233.092 69.0774 233.547V241.833C69.0774 242.288 68.708 242.657 68.2524 242.657H59.956C59.5003 242.657 59.131 242.288 59.131 241.833V233.547C59.131 233.092 59.5003 232.723 59.956 232.723H68.2524Z" fill="url(#paint98_radial_4706_14150)" fill-opacity="0.2"/>
<path d="M98.2854 237.706C98.2854 240.492 96.024 242.75 93.2345 242.75C90.4449 242.75 88.1836 240.492 88.1836 237.706C88.1836 234.92 90.4449 232.661 93.2345 232.661C96.024 232.661 98.2854 234.92 98.2854 237.706Z" fill="url(#paint99_radial_4706_14150)" fill-opacity="0.2"/>
<path fill-rule="evenodd" clip-rule="evenodd" d="M122.328 238.099C121.716 238.099 121.22 238.594 121.22 239.206V241.416C121.22 241.759 120.941 242.037 120.598 242.037H117.081C116.738 242.037 116.459 241.759 116.459 241.416V239.206C116.459 235.968 119.087 233.344 122.328 233.344C125.569 233.344 128.197 235.968 128.197 239.206V241.416C128.197 241.759 127.918 242.037 127.575 242.037H124.058C123.715 242.037 123.436 241.759 123.436 241.416V239.206C123.436 238.594 122.94 238.099 122.328 238.099Z" fill="url(#paint100_radial_4706_14150)" fill-opacity="0.2"/>
<path d="M150.922 232.941C151.161 232.527 151.76 232.527 151.999 232.941L157.139 241.832C157.378 242.246 157.079 242.763 156.6 242.763H146.321C145.842 242.763 145.543 242.246 145.782 241.832L150.922 232.941Z" fill="url(#paint101_radial_4706_14150)" fill-opacity="0.2"/>
<path d="M186.054 237.081C186.276 237.465 186.276 237.939 186.054 238.323L183.858 242.122C183.636 242.506 183.225 242.743 182.781 242.743H178.389C177.944 242.743 177.534 242.506 177.312 242.122L175.116 238.323C174.894 237.939 174.894 237.465 175.116 237.081L177.312 233.282C177.534 232.898 177.944 232.661 178.389 232.661H182.781C183.225 232.661 183.636 232.898 183.858 233.282L186.054 237.081Z" fill="url(#paint102_radial_4706_14150)" fill-opacity="0.2"/>
<path d="M214.744 237.706C214.744 240.492 212.483 242.75 209.693 242.75C206.904 242.75 204.643 240.492 204.643 237.706C204.643 234.92 206.904 232.661 209.693 232.661C212.483 232.661 214.744 234.92 214.744 237.706Z" fill="url(#paint103_radial_4706_14150)" fill-opacity="0.2"/>
<path d="M242.941 232.723C243.397 232.723 243.766 233.092 243.766 233.547V241.833C243.766 242.288 243.397 242.657 242.941 242.657H234.645C234.189 242.657 233.82 242.288 233.82 241.833V233.547C233.82 233.092 234.189 232.723 234.645 232.723H242.941Z" fill="url(#paint104_radial_4706_14150)" fill-opacity="0.2"/>
<path d="M272.974 237.706C272.974 240.492 270.713 242.75 267.923 242.75C265.134 242.75 262.872 240.492 262.872 237.706C262.872 234.92 265.134 232.661 267.923 232.661C270.713 232.661 272.974 234.92 272.974 237.706Z" fill="url(#paint105_radial_4706_14150)" fill-opacity="0.2"/>
<path fill-rule="evenodd" clip-rule="evenodd" d="M297.016 238.099C296.404 238.099 295.908 238.594 295.908 239.206V241.416C295.908 241.759 295.63 242.037 295.286 242.037H291.769C291.426 242.037 291.148 241.759 291.148 241.416V239.206C291.148 235.968 293.775 233.344 297.016 233.344C300.258 233.344 302.885 235.968 302.885 239.206V241.416C302.885 241.759 302.607 242.037 302.263 242.037H298.746C298.403 242.037 298.125 241.759 298.125 241.416V239.206C298.125 238.594 297.628 238.099 297.016 238.099Z" fill="url(#paint106_radial_4706_14150)" fill-opacity="0.2"/>
<path d="M325.611 232.941C325.85 232.527 326.448 232.527 326.688 232.941L331.828 241.832C332.067 242.246 331.768 242.763 331.289 242.763H321.01C320.531 242.763 320.232 242.246 320.471 241.832L325.611 232.941Z" fill="url(#paint107_radial_4706_14150)" fill-opacity="0.2"/>
<path fill-rule="evenodd" clip-rule="evenodd" d="M5.86869 267.178C5.25657 267.178 4.76036 267.674 4.76036 268.285V270.495C4.76036 270.838 4.48204 271.116 4.13871 271.116H0.62165C0.278322 271.116 0 270.838 0 270.495V268.285C0 265.048 2.6275 262.424 5.86869 262.424C9.10987 262.424 11.7374 265.048 11.7374 268.285V270.495C11.7374 270.838 11.4591 271.116 11.1157 271.116H7.59866C7.25534 271.116 6.97701 270.838 6.97701 270.495V268.285C6.97701 267.674 6.4808 267.178 5.86869 267.178Z" fill="url(#paint108_radial_4706_14150)" fill-opacity="0.2"/>
<path d="M40.0561 266.785C40.0561 269.572 37.7947 271.83 35.0052 271.83C32.2156 271.83 29.9543 269.572 29.9543 266.785C29.9543 263.999 32.2156 261.741 35.0052 261.741C37.7947 261.741 40.0561 263.999 40.0561 266.785Z" fill="url(#paint109_radial_4706_14150)" fill-opacity="0.2"/>
<path d="M68.2524 261.803C68.708 261.803 69.0774 262.171 69.0774 262.627V270.913C69.0774 271.368 68.708 271.737 68.2524 271.737H59.956C59.5003 271.737 59.131 271.368 59.131 270.913V262.627C59.131 262.171 59.5003 261.803 59.956 261.803H68.2524Z" fill="url(#paint110_radial_4706_14150)" fill-opacity="0.2"/>
<path fill-rule="evenodd" clip-rule="evenodd" d="M93.2129 267.178C92.6008 267.178 92.1046 267.674 92.1046 268.285V270.495C92.1046 270.838 91.8263 271.116 91.483 271.116H87.9659C87.6226 271.116 87.3443 270.838 87.3443 270.495V268.285C87.3443 265.048 89.9718 262.424 93.2129 262.424C96.4541 262.424 99.0816 265.048 99.0816 268.285V270.495C99.0816 270.838 98.8033 271.116 98.46 271.116H94.9429C94.5996 271.116 94.3213 270.838 94.3213 270.495V268.285C94.3213 267.674 93.8251 267.178 93.2129 267.178Z" fill="url(#paint111_radial_4706_14150)" fill-opacity="0.2"/>
<path d="M127.824 266.161C128.046 266.545 128.046 267.018 127.824 267.403L125.628 271.202C125.406 271.586 124.996 271.823 124.551 271.823H120.159C119.715 271.823 119.304 271.586 119.082 271.202L116.886 267.403C116.664 267.018 116.664 266.545 116.886 266.161L119.082 262.362C119.304 261.977 119.715 261.741 120.159 261.741H124.551C124.996 261.741 125.406 261.977 125.628 262.362L127.824 266.161Z" fill="url(#paint112_radial_4706_14150)" fill-opacity="0.2"/>
<path d="M156.515 266.785C156.515 269.572 154.253 271.83 151.464 271.83C148.674 271.83 146.413 269.572 146.413 266.785C146.413 263.999 148.674 261.741 151.464 261.741C154.253 261.741 156.515 263.999 156.515 266.785Z" fill="url(#paint113_radial_4706_14150)" fill-opacity="0.2"/>
<path d="M180.037 262.02C180.276 261.606 180.874 261.606 181.114 262.02L186.253 270.911C186.493 271.325 186.194 271.843 185.715 271.843H175.436C174.957 271.843 174.658 271.325 174.897 270.911L180.037 262.02Z" fill="url(#paint114_radial_4706_14150)" fill-opacity="0.2"/>
<path fill-rule="evenodd" clip-rule="evenodd" d="M209.672 267.178C209.06 267.178 208.564 267.674 208.564 268.285V270.495C208.564 270.838 208.285 271.116 207.942 271.116H204.425C204.082 271.116 203.803 270.838 203.803 270.495V268.285C203.803 265.048 206.431 262.424 209.672 262.424C212.913 262.424 215.541 265.048 215.541 268.285V270.495C215.541 270.838 215.262 271.116 214.919 271.116H211.402C211.059 271.116 210.78 270.838 210.78 270.495V268.285C210.78 267.674 210.284 267.178 209.672 267.178Z" fill="url(#paint115_radial_4706_14150)" fill-opacity="0.2"/>
<path d="M242.941 261.803C243.396 261.803 243.766 262.171 243.766 262.627V270.913C243.766 271.368 243.396 271.737 242.941 271.737H234.644C234.189 271.737 233.819 271.368 233.819 270.913V262.627C233.819 262.171 234.189 261.803 234.644 261.803H242.941Z" fill="url(#paint116_radial_4706_14150)" fill-opacity="0.2"/>
<path fill-rule="evenodd" clip-rule="evenodd" d="M267.902 267.178C267.289 267.178 266.793 267.674 266.793 268.285V270.495C266.793 270.838 266.515 271.116 266.172 271.116H262.654C262.311 271.116 262.033 270.838 262.033 270.495V268.285C262.033 265.048 264.66 262.424 267.902 262.424C271.143 262.424 273.77 265.048 273.77 268.285V270.495C273.77 270.838 273.492 271.116 273.149 271.116H269.631C269.288 271.116 269.01 270.838 269.01 270.495V268.285C269.01 267.674 268.514 267.178 267.902 267.178Z" fill="url(#paint117_radial_4706_14150)" fill-opacity="0.2"/>
<path d="M302.513 266.161C302.735 266.545 302.735 267.018 302.513 267.403L300.317 271.202C300.095 271.586 299.684 271.823 299.24 271.823H294.848C294.404 271.823 293.993 271.586 293.771 271.202L291.575 267.403C291.353 267.018 291.353 266.545 291.575 266.161L293.771 262.362C293.993 261.977 294.404 261.741 294.848 261.741H299.24C299.684 261.741 300.095 261.977 300.317 262.362L302.513 266.161Z" fill="url(#paint118_radial_4706_14150)" fill-opacity="0.2"/>
<path d="M325.611 262.02C325.85 261.606 326.448 261.606 326.688 262.02L331.827 270.911C332.067 271.325 331.768 271.843 331.289 271.843H321.01C320.531 271.843 320.232 271.325 320.471 270.911L325.611 262.02Z" fill="url(#paint119_radial_4706_14150)" fill-opacity="0.2"/>
<path d="M10.9411 295.864C10.9411 298.65 8.67976 300.909 5.89022 300.909C3.10069 300.909 0.839318 298.65 0.839318 295.864C0.839318 293.078 3.10069 290.819 5.89022 290.819C8.67976 290.819 10.9411 293.078 10.9411 295.864Z" fill="url(#paint120_radial_4706_14150)" fill-opacity="0.2"/>
<path d="M39.1377 290.882C39.5934 290.882 39.9627 291.251 39.9627 291.706V299.992C39.9627 300.447 39.5934 300.816 39.1377 300.816H30.8413C30.3857 300.816 30.0163 300.447 30.0163 299.992V291.706C30.0163 291.251 30.3857 290.882 30.8413 290.882H39.1377Z" fill="url(#paint121_radial_4706_14150)" fill-opacity="0.2"/>
<path fill-rule="evenodd" clip-rule="evenodd" d="M64.0985 296.257C63.4863 296.257 62.9901 296.752 62.9901 297.364V299.574C62.9901 299.917 62.7118 300.195 62.3685 300.195H58.8514C58.5081 300.195 58.2298 299.917 58.2298 299.574V297.364C58.2298 294.127 60.8573 291.502 64.0985 291.502C67.3396 291.502 69.9671 294.127 69.9671 297.364V299.574C69.9671 299.917 69.6888 300.195 69.3455 300.195H65.8284C65.4851 300.195 65.2068 299.917 65.2068 299.574V297.364C65.2068 296.752 64.7106 296.257 64.0985 296.257Z" fill="url(#paint122_radial_4706_14150)" fill-opacity="0.2"/>
<path d="M98.7095 295.24C98.9316 295.624 98.9316 296.097 98.7095 296.481L96.5133 300.28C96.2912 300.665 95.8808 300.901 95.4366 300.901H91.0442C90.6001 300.901 90.1896 300.665 89.9675 300.28L87.7714 296.481C87.5493 296.097 87.5493 295.624 87.7714 295.24L89.9675 291.44C90.1896 291.056 90.6001 290.819 91.0442 290.819H95.4366C95.8808 290.819 96.2912 291.056 96.5133 291.44L98.7095 295.24Z" fill="url(#paint123_radial_4706_14150)" fill-opacity="0.2"/>
<path d="M121.808 291.099C122.047 290.685 122.645 290.685 122.884 291.099L128.024 299.99C128.263 300.404 127.964 300.921 127.486 300.921H117.206C116.728 300.921 116.429 300.404 116.668 299.99L121.808 291.099Z" fill="url(#paint124_radial_4706_14150)" fill-opacity="0.2"/>
<path fill-rule="evenodd" clip-rule="evenodd" d="M151.442 296.257C150.83 296.257 150.334 296.752 150.334 297.364V299.574C150.334 299.917 150.056 300.195 149.712 300.195H146.195C145.852 300.195 145.574 299.917 145.574 299.574V297.364C145.574 294.127 148.201 291.502 151.442 291.502C154.684 291.502 157.311 294.127 157.311 297.364V299.574C157.311 299.917 157.033 300.195 156.689 300.195H153.172C152.829 300.195 152.551 299.917 152.551 299.574V297.364C152.551 296.752 152.055 296.257 151.442 296.257Z" fill="url(#paint125_radial_4706_14150)" fill-opacity="0.2"/>
<path d="M185.63 295.864C185.63 298.65 183.368 300.909 180.579 300.909C177.789 300.909 175.528 298.65 175.528 295.864C175.528 293.078 177.789 290.819 180.579 290.819C183.368 290.819 185.63 293.078 185.63 295.864Z" fill="url(#paint126_radial_4706_14150)" fill-opacity="0.2"/>
<path d="M213.826 290.882C214.282 290.882 214.651 291.251 214.651 291.706V299.992C214.651 300.447 214.282 300.816 213.826 300.816H205.53C205.074 300.816 204.705 300.447 204.705 299.992V291.706C204.705 291.251 205.074 290.882 205.53 290.882H213.826Z" fill="url(#paint127_radial_4706_14150)" fill-opacity="0.2"/>
<path fill-rule="evenodd" clip-rule="evenodd" d="M238.787 296.257C238.175 296.257 237.679 296.752 237.679 297.364V299.574C237.679 299.917 237.4 300.195 237.057 300.195H233.54C233.196 300.195 232.918 299.917 232.918 299.574V297.364C232.918 294.127 235.546 291.502 238.787 291.502C242.028 291.502 244.656 294.127 244.656 297.364V299.574C244.656 299.917 244.377 300.195 244.034 300.195H240.517C240.174 300.195 239.895 299.917 239.895 299.574V297.364C239.895 296.752 239.399 296.257 238.787 296.257Z" fill="url(#paint128_radial_4706_14150)" fill-opacity="0.2"/>
<path d="M273.398 295.24C273.62 295.624 273.62 296.097 273.398 296.481L271.202 300.28C270.98 300.665 270.569 300.901 270.125 300.901H265.733C265.289 300.901 264.878 300.665 264.656 300.28L262.46 296.481C262.238 296.097 262.238 295.624 262.46 295.24L264.656 291.44C264.878 291.056 265.289 290.819 265.733 290.819H270.125C270.569 290.819 270.98 291.056 271.202 291.44L273.398 295.24Z" fill="url(#paint129_radial_4706_14150)" fill-opacity="0.2"/>
<path d="M296.496 291.099C296.735 290.685 297.333 290.685 297.573 291.099L302.713 299.99C302.952 300.404 302.653 300.921 302.174 300.921H291.895C291.416 300.921 291.117 300.404 291.356 299.99L296.496 291.099Z" fill="url(#paint130_radial_4706_14150)" fill-opacity="0.2"/>
<path fill-rule="evenodd" clip-rule="evenodd" d="M326.131 296.257C325.519 296.257 325.023 296.752 325.023 297.364V299.574C325.023 299.917 324.745 300.195 324.401 300.195H320.884C320.541 300.195 320.263 299.917 320.263 299.574V297.364C320.263 294.127 322.89 291.502 326.131 291.502C329.372 291.502 332 294.127 332 297.364V299.574C332 299.917 331.722 300.195 331.378 300.195H327.861C327.518 300.195 327.24 299.917 327.24 299.574V297.364C327.24 296.752 326.743 296.257 326.131 296.257Z" fill="url(#paint131_radial_4706_14150)" fill-opacity="0.2"/>
<path d="M11.3652 324.318C11.5873 324.702 11.5873 325.175 11.3652 325.56L9.16905 329.359C8.94695 329.743 8.53651 329.98 8.09232 329.98H3.69999C3.2558 329.98 2.84535 329.743 2.62326 329.359L0.427095 325.56C0.205001 325.175 0.205001 324.702 0.427095 324.318L2.62326 320.519C2.84535 320.134 3.2558 319.898 3.69999 319.898H8.09232C8.53651 319.898 8.94696 320.134 9.16905 320.519L11.3652 324.318Z" fill="url(#paint132_radial_4706_14150)" fill-opacity="0.2"/>
<path d="M40.0559 324.942C40.0559 327.729 37.7946 329.987 35.005 329.987C32.2155 329.987 29.9541 327.729 29.9541 324.942C29.9541 322.156 32.2155 319.898 35.005 319.898C37.7946 319.898 40.0559 322.156 40.0559 324.942Z" fill="url(#paint133_radial_4706_14150)" fill-opacity="0.2"/>
<path d="M68.2524 319.96C68.708 319.96 69.0774 320.329 69.0774 320.784V329.07C69.0774 329.525 68.708 329.894 68.2524 329.894H59.956C59.5003 329.894 59.131 329.525 59.131 329.07V320.784C59.131 320.329 59.5003 319.96 59.956 319.96H68.2524Z" fill="url(#paint134_radial_4706_14150)" fill-opacity="0.2"/>
<path d="M98.2854 324.942C98.2854 327.729 96.024 329.987 93.2345 329.987C90.4449 329.987 88.1836 327.729 88.1836 324.942C88.1836 322.156 90.4449 319.898 93.2345 319.898C96.024 319.898 98.2854 322.156 98.2854 324.942Z" fill="url(#paint135_radial_4706_14150)" fill-opacity="0.2"/>
<path fill-rule="evenodd" clip-rule="evenodd" d="M122.328 325.335C121.716 325.335 121.22 325.831 121.22 326.442V328.652C121.22 328.995 120.941 329.273 120.598 329.273H117.081C116.738 329.273 116.459 328.995 116.459 328.652V326.442C116.459 323.205 119.087 320.581 122.328 320.581C125.569 320.581 128.197 323.205 128.197 326.442V328.652C128.197 328.995 127.918 329.273 127.575 329.273H124.058C123.715 329.273 123.436 328.995 123.436 328.652V326.442C123.436 325.831 122.94 325.335 122.328 325.335Z" fill="url(#paint136_radial_4706_14150)" fill-opacity="0.2"/>
<path d="M150.922 320.177C151.161 319.763 151.76 319.763 151.999 320.177L157.139 329.069C157.378 329.483 157.079 330 156.6 330H146.321C145.842 330 145.543 329.483 145.782 329.069L150.922 320.177Z" fill="url(#paint137_radial_4706_14150)" fill-opacity="0.2"/>
<path d="M186.054 324.318C186.276 324.702 186.276 325.175 186.054 325.56L183.858 329.359C183.636 329.743 183.225 329.98 182.781 329.98H178.389C177.944 329.98 177.534 329.743 177.312 329.359L175.116 325.56C174.894 325.175 174.894 324.702 175.116 324.318L177.312 320.519C177.534 320.134 177.944 319.898 178.389 319.898H182.781C183.225 319.898 183.636 320.134 183.858 320.519L186.054 324.318Z" fill="url(#paint138_radial_4706_14150)" fill-opacity="0.2"/>
<path d="M214.744 324.942C214.744 327.729 212.483 329.987 209.693 329.987C206.904 329.987 204.643 327.729 204.643 324.942C204.643 322.156 206.904 319.898 209.693 319.898C212.483 319.898 214.744 322.156 214.744 324.942Z" fill="url(#paint139_radial_4706_14150)" fill-opacity="0.2"/>
<path d="M242.941 319.96C243.397 319.96 243.766 320.329 243.766 320.784V329.07C243.766 329.525 243.397 329.894 242.941 329.894H234.645C234.189 329.894 233.82 329.525 233.82 329.07V320.784C233.82 320.329 234.189 319.96 234.645 319.96H242.941Z" fill="url(#paint140_radial_4706_14150)" fill-opacity="0.2"/>
<path d="M272.974 324.942C272.974 327.729 270.713 329.987 267.923 329.987C265.134 329.987 262.872 327.729 262.872 324.942C262.872 322.156 265.134 319.898 267.923 319.898C270.713 319.898 272.974 322.156 272.974 324.942Z" fill="url(#paint141_radial_4706_14150)" fill-opacity="0.2"/>
<path fill-rule="evenodd" clip-rule="evenodd" d="M297.016 325.335C296.404 325.335 295.908 325.831 295.908 326.442V328.652C295.908 328.995 295.63 329.273 295.286 329.273H291.769C291.426 329.273 291.148 328.995 291.148 328.652V326.442C291.148 323.205 293.775 320.581 297.016 320.581C300.258 320.581 302.885 323.205 302.885 326.442V328.652C302.885 328.995 302.607 329.273 302.263 329.273H298.746C298.403 329.273 298.125 328.995 298.125 328.652V326.442C298.125 325.831 297.628 325.335 297.016 325.335Z" fill="url(#paint142_radial_4706_14150)" fill-opacity="0.2"/>
<path d="M325.611 320.177C325.85 319.763 326.448 319.763 326.688 320.177L331.828 329.069C332.067 329.483 331.768 330 331.289 330H321.01C320.531 330 320.232 329.483 320.471 329.069L325.611 320.177Z" fill="url(#paint143_radial_4706_14150)" fill-opacity="0.2"/>
</g>
<defs>
<radialGradient id="paint0_radial_4706_14150" cx="0" cy="0" r="1" gradientTransform="matrix(-130.301 134.5 -132.096 -128.363 165.747 165)" gradientUnits="userSpaceOnUse">
<stop stop-color="#BDCBDB"/>
<stop offset="1" stop-color="#BDCBDB" stop-opacity="0"/>
</radialGradient>
<radialGradient id="paint1_radial_4706_14150" cx="0" cy="0" r="1" gradientTransform="matrix(-130.301 134.5 -132.096 -128.363 165.747 165)" gradientUnits="userSpaceOnUse">
<stop stop-color="#BDCBDB"/>
<stop offset="1" stop-color="#BDCBDB" stop-opacity="0"/>
</radialGradient>
<radialGradient id="paint2_radial_4706_14150" cx="0" cy="0" r="1" gradientTransform="matrix(-130.301 134.5 -132.096 -128.363 165.747 165)" gradientUnits="userSpaceOnUse">
<stop stop-color="#BDCBDB"/>
<stop offset="1" stop-color="#BDCBDB" stop-opacity="0"/>
</radialGradient>
<radialGradient id="paint3_radial_4706_14150" cx="0" cy="0" r="1" gradientTransform="matrix(-130.301 134.5 -132.096 -128.363 165.747 165)" gradientUnits="userSpaceOnUse">
<stop stop-color="#BDCBDB"/>
<stop offset="1" stop-color="#BDCBDB" stop-opacity="0"/>
</radialGradient>
<radialGradient id="paint4_radial_4706_14150" cx="0" cy="0" r="1" gradientTransform="matrix(-130.301 134.5 -132.096 -128.363 165.747 165)" gradientUnits="userSpaceOnUse">
<stop stop-color="#BDCBDB"/>
<stop offset="1" stop-color="#BDCBDB" stop-opacity="0"/>
</radialGradient>
<radialGradient id="paint5_radial_4706_14150" cx="0" cy="0" r="1" gradientTransform="matrix(-130.301 134.5 -132.096 -128.363 165.747 165)" gradientUnits="userSpaceOnUse">
<stop stop-color="#BDCBDB"/>
<stop offset="1" stop-color="#BDCBDB" stop-opacity="0"/>
</radialGradient>
<radialGradient id="paint6_radial_4706_14150" cx="0" cy="0" r="1" gradientTransform="matrix(-130.301 134.5 -132.096 -128.363 165.747 165)" gradientUnits="userSpaceOnUse">
<stop stop-color="#BDCBDB"/>
<stop offset="1" stop-color="#BDCBDB" stop-opacity="0"/>
</radialGradient>
<radialGradient id="paint7_radial_4706_14150" cx="0" cy="0" r="1" gradientTransform="matrix(-130.301 134.5 -132.096 -128.363 165.747 165)" gradientUnits="userSpaceOnUse">
<stop stop-color="#BDCBDB"/>
<stop offset="1" stop-color="#BDCBDB" stop-opacity="0"/>
</radialGradient>
<radialGradient id="paint8_radial_4706_14150" cx="0" cy="0" r="1" gradientTransform="matrix(-130.301 134.5 -132.096 -128.363 165.747 165)" gradientUnits="userSpaceOnUse">
<stop stop-color="#BDCBDB"/>
<stop offset="1" stop-color="#BDCBDB" stop-opacity="0"/>
</radialGradient>
<radialGradient id="paint9_radial_4706_14150" cx="0" cy="0" r="1" gradientTransform="matrix(-130.301 134.5 -132.096 -128.363 165.747 165)" gradientUnits="userSpaceOnUse">
<stop stop-color="#BDCBDB"/>
<stop offset="1" stop-color="#BDCBDB" stop-opacity="0"/>
</radialGradient>
<radialGradient id="paint10_radial_4706_14150" cx="0" cy="0" r="1" gradientTransform="matrix(-130.301 134.5 -132.096 -128.363 165.747 165)" gradientUnits="userSpaceOnUse">
<stop stop-color="#BDCBDB"/>
<stop offset="1" stop-color="#BDCBDB" stop-opacity="0"/>
</radialGradient>
<radialGradient id="paint11_radial_4706_14150" cx="0" cy="0" r="1" gradientTransform="matrix(-130.301 134.5 -132.096 -128.363 165.747 165)" gradientUnits="userSpaceOnUse">
<stop stop-color="#BDCBDB"/>
<stop offset="1" stop-color="#BDCBDB" stop-opacity="0"/>
</radialGradient>
<radialGradient id="paint12_radial_4706_14150" cx="0" cy="0" r="1" gradientTransform="matrix(-130.301 134.5 -132.096 -128.363 165.747 165)" gradientUnits="userSpaceOnUse">
<stop stop-color="#BDCBDB"/>
<stop offset="1" stop-color="#BDCBDB" stop-opacity="0"/>
</radialGradient>
<radialGradient id="paint13_radial_4706_14150" cx="0" cy="0" r="1" gradientTransform="matrix(-130.301 134.5 -132.096 -128.363 165.747 165)" gradientUnits="userSpaceOnUse">
<stop stop-color="#BDCBDB"/>
<stop offset="1" stop-color="#BDCBDB" stop-opacity="0"/>
</radialGradient>
<radialGradient id="paint14_radial_4706_14150" cx="0" cy="0" r="1" gradientTransform="matrix(-130.301 134.5 -132.096 -128.363 165.747 165)" gradientUnits="userSpaceOnUse">
<stop stop-color="#BDCBDB"/>
<stop offset="1" stop-color="#BDCBDB" stop-opacity="0"/>
</radialGradient>
<radialGradient id="paint15_radial_4706_14150" cx="0" cy="0" r="1" gradientTransform="matrix(-130.301 134.5 -132.096 -128.363 165.747 165)" gradientUnits="userSpaceOnUse">
<stop stop-color="#BDCBDB"/>
<stop offset="1" stop-color="#BDCBDB" stop-opacity="0"/>
</radialGradient>
<radialGradient id="paint16_radial_4706_14150" cx="0" cy="0" r="1" gradientTransform="matrix(-130.301 134.5 -132.096 -128.363 165.747 165)" gradientUnits="userSpaceOnUse">
<stop stop-color="#BDCBDB"/>
<stop offset="1" stop-color="#BDCBDB" stop-opacity="0"/>
</radialGradient>
<radialGradient id="paint17_radial_4706_14150" cx="0" cy="0" r="1" gradientTransform="matrix(-130.301 134.5 -132.096 -128.363 165.747 165)" gradientUnits="userSpaceOnUse">
<stop stop-color="#BDCBDB"/>
<stop offset="1" stop-color="#BDCBDB" stop-opacity="0"/>
</radialGradient>
<radialGradient id="paint18_radial_4706_14150" cx="0" cy="0" r="1" gradientTransform="matrix(-130.301 134.5 -132.096 -128.363 165.747 165)" gradientUnits="userSpaceOnUse">
<stop stop-color="#BDCBDB"/>
<stop offset="1" stop-color="#BDCBDB" stop-opacity="0"/>
</radialGradient>
<radialGradient id="paint19_radial_4706_14150" cx="0" cy="0" r="1" gradientTransform="matrix(-130.301 134.5 -132.096 -128.363 165.747 165)" gradientUnits="userSpaceOnUse">
<stop stop-color="#BDCBDB"/>
<stop offset="1" stop-color="#BDCBDB" stop-opacity="0"/>
</radialGradient>
<radialGradient id="paint20_radial_4706_14150" cx="0" cy="0" r="1" gradientTransform="matrix(-130.301 134.5 -132.096 -128.363 165.747 165)" gradientUnits="userSpaceOnUse">
<stop stop-color="#BDCBDB"/>
<stop offset="1" stop-color="#BDCBDB" stop-opacity="0"/>
</radialGradient>
<radialGradient id="paint21_radial_4706_14150" cx="0" cy="0" r="1" gradientTransform="matrix(-130.301 134.5 -132.096 -128.363 165.747 165)" gradientUnits="userSpaceOnUse">
<stop stop-color="#BDCBDB"/>
<stop offset="1" stop-color="#BDCBDB" stop-opacity="0"/>
</radialGradient>
<radialGradient id="paint22_radial_4706_14150" cx="0" cy="0" r="1" gradientTransform="matrix(-130.301 134.5 -132.096 -128.363 165.747 165)" gradientUnits="userSpaceOnUse">
<stop stop-color="#BDCBDB"/>
<stop offset="1" stop-color="#BDCBDB" stop-opacity="0"/>
</radialGradient>
<radialGradient id="paint23_radial_4706_14150" cx="0" cy="0" r="1" gradientTransform="matrix(-130.301 134.5 -132.096 -128.363 165.747 165)" gradientUnits="userSpaceOnUse">
<stop stop-color="#BDCBDB"/>
<stop offset="1" stop-color="#BDCBDB" stop-opacity="0"/>
</radialGradient>
<radialGradient id="paint24_radial_4706_14150" cx="0" cy="0" r="1" gradientTransform="matrix(-130.301 134.5 -132.096 -128.363 165.747 165)" gradientUnits="userSpaceOnUse">
<stop stop-color="#BDCBDB"/>
<stop offset="1" stop-color="#BDCBDB" stop-opacity="0"/>
</radialGradient>
<radialGradient id="paint25_radial_4706_14150" cx="0" cy="0" r="1" gradientTransform="matrix(-130.301 134.5 -132.096 -128.363 165.747 165)" gradientUnits="userSpaceOnUse">
<stop stop-color="#BDCBDB"/>
<stop offset="1" stop-color="#BDCBDB" stop-opacity="0"/>
</radialGradient>
<radialGradient id="paint26_radial_4706_14150" cx="0" cy="0" r="1" gradientTransform="matrix(-130.301 134.5 -132.096 -128.363 165.747 165)" gradientUnits="userSpaceOnUse">
<stop stop-color="#BDCBDB"/>
<stop offset="1" stop-color="#BDCBDB" stop-opacity="0"/>
</radialGradient>
<radialGradient id="paint27_radial_4706_14150" cx="0" cy="0" r="1" gradientTransform="matrix(-130.301 134.5 -132.096 -128.363 165.747 165)" gradientUnits="userSpaceOnUse">
<stop stop-color="#BDCBDB"/>
<stop offset="1" stop-color="#BDCBDB" stop-opacity="0"/>
</radialGradient>
<radialGradient id="paint28_radial_4706_14150" cx="0" cy="0" r="1" gradientTransform="matrix(-130.301 134.5 -132.096 -128.363 165.747 165)" gradientUnits="userSpaceOnUse">
<stop stop-color="#BDCBDB"/>
<stop offset="1" stop-color="#BDCBDB" stop-opacity="0"/>
</radialGradient>
<radialGradient id="paint29_radial_4706_14150" cx="0" cy="0" r="1" gradientTransform="matrix(-130.301 134.5 -132.096 -128.363 165.747 165)" gradientUnits="userSpaceOnUse">
<stop stop-color="#BDCBDB"/>
<stop offset="1" stop-color="#BDCBDB" stop-opacity="0"/>
</radialGradient>
<radialGradient id="paint30_radial_4706_14150" cx="0" cy="0" r="1" gradientTransform="matrix(-130.301 134.5 -132.096 -128.363 165.747 165)" gradientUnits="userSpaceOnUse">
<stop stop-color="#BDCBDB"/>
<stop offset="1" stop-color="#BDCBDB" stop-opacity="0"/>
</radialGradient>
<radialGradient id="paint31_radial_4706_14150" cx="0" cy="0" r="1" gradientTransform="matrix(-130.301 134.5 -132.096 -128.363 165.747 165)" gradientUnits="userSpaceOnUse">
<stop stop-color="#BDCBDB"/>
<stop offset="1" stop-color="#BDCBDB" stop-opacity="0"/>
</radialGradient>
<radialGradient id="paint32_radial_4706_14150" cx="0" cy="0" r="1" gradientTransform="matrix(-130.301 134.5 -132.096 -128.363 165.747 165)" gradientUnits="userSpaceOnUse">
<stop stop-color="#BDCBDB"/>
<stop offset="1" stop-color="#BDCBDB" stop-opacity="0"/>
</radialGradient>
<radialGradient id="paint33_radial_4706_14150" cx="0" cy="0" r="1" gradientTransform="matrix(-130.301 134.5 -132.096 -128.363 165.747 165)" gradientUnits="userSpaceOnUse">
<stop stop-color="#BDCBDB"/>
<stop offset="1" stop-color="#BDCBDB" stop-opacity="0"/>
</radialGradient>
<radialGradient id="paint34_radial_4706_14150" cx="0" cy="0" r="1" gradientTransform="matrix(-130.301 134.5 -132.096 -128.363 165.747 165)" gradientUnits="userSpaceOnUse">
<stop stop-color="#BDCBDB"/>
<stop offset="1" stop-color="#BDCBDB" stop-opacity="0"/>
</radialGradient>
<radialGradient id="paint35_radial_4706_14150" cx="0" cy="0" r="1" gradientTransform="matrix(-130.301 134.5 -132.096 -128.363 165.747 165)" gradientUnits="userSpaceOnUse">
<stop stop-color="#BDCBDB"/>
<stop offset="1" stop-color="#BDCBDB" stop-opacity="0"/>
</radialGradient>
<radialGradient id="paint36_radial_4706_14150" cx="0" cy="0" r="1" gradientTransform="matrix(-130.301 134.5 -132.096 -128.363 165.747 165)" gradientUnits="userSpaceOnUse">
<stop stop-color="#BDCBDB"/>
<stop offset="1" stop-color="#BDCBDB" stop-opacity="0"/>
</radialGradient>
<radialGradient id="paint37_radial_4706_14150" cx="0" cy="0" r="1" gradientTransform="matrix(-130.301 134.5 -132.096 -128.363 165.747 165)" gradientUnits="userSpaceOnUse">
<stop stop-color="#BDCBDB"/>
<stop offset="1" stop-color="#BDCBDB" stop-opacity="0"/>
</radialGradient>
<radialGradient id="paint38_radial_4706_14150" cx="0" cy="0" r="1" gradientTransform="matrix(-130.301 134.5 -132.096 -128.363 165.747 165)" gradientUnits="userSpaceOnUse">
<stop stop-color="#BDCBDB"/>
<stop offset="1" stop-color="#BDCBDB" stop-opacity="0"/>
</radialGradient>
<radialGradient id="paint39_radial_4706_14150" cx="0" cy="0" r="1" gradientTransform="matrix(-130.301 134.5 -132.096 -128.363 165.747 165)" gradientUnits="userSpaceOnUse">
<stop stop-color="#BDCBDB"/>
<stop offset="1" stop-color="#BDCBDB" stop-opacity="0"/>
</radialGradient>
<radialGradient id="paint40_radial_4706_14150" cx="0" cy="0" r="1" gradientTransform="matrix(-130.301 134.5 -132.096 -128.363 165.747 165)" gradientUnits="userSpaceOnUse">
<stop stop-color="#BDCBDB"/>
<stop offset="1" stop-color="#BDCBDB" stop-opacity="0"/>
</radialGradient>
<radialGradient id="paint41_radial_4706_14150" cx="0" cy="0" r="1" gradientTransform="matrix(-130.301 134.5 -132.096 -128.363 165.747 165)" gradientUnits="userSpaceOnUse">
<stop stop-color="#BDCBDB"/>
<stop offset="1" stop-color="#BDCBDB" stop-opacity="0"/>
</radialGradient>
<radialGradient id="paint42_radial_4706_14150" cx="0" cy="0" r="1" gradientTransform="matrix(-130.301 134.5 -132.096 -128.363 165.747 165)" gradientUnits="userSpaceOnUse">
<stop stop-color="#BDCBDB"/>
<stop offset="1" stop-color="#BDCBDB" stop-opacity="0"/>
</radialGradient>
<radialGradient id="paint43_radial_4706_14150" cx="0" cy="0" r="1" gradientTransform="matrix(-130.301 134.5 -132.096 -128.363 165.747 165)" gradientUnits="userSpaceOnUse">
<stop stop-color="#BDCBDB"/>
<stop offset="1" stop-color="#BDCBDB" stop-opacity="0"/>
</radialGradient>
<radialGradient id="paint44_radial_4706_14150" cx="0" cy="0" r="1" gradientTransform="matrix(-130.301 134.5 -132.096 -128.363 165.747 165)" gradientUnits="userSpaceOnUse">
<stop stop-color="#BDCBDB"/>
<stop offset="1" stop-color="#BDCBDB" stop-opacity="0"/>
</radialGradient>
<radialGradient id="paint45_radial_4706_14150" cx="0" cy="0" r="1" gradientTransform="matrix(-130.301 134.5 -132.096 -128.363 165.747 165)" gradientUnits="userSpaceOnUse">
<stop stop-color="#BDCBDB"/>
<stop offset="1" stop-color="#BDCBDB" stop-opacity="0"/>
</radialGradient>
<radialGradient id="paint46_radial_4706_14150" cx="0" cy="0" r="1" gradientTransform="matrix(-130.301 134.5 -132.096 -128.363 165.747 165)" gradientUnits="userSpaceOnUse">
<stop stop-color="#BDCBDB"/>
<stop offset="1" stop-color="#BDCBDB" stop-opacity="0"/>
</radialGradient>
<radialGradient id="paint47_radial_4706_14150" cx="0" cy="0" r="1" gradientTransform="matrix(-130.301 134.5 -132.096 -128.363 165.747 165)" gradientUnits="userSpaceOnUse">
<stop stop-color="#BDCBDB"/>
<stop offset="1" stop-color="#BDCBDB" stop-opacity="0"/>
</radialGradient>
<radialGradient id="paint48_radial_4706_14150" cx="0" cy="0" r="1" gradientTransform="matrix(-130.301 134.5 -132.096 -128.363 165.747 165)" gradientUnits="userSpaceOnUse">
<stop stop-color="#BDCBDB"/>
<stop offset="1" stop-color="#BDCBDB" stop-opacity="0"/>
</radialGradient>
<radialGradient id="paint49_radial_4706_14150" cx="0" cy="0" r="1" gradientTransform="matrix(-130.301 134.5 -132.096 -128.363 165.747 165)" gradientUnits="userSpaceOnUse">
<stop stop-color="#BDCBDB"/>
<stop offset="1" stop-color="#BDCBDB" stop-opacity="0"/>
</radialGradient>
<radialGradient id="paint50_radial_4706_14150" cx="0" cy="0" r="1" gradientTransform="matrix(-130.301 134.5 -132.096 -128.363 165.747 165)" gradientUnits="userSpaceOnUse">
<stop stop-color="#BDCBDB"/>
<stop offset="1" stop-color="#BDCBDB" stop-opacity="0"/>
</radialGradient>
<radialGradient id="paint51_radial_4706_14150" cx="0" cy="0" r="1" gradientTransform="matrix(-130.301 134.5 -132.096 -128.363 165.747 165)" gradientUnits="userSpaceOnUse">
<stop stop-color="#BDCBDB"/>
<stop offset="1" stop-color="#BDCBDB" stop-opacity="0"/>
</radialGradient>
<radialGradient id="paint52_radial_4706_14150" cx="0" cy="0" r="1" gradientTransform="matrix(-130.301 134.5 -132.096 -128.363 165.747 165)" gradientUnits="userSpaceOnUse">
<stop stop-color="#BDCBDB"/>
<stop offset="1" stop-color="#BDCBDB" stop-opacity="0"/>
</radialGradient>
<radialGradient id="paint53_radial_4706_14150" cx="0" cy="0" r="1" gradientTransform="matrix(-130.301 134.5 -132.096 -128.363 165.747 165)" gradientUnits="userSpaceOnUse">
<stop stop-color="#BDCBDB"/>
<stop offset="1" stop-color="#BDCBDB" stop-opacity="0"/>
</radialGradient>
<radialGradient id="paint54_radial_4706_14150" cx="0" cy="0" r="1" gradientTransform="matrix(-130.301 134.5 -132.096 -128.363 165.747 165)" gradientUnits="userSpaceOnUse">
<stop stop-color="#BDCBDB"/>
<stop offset="1" stop-color="#BDCBDB" stop-opacity="0"/>
</radialGradient>
<radialGradient id="paint55_radial_4706_14150" cx="0" cy="0" r="1" gradientTransform="matrix(-130.301 134.5 -132.096 -128.363 165.747 165)" gradientUnits="userSpaceOnUse">
<stop stop-color="#BDCBDB"/>
<stop offset="1" stop-color="#BDCBDB" stop-opacity="0"/>
</radialGradient>
<radialGradient id="paint56_radial_4706_14150" cx="0" cy="0" r="1" gradientTransform="matrix(-130.301 134.5 -132.096 -128.363 165.747 165)" gradientUnits="userSpaceOnUse">
<stop stop-color="#BDCBDB"/>
<stop offset="1" stop-color="#BDCBDB" stop-opacity="0"/>
</radialGradient>
<radialGradient id="paint57_radial_4706_14150" cx="0" cy="0" r="1" gradientTransform="matrix(-130.301 134.5 -132.096 -128.363 165.747 165)" gradientUnits="userSpaceOnUse">
<stop stop-color="#BDCBDB"/>
<stop offset="1" stop-color="#BDCBDB" stop-opacity="0"/>
</radialGradient>
<radialGradient id="paint58_radial_4706_14150" cx="0" cy="0" r="1" gradientTransform="matrix(-130.301 134.5 -132.096 -128.363 165.747 165)" gradientUnits="userSpaceOnUse">
<stop stop-color="#BDCBDB"/>
<stop offset="1" stop-color="#BDCBDB" stop-opacity="0"/>
</radialGradient>
<radialGradient id="paint59_radial_4706_14150" cx="0" cy="0" r="1" gradientTransform="matrix(-130.301 134.5 -132.096 -128.363 165.747 165)" gradientUnits="userSpaceOnUse">
<stop stop-color="#BDCBDB"/>
<stop offset="1" stop-color="#BDCBDB" stop-opacity="0"/>
</radialGradient>
<radialGradient id="paint60_radial_4706_14150" cx="0" cy="0" r="1" gradientTransform="matrix(-130.301 134.5 -132.096 -128.363 165.747 165)" gradientUnits="userSpaceOnUse">
<stop stop-color="#BDCBDB"/>
<stop offset="1" stop-color="#BDCBDB" stop-opacity="0"/>
</radialGradient>
<radialGradient id="paint61_radial_4706_14150" cx="0" cy="0" r="1" gradientTransform="matrix(-130.301 134.5 -132.096 -128.363 165.747 165)" gradientUnits="userSpaceOnUse">
<stop stop-color="#BDCBDB"/>
<stop offset="1" stop-color="#BDCBDB" stop-opacity="0"/>
</radialGradient>
<radialGradient id="paint62_radial_4706_14150" cx="0" cy="0" r="1" gradientTransform="matrix(-130.301 134.5 -132.096 -128.363 165.747 165)" gradientUnits="userSpaceOnUse">
<stop stop-color="#BDCBDB"/>
<stop offset="1" stop-color="#BDCBDB" stop-opacity="0"/>
</radialGradient>
<radialGradient id="paint63_radial_4706_14150" cx="0" cy="0" r="1" gradientTransform="matrix(-130.301 134.5 -132.096 -128.363 165.747 165)" gradientUnits="userSpaceOnUse">
<stop stop-color="#BDCBDB"/>
<stop offset="1" stop-color="#BDCBDB" stop-opacity="0"/>
</radialGradient>
<radialGradient id="paint64_radial_4706_14150" cx="0" cy="0" r="1" gradientTransform="matrix(-130.301 134.5 -132.096 -128.363 165.747 165)" gradientUnits="userSpaceOnUse">
<stop stop-color="#BDCBDB"/>
<stop offset="1" stop-color="#BDCBDB" stop-opacity="0"/>
</radialGradient>
<radialGradient id="paint65_radial_4706_14150" cx="0" cy="0" r="1" gradientTransform="matrix(-130.301 134.5 -132.096 -128.363 165.747 165)" gradientUnits="userSpaceOnUse">
<stop stop-color="#BDCBDB"/>
<stop offset="1" stop-color="#BDCBDB" stop-opacity="0"/>
</radialGradient>
<radialGradient id="paint66_radial_4706_14150" cx="0" cy="0" r="1" gradientTransform="matrix(-130.301 134.5 -132.096 -128.363 165.747 165)" gradientUnits="userSpaceOnUse">
<stop stop-color="#BDCBDB"/>
<stop offset="1" stop-color="#BDCBDB" stop-opacity="0"/>
</radialGradient>
<radialGradient id="paint67_radial_4706_14150" cx="0" cy="0" r="1" gradientTransform="matrix(-130.301 134.5 -132.096 -128.363 165.747 165)" gradientUnits="userSpaceOnUse">
<stop stop-color="#BDCBDB"/>
<stop offset="1" stop-color="#BDCBDB" stop-opacity="0"/>
</radialGradient>
<radialGradient id="paint68_radial_4706_14150" cx="0" cy="0" r="1" gradientTransform="matrix(-130.301 134.5 -132.096 -128.363 165.747 165)" gradientUnits="userSpaceOnUse">
<stop stop-color="#BDCBDB"/>
<stop offset="1" stop-color="#BDCBDB" stop-opacity="0"/>
</radialGradient>
<radialGradient id="paint69_radial_4706_14150" cx="0" cy="0" r="1" gradientTransform="matrix(-130.301 134.5 -132.096 -128.363 165.747 165)" gradientUnits="userSpaceOnUse">
<stop stop-color="#BDCBDB"/>
<stop offset="1" stop-color="#BDCBDB" stop-opacity="0"/>
</radialGradient>
<radialGradient id="paint70_radial_4706_14150" cx="0" cy="0" r="1" gradientTransform="matrix(-130.301 134.5 -132.096 -128.363 165.747 165)" gradientUnits="userSpaceOnUse">
<stop stop-color="#BDCBDB"/>
<stop offset="1" stop-color="#BDCBDB" stop-opacity="0"/>
</radialGradient>
<radialGradient id="paint71_radial_4706_14150" cx="0" cy="0" r="1" gradientTransform="matrix(-130.301 134.5 -132.096 -128.363 165.747 165)" gradientUnits="userSpaceOnUse">
<stop stop-color="#BDCBDB"/>
<stop offset="1" stop-color="#BDCBDB" stop-opacity="0"/>
</radialGradient>
<radialGradient id="paint72_radial_4706_14150" cx="0" cy="0" r="1" gradientTransform="matrix(-130.301 134.5 -132.096 -128.363 165.747 165)" gradientUnits="userSpaceOnUse">
<stop stop-color="#BDCBDB"/>
<stop offset="1" stop-color="#BDCBDB" stop-opacity="0"/>
</radialGradient>
<radialGradient id="paint73_radial_4706_14150" cx="0" cy="0" r="1" gradientTransform="matrix(-130.301 134.5 -132.096 -128.363 165.747 165)" gradientUnits="userSpaceOnUse">
<stop stop-color="#BDCBDB"/>
<stop offset="1" stop-color="#BDCBDB" stop-opacity="0"/>
</radialGradient>
<radialGradient id="paint74_radial_4706_14150" cx="0" cy="0" r="1" gradientTransform="matrix(-130.301 134.5 -132.096 -128.363 165.747 165)" gradientUnits="userSpaceOnUse">
<stop stop-color="#BDCBDB"/>
<stop offset="1" stop-color="#BDCBDB" stop-opacity="0"/>
</radialGradient>
<radialGradient id="paint75_radial_4706_14150" cx="0" cy="0" r="1" gradientTransform="matrix(-130.301 134.5 -132.096 -128.363 165.747 165)" gradientUnits="userSpaceOnUse">
<stop stop-color="#BDCBDB"/>
<stop offset="1" stop-color="#BDCBDB" stop-opacity="0"/>
</radialGradient>
<radialGradient id="paint76_radial_4706_14150" cx="0" cy="0" r="1" gradientTransform="matrix(-130.301 134.5 -132.096 -128.363 165.747 165)" gradientUnits="userSpaceOnUse">
<stop stop-color="#BDCBDB"/>
<stop offset="1" stop-color="#BDCBDB" stop-opacity="0"/>
</radialGradient>
<radialGradient id="paint77_radial_4706_14150" cx="0" cy="0" r="1" gradientTransform="matrix(-130.301 134.5 -132.096 -128.363 165.747 165)" gradientUnits="userSpaceOnUse">
<stop stop-color="#BDCBDB"/>
<stop offset="1" stop-color="#BDCBDB" stop-opacity="0"/>
</radialGradient>
<radialGradient id="paint78_radial_4706_14150" cx="0" cy="0" r="1" gradientTransform="matrix(-130.301 134.5 -132.096 -128.363 165.747 165)" gradientUnits="userSpaceOnUse">
<stop stop-color="#BDCBDB"/>
<stop offset="1" stop-color="#BDCBDB" stop-opacity="0"/>
</radialGradient>
<radialGradient id="paint79_radial_4706_14150" cx="0" cy="0" r="1" gradientTransform="matrix(-130.301 134.5 -132.096 -128.363 165.747 165)" gradientUnits="userSpaceOnUse">
<stop stop-color="#BDCBDB"/>
<stop offset="1" stop-color="#BDCBDB" stop-opacity="0"/>
</radialGradient>
<radialGradient id="paint80_radial_4706_14150" cx="0" cy="0" r="1" gradientTransform="matrix(-130.301 134.5 -132.096 -128.363 165.747 165)" gradientUnits="userSpaceOnUse">
<stop stop-color="#BDCBDB"/>
<stop offset="1" stop-color="#BDCBDB" stop-opacity="0"/>
</radialGradient>
<radialGradient id="paint81_radial_4706_14150" cx="0" cy="0" r="1" gradientTransform="matrix(-130.301 134.5 -132.096 -128.363 165.747 165)" gradientUnits="userSpaceOnUse">
<stop stop-color="#BDCBDB"/>
<stop offset="1" stop-color="#BDCBDB" stop-opacity="0"/>
</radialGradient>
<radialGradient id="paint82_radial_4706_14150" cx="0" cy="0" r="1" gradientTransform="matrix(-130.301 134.5 -132.096 -128.363 165.747 165)" gradientUnits="userSpaceOnUse">
<stop stop-color="#BDCBDB"/>
<stop offset="1" stop-color="#BDCBDB" stop-opacity="0"/>
</radialGradient>
<radialGradient id="paint83_radial_4706_14150" cx="0" cy="0" r="1" gradientTransform="matrix(-130.301 134.5 -132.096 -128.363 165.747 165)" gradientUnits="userSpaceOnUse">
<stop stop-color="#BDCBDB"/>
<stop offset="1" stop-color="#BDCBDB" stop-opacity="0"/>
</radialGradient>
<radialGradient id="paint84_radial_4706_14150" cx="0" cy="0" r="1" gradientTransform="matrix(-130.301 134.5 -132.096 -128.363 165.747 165)" gradientUnits="userSpaceOnUse">
<stop stop-color="#BDCBDB"/>
<stop offset="1" stop-color="#BDCBDB" stop-opacity="0"/>
</radialGradient>
<radialGradient id="paint85_radial_4706_14150" cx="0" cy="0" r="1" gradientTransform="matrix(-130.301 134.5 -132.096 -128.363 165.747 165)" gradientUnits="userSpaceOnUse">
<stop stop-color="#BDCBDB"/>
<stop offset="1" stop-color="#BDCBDB" stop-opacity="0"/>
</radialGradient>
<radialGradient id="paint86_radial_4706_14150" cx="0" cy="0" r="1" gradientTransform="matrix(-130.301 134.5 -132.096 -128.363 165.747 165)" gradientUnits="userSpaceOnUse">
<stop stop-color="#BDCBDB"/>
<stop offset="1" stop-color="#BDCBDB" stop-opacity="0"/>
</radialGradient>
<radialGradient id="paint87_radial_4706_14150" cx="0" cy="0" r="1" gradientTransform="matrix(-130.301 134.5 -132.096 -128.363 165.747 165)" gradientUnits="userSpaceOnUse">
<stop stop-color="#BDCBDB"/>
<stop offset="1" stop-color="#BDCBDB" stop-opacity="0"/>
</radialGradient>
<radialGradient id="paint88_radial_4706_14150" cx="0" cy="0" r="1" gradientTransform="matrix(-130.301 134.5 -132.096 -128.363 165.747 165)" gradientUnits="userSpaceOnUse">
<stop stop-color="#BDCBDB"/>
<stop offset="1" stop-color="#BDCBDB" stop-opacity="0"/>
</radialGradient>
<radialGradient id="paint89_radial_4706_14150" cx="0" cy="0" r="1" gradientTransform="matrix(-130.301 134.5 -132.096 -128.363 165.747 165)" gradientUnits="userSpaceOnUse">
<stop stop-color="#BDCBDB"/>
<stop offset="1" stop-color="#BDCBDB" stop-opacity="0"/>
</radialGradient>
<radialGradient id="paint90_radial_4706_14150" cx="0" cy="0" r="1" gradientTransform="matrix(-130.301 134.5 -132.096 -128.363 165.747 165)" gradientUnits="userSpaceOnUse">
<stop stop-color="#BDCBDB"/>
<stop offset="1" stop-color="#BDCBDB" stop-opacity="0"/>
</radialGradient>
<radialGradient id="paint91_radial_4706_14150" cx="0" cy="0" r="1" gradientTransform="matrix(-130.301 134.5 -132.096 -128.363 165.747 165)" gradientUnits="userSpaceOnUse">
<stop stop-color="#BDCBDB"/>
<stop offset="1" stop-color="#BDCBDB" stop-opacity="0"/>
</radialGradient>
<radialGradient id="paint92_radial_4706_14150" cx="0" cy="0" r="1" gradientTransform="matrix(-130.301 134.5 -132.096 -128.363 165.747 165)" gradientUnits="userSpaceOnUse">
<stop stop-color="#BDCBDB"/>
<stop offset="1" stop-color="#BDCBDB" stop-opacity="0"/>
</radialGradient>
<radialGradient id="paint93_radial_4706_14150" cx="0" cy="0" r="1" gradientTransform="matrix(-130.301 134.5 -132.096 -128.363 165.747 165)" gradientUnits="userSpaceOnUse">
<stop stop-color="#BDCBDB"/>
<stop offset="1" stop-color="#BDCBDB" stop-opacity="0"/>
</radialGradient>
<radialGradient id="paint94_radial_4706_14150" cx="0" cy="0" r="1" gradientTransform="matrix(-130.301 134.5 -132.096 -128.363 165.747 165)" gradientUnits="userSpaceOnUse">
<stop stop-color="#BDCBDB"/>
<stop offset="1" stop-color="#BDCBDB" stop-opacity="0"/>
</radialGradient>
<radialGradient id="paint95_radial_4706_14150" cx="0" cy="0" r="1" gradientTransform="matrix(-130.301 134.5 -132.096 -128.363 165.747 165)" gradientUnits="userSpaceOnUse">
<stop stop-color="#BDCBDB"/>
<stop offset="1" stop-color="#BDCBDB" stop-opacity="0"/>
</radialGradient>
<radialGradient id="paint96_radial_4706_14150" cx="0" cy="0" r="1" gradientTransform="matrix(-130.301 134.5 -132.096 -128.363 165.747 165)" gradientUnits="userSpaceOnUse">
<stop stop-color="#BDCBDB"/>
<stop offset="1" stop-color="#BDCBDB" stop-opacity="0"/>
</radialGradient>
<radialGradient id="paint97_radial_4706_14150" cx="0" cy="0" r="1" gradientTransform="matrix(-130.301 134.5 -132.096 -128.363 165.747 165)" gradientUnits="userSpaceOnUse">
<stop stop-color="#BDCBDB"/>
<stop offset="1" stop-color="#BDCBDB" stop-opacity="0"/>
</radialGradient>
<radialGradient id="paint98_radial_4706_14150" cx="0" cy="0" r="1" gradientTransform="matrix(-130.301 134.5 -132.096 -128.363 165.747 165)" gradientUnits="userSpaceOnUse">
<stop stop-color="#BDCBDB"/>
<stop offset="1" stop-color="#BDCBDB" stop-opacity="0"/>
</radialGradient>
<radialGradient id="paint99_radial_4706_14150" cx="0" cy="0" r="1" gradientTransform="matrix(-130.301 134.5 -132.096 -128.363 165.747 165)" gradientUnits="userSpaceOnUse">
<stop stop-color="#BDCBDB"/>
<stop offset="1" stop-color="#BDCBDB" stop-opacity="0"/>
</radialGradient>
<radialGradient id="paint100_radial_4706_14150" cx="0" cy="0" r="1" gradientTransform="matrix(-130.301 134.5 -132.096 -128.363 165.747 165)" gradientUnits="userSpaceOnUse">
<stop stop-color="#BDCBDB"/>
<stop offset="1" stop-color="#BDCBDB" stop-opacity="0"/>
</radialGradient>
<radialGradient id="paint101_radial_4706_14150" cx="0" cy="0" r="1" gradientTransform="matrix(-130.301 134.5 -132.096 -128.363 165.747 165)" gradientUnits="userSpaceOnUse">
<stop stop-color="#BDCBDB"/>
<stop offset="1" stop-color="#BDCBDB" stop-opacity="0"/>
</radialGradient>
<radialGradient id="paint102_radial_4706_14150" cx="0" cy="0" r="1" gradientTransform="matrix(-130.301 134.5 -132.096 -128.363 165.747 165)" gradientUnits="userSpaceOnUse">
<stop stop-color="#BDCBDB"/>
<stop offset="1" stop-color="#BDCBDB" stop-opacity="0"/>
</radialGradient>
<radialGradient id="paint103_radial_4706_14150" cx="0" cy="0" r="1" gradientTransform="matrix(-130.301 134.5 -132.096 -128.363 165.747 165)" gradientUnits="userSpaceOnUse">
<stop stop-color="#BDCBDB"/>
<stop offset="1" stop-color="#BDCBDB" stop-opacity="0"/>
</radialGradient>
<radialGradient id="paint104_radial_4706_14150" cx="0" cy="0" r="1" gradientTransform="matrix(-130.301 134.5 -132.096 -128.363 165.747 165)" gradientUnits="userSpaceOnUse">
<stop stop-color="#BDCBDB"/>
<stop offset="1" stop-color="#BDCBDB" stop-opacity="0"/>
</radialGradient>
<radialGradient id="paint105_radial_4706_14150" cx="0" cy="0" r="1" gradientTransform="matrix(-130.301 134.5 -132.096 -128.363 165.747 165)" gradientUnits="userSpaceOnUse">
<stop stop-color="#BDCBDB"/>
<stop offset="1" stop-color="#BDCBDB" stop-opacity="0"/>
</radialGradient>
<radialGradient id="paint106_radial_4706_14150" cx="0" cy="0" r="1" gradientTransform="matrix(-130.301 134.5 -132.096 -128.363 165.747 165)" gradientUnits="userSpaceOnUse">
<stop stop-color="#BDCBDB"/>
<stop offset="1" stop-color="#BDCBDB" stop-opacity="0"/>
</radialGradient>
<radialGradient id="paint107_radial_4706_14150" cx="0" cy="0" r="1" gradientTransform="matrix(-130.301 134.5 -132.096 -128.363 165.747 165)" gradientUnits="userSpaceOnUse">
<stop stop-color="#BDCBDB"/>
<stop offset="1" stop-color="#BDCBDB" stop-opacity="0"/>
</radialGradient>
<radialGradient id="paint108_radial_4706_14150" cx="0" cy="0" r="1" gradientTransform="matrix(-130.301 134.5 -132.096 -128.363 165.747 165)" gradientUnits="userSpaceOnUse">
<stop stop-color="#BDCBDB"/>
<stop offset="1" stop-color="#BDCBDB" stop-opacity="0"/>
</radialGradient>
<radialGradient id="paint109_radial_4706_14150" cx="0" cy="0" r="1" gradientTransform="matrix(-130.301 134.5 -132.096 -128.363 165.747 165)" gradientUnits="userSpaceOnUse">
<stop stop-color="#BDCBDB"/>
<stop offset="1" stop-color="#BDCBDB" stop-opacity="0"/>
</radialGradient>
<radialGradient id="paint110_radial_4706_14150" cx="0" cy="0" r="1" gradientTransform="matrix(-130.301 134.5 -132.096 -128.363 165.747 165)" gradientUnits="userSpaceOnUse">
<stop stop-color="#BDCBDB"/>
<stop offset="1" stop-color="#BDCBDB" stop-opacity="0"/>
</radialGradient>
<radialGradient id="paint111_radial_4706_14150" cx="0" cy="0" r="1" gradientTransform="matrix(-130.301 134.5 -132.096 -128.363 165.747 165)" gradientUnits="userSpaceOnUse">
<stop stop-color="#BDCBDB"/>
<stop offset="1" stop-color="#BDCBDB" stop-opacity="0"/>
</radialGradient>
<radialGradient id="paint112_radial_4706_14150" cx="0" cy="0" r="1" gradientTransform="matrix(-130.301 134.5 -132.096 -128.363 165.747 165)" gradientUnits="userSpaceOnUse">
<stop stop-color="#BDCBDB"/>
<stop offset="1" stop-color="#BDCBDB" stop-opacity="0"/>
</radialGradient>
<radialGradient id="paint113_radial_4706_14150" cx="0" cy="0" r="1" gradientTransform="matrix(-130.301 134.5 -132.096 -128.363 165.747 165)" gradientUnits="userSpaceOnUse">
<stop stop-color="#BDCBDB"/>
<stop offset="1" stop-color="#BDCBDB" stop-opacity="0"/>
</radialGradient>
<radialGradient id="paint114_radial_4706_14150" cx="0" cy="0" r="1" gradientTransform="matrix(-130.301 134.5 -132.096 -128.363 165.747 165)" gradientUnits="userSpaceOnUse">
<stop stop-color="#BDCBDB"/>
<stop offset="1" stop-color="#BDCBDB" stop-opacity="0"/>
</radialGradient>
<radialGradient id="paint115_radial_4706_14150" cx="0" cy="0" r="1" gradientTransform="matrix(-130.301 134.5 -132.096 -128.363 165.747 165)" gradientUnits="userSpaceOnUse">
<stop stop-color="#BDCBDB"/>
<stop offset="1" stop-color="#BDCBDB" stop-opacity="0"/>
</radialGradient>
<radialGradient id="paint116_radial_4706_14150" cx="0" cy="0" r="1" gradientTransform="matrix(-130.301 134.5 -132.096 -128.363 165.747 165)" gradientUnits="userSpaceOnUse">
<stop stop-color="#BDCBDB"/>
<stop offset="1" stop-color="#BDCBDB" stop-opacity="0"/>
</radialGradient>
<radialGradient id="paint117_radial_4706_14150" cx="0" cy="0" r="1" gradientTransform="matrix(-130.301 134.5 -132.096 -128.363 165.747 165)" gradientUnits="userSpaceOnUse">
<stop stop-color="#BDCBDB"/>
<stop offset="1" stop-color="#BDCBDB" stop-opacity="0"/>
</radialGradient>
<radialGradient id="paint118_radial_4706_14150" cx="0" cy="0" r="1" gradientTransform="matrix(-130.301 134.5 -132.096 -128.363 165.747 165)" gradientUnits="userSpaceOnUse">
<stop stop-color="#BDCBDB"/>
<stop offset="1" stop-color="#BDCBDB" stop-opacity="0"/>
</radialGradient>
<radialGradient id="paint119_radial_4706_14150" cx="0" cy="0" r="1" gradientTransform="matrix(-130.301 134.5 -132.096 -128.363 165.747 165)" gradientUnits="userSpaceOnUse">
<stop stop-color="#BDCBDB"/>
<stop offset="1" stop-color="#BDCBDB" stop-opacity="0"/>
</radialGradient>
<radialGradient id="paint120_radial_4706_14150" cx="0" cy="0" r="1" gradientTransform="matrix(-130.301 134.5 -132.096 -128.363 165.747 165)" gradientUnits="userSpaceOnUse">
<stop stop-color="#BDCBDB"/>
<stop offset="1" stop-color="#BDCBDB" stop-opacity="0"/>
</radialGradient>
<radialGradient id="paint121_radial_4706_14150" cx="0" cy="0" r="1" gradientTransform="matrix(-130.301 134.5 -132.096 -128.363 165.747 165)" gradientUnits="userSpaceOnUse">
<stop stop-color="#BDCBDB"/>
<stop offset="1" stop-color="#BDCBDB" stop-opacity="0"/>
</radialGradient>
<radialGradient id="paint122_radial_4706_14150" cx="0" cy="0" r="1" gradientTransform="matrix(-130.301 134.5 -132.096 -128.363 165.747 165)" gradientUnits="userSpaceOnUse">
<stop stop-color="#BDCBDB"/>
<stop offset="1" stop-color="#BDCBDB" stop-opacity="0"/>
</radialGradient>
<radialGradient id="paint123_radial_4706_14150" cx="0" cy="0" r="1" gradientTransform="matrix(-130.301 134.5 -132.096 -128.363 165.747 165)" gradientUnits="userSpaceOnUse">
<stop stop-color="#BDCBDB"/>
<stop offset="1" stop-color="#BDCBDB" stop-opacity="0"/>
</radialGradient>
<radialGradient id="paint124_radial_4706_14150" cx="0" cy="0" r="1" gradientTransform="matrix(-130.301 134.5 -132.096 -128.363 165.747 165)" gradientUnits="userSpaceOnUse">
<stop stop-color="#BDCBDB"/>
<stop offset="1" stop-color="#BDCBDB" stop-opacity="0"/>
</radialGradient>
<radialGradient id="paint125_radial_4706_14150" cx="0" cy="0" r="1" gradientTransform="matrix(-130.301 134.5 -132.096 -128.363 165.747 165)" gradientUnits="userSpaceOnUse">
<stop stop-color="#BDCBDB"/>
<stop offset="1" stop-color="#BDCBDB" stop-opacity="0"/>
</radialGradient>
<radialGradient id="paint126_radial_4706_14150" cx="0" cy="0" r="1" gradientTransform="matrix(-130.301 134.5 -132.096 -128.363 165.747 165)" gradientUnits="userSpaceOnUse">
<stop stop-color="#BDCBDB"/>
<stop offset="1" stop-color="#BDCBDB" stop-opacity="0"/>
</radialGradient>
<radialGradient id="paint127_radial_4706_14150" cx="0" cy="0" r="1" gradientTransform="matrix(-130.301 134.5 -132.096 -128.363 165.747 165)" gradientUnits="userSpaceOnUse">
<stop stop-color="#BDCBDB"/>
<stop offset="1" stop-color="#BDCBDB" stop-opacity="0"/>
</radialGradient>
<radialGradient id="paint128_radial_4706_14150" cx="0" cy="0" r="1" gradientTransform="matrix(-130.301 134.5 -132.096 -128.363 165.747 165)" gradientUnits="userSpaceOnUse">
<stop stop-color="#BDCBDB"/>
<stop offset="1" stop-color="#BDCBDB" stop-opacity="0"/>
</radialGradient>
<radialGradient id="paint129_radial_4706_14150" cx="0" cy="0" r="1" gradientTransform="matrix(-130.301 134.5 -132.096 -128.363 165.747 165)" gradientUnits="userSpaceOnUse">
<stop stop-color="#BDCBDB"/>
<stop offset="1" stop-color="#BDCBDB" stop-opacity="0"/>
</radialGradient>
<radialGradient id="paint130_radial_4706_14150" cx="0" cy="0" r="1" gradientTransform="matrix(-130.301 134.5 -132.096 -128.363 165.747 165)" gradientUnits="userSpaceOnUse">
<stop stop-color="#BDCBDB"/>
<stop offset="1" stop-color="#BDCBDB" stop-opacity="0"/>
</radialGradient>
<radialGradient id="paint131_radial_4706_14150" cx="0" cy="0" r="1" gradientTransform="matrix(-130.301 134.5 -132.096 -128.363 165.747 165)" gradientUnits="userSpaceOnUse">
<stop stop-color="#BDCBDB"/>
<stop offset="1" stop-color="#BDCBDB" stop-opacity="0"/>
</radialGradient>
<radialGradient id="paint132_radial_4706_14150" cx="0" cy="0" r="1" gradientTransform="matrix(-130.301 134.5 -132.096 -128.363 165.747 165)" gradientUnits="userSpaceOnUse">
<stop stop-color="#BDCBDB"/>
<stop offset="1" stop-color="#BDCBDB" stop-opacity="0"/>
</radialGradient>
<radialGradient id="paint133_radial_4706_14150" cx="0" cy="0" r="1" gradientTransform="matrix(-130.301 134.5 -132.096 -128.363 165.747 165)" gradientUnits="userSpaceOnUse">
<stop stop-color="#BDCBDB"/>
<stop offset="1" stop-color="#BDCBDB" stop-opacity="0"/>
</radialGradient>
<radialGradient id="paint134_radial_4706_14150" cx="0" cy="0" r="1" gradientTransform="matrix(-130.301 134.5 -132.096 -128.363 165.747 165)" gradientUnits="userSpaceOnUse">
<stop stop-color="#BDCBDB"/>
<stop offset="1" stop-color="#BDCBDB" stop-opacity="0"/>
</radialGradient>
<radialGradient id="paint135_radial_4706_14150" cx="0" cy="0" r="1" gradientTransform="matrix(-130.301 134.5 -132.096 -128.363 165.747 165)" gradientUnits="userSpaceOnUse">
<stop stop-color="#BDCBDB"/>
<stop offset="1" stop-color="#BDCBDB" stop-opacity="0"/>
</radialGradient>
<radialGradient id="paint136_radial_4706_14150" cx="0" cy="0" r="1" gradientTransform="matrix(-130.301 134.5 -132.096 -128.363 165.747 165)" gradientUnits="userSpaceOnUse">
<stop stop-color="#BDCBDB"/>
<stop offset="1" stop-color="#BDCBDB" stop-opacity="0"/>
</radialGradient>
<radialGradient id="paint137_radial_4706_14150" cx="0" cy="0" r="1" gradientTransform="matrix(-130.301 134.5 -132.096 -128.363 165.747 165)" gradientUnits="userSpaceOnUse">
<stop stop-color="#BDCBDB"/>
<stop offset="1" stop-color="#BDCBDB" stop-opacity="0"/>
</radialGradient>
<radialGradient id="paint138_radial_4706_14150" cx="0" cy="0" r="1" gradientTransform="matrix(-130.301 134.5 -132.096 -128.363 165.747 165)" gradientUnits="userSpaceOnUse">
<stop stop-color="#BDCBDB"/>
<stop offset="1" stop-color="#BDCBDB" stop-opacity="0"/>
</radialGradient>
<radialGradient id="paint139_radial_4706_14150" cx="0" cy="0" r="1" gradientTransform="matrix(-130.301 134.5 -132.096 -128.363 165.747 165)" gradientUnits="userSpaceOnUse">
<stop stop-color="#BDCBDB"/>
<stop offset="1" stop-color="#BDCBDB" stop-opacity="0"/>
</radialGradient>
<radialGradient id="paint140_radial_4706_14150" cx="0" cy="0" r="1" gradientTransform="matrix(-130.301 134.5 -132.096 -128.363 165.747 165)" gradientUnits="userSpaceOnUse">
<stop stop-color="#BDCBDB"/>
<stop offset="1" stop-color="#BDCBDB" stop-opacity="0"/>
</radialGradient>
<radialGradient id="paint141_radial_4706_14150" cx="0" cy="0" r="1" gradientTransform="matrix(-130.301 134.5 -132.096 -128.363 165.747 165)" gradientUnits="userSpaceOnUse">
<stop stop-color="#BDCBDB"/>
<stop offset="1" stop-color="#BDCBDB" stop-opacity="0"/>
</radialGradient>
<radialGradient id="paint142_radial_4706_14150" cx="0" cy="0" r="1" gradientTransform="matrix(-130.301 134.5 -132.096 -128.363 165.747 165)" gradientUnits="userSpaceOnUse">
<stop stop-color="#BDCBDB"/>
<stop offset="1" stop-color="#BDCBDB" stop-opacity="0"/>
</radialGradient>
<radialGradient id="paint143_radial_4706_14150" cx="0" cy="0" r="1" gradientTransform="matrix(-130.301 134.5 -132.096 -128.363 165.747 165)" gradientUnits="userSpaceOnUse">
<stop stop-color="#BDCBDB"/>
<stop offset="1" stop-color="#BDCBDB" stop-opacity="0"/>
</radialGradient>
</defs>
</svg>
