<svg preserveAspectRatio="none" width="100%" height="100%" overflow="visible" style="display: block;" viewBox="0 0 26.667 26.667" fill="none" xmlns="http://www.w3.org/2000/svg">
<path id="Union" d="M13.334 0C20.6972 0.000180469 26.667 5.96942 26.667 13.334C26.6668 20.6965 20.6971 26.6668 13.334 26.667C5.97008 26.667 0.000180893 20.6966 0 13.334C0 5.96931 5.96997 0 13.334 0ZM9.26758 13.2383C9.26764 15.4674 11.2053 17.2577 13.4326 17.2578C15.6607 17.2578 17.4688 15.4532 17.4688 13.2246C17.4686 10.9968 15.6606 9.20207 13.4326 9.18945C12.4922 9.18573 11.8532 9.60939 11.292 10.2451L11.2891 6.4502H9.26465L9.26758 13.2383ZM4.6416 9.07715C2.41374 9.07741 0.607422 10.8839 0.607422 13.1123C0.607479 15.3407 2.41377 17.1342 4.6416 17.1465C5.58301 17.1515 6.22288 16.7278 6.78418 16.0918V17.1963L8.81055 17.1816L8.80762 13.0967C8.8074 10.8689 6.86956 9.07715 4.6416 9.07715ZM22.1094 9.09668C19.8794 9.09668 18.0743 10.9014 18.0742 13.1299C18.0742 15.3578 19.8794 17.165 22.1094 17.165C24.0585 17.1648 25.6969 15.8072 26.0732 13.9688L24.0439 13.9785C23.7335 14.7133 22.9941 15.2029 22.1455 15.2031C21.0159 15.2031 20.0986 14.2876 20.0986 13.1562C20.0988 12.0257 21.016 11.1094 22.1455 11.1094C22.9942 11.1096 23.7241 11.6049 24.0352 12.3398L26.0635 12.3467C25.6815 10.5151 24.0528 9.09689 22.1094 9.09668ZM4.66797 11.0703C5.79753 11.0703 6.71484 11.9859 6.71484 13.1172C6.71471 14.2478 5.79745 15.165 4.66797 15.165C3.53663 15.165 2.61927 14.2477 2.61914 13.1172C2.61914 11.9865 3.53655 11.0704 4.66797 11.0703ZM13.3809 11.0703C14.5117 11.0703 15.4287 11.9871 15.4287 13.1172C15.4286 14.2478 14.5116 15.165 13.3809 15.165C12.2501 15.165 11.3341 14.2477 11.334 13.1172C11.334 11.9871 12.2501 11.0704 13.3809 11.0703Z" fill="var(--fill-0, #A0AAB0)"/>
</svg>
