<svg preserveAspectRatio="none" width="100%" height="100%" overflow="visible" style="display: block;" viewBox="0 0 202.667 26.6667" fill="none" xmlns="http://www.w3.org/2000/svg">
<path id="Vector" d="M15.1917 2.75482C15.1917 0.550964 13.1001 0 11.4488 0V0.330578C12.4396 0.330578 13.2102 0.661157 13.2102 1.43251C13.2102 1.87328 12.88 2.53444 11.8892 2.53444C11.1186 2.53444 9.46732 2.09366 8.25638 1.65289C6.82528 1.10193 5.50425 0.661157 4.4034 0.661157C2.2017 0.661157 0.660511 2.31405 0.660511 4.18733C0.660511 5.84022 1.87145 6.39118 2.31179 6.61157L2.42187 6.39118C2.2017 6.1708 1.87145 5.95041 1.87145 5.28926C1.87145 4.84848 2.31179 4.07713 3.41264 4.07713C4.4034 4.07713 5.72443 4.51791 7.48579 5.06887C9.02698 5.50964 10.6783 5.84022 11.5589 5.95041V9.36639L9.90766 10.7989V10.9091L11.5589 12.3416V17.0799C10.6783 17.6309 9.68749 17.741 8.80681 17.741C7.15553 17.741 5.72442 17.3003 4.51349 15.978L9.02698 13.7741V6.1708L3.52272 8.59504C3.96306 7.16253 5.174 6.1708 6.38494 5.50964L6.27485 5.17906C2.9723 6.06061 0 9.14601 0 12.8926C0 17.3003 3.63281 20.6061 7.70596 20.6061C12.1094 20.6061 14.9716 17.0799 14.9716 13.4435H14.7514C14.0909 14.876 13.1001 16.1983 11.8892 16.8595V12.3416L13.6506 10.9091V10.7989L11.8892 9.36639V5.95041C13.5405 5.95041 15.1917 4.84848 15.1917 2.75482ZM5.61434 14.876L4.29332 15.5372C3.52272 14.5455 3.08238 13.2231 3.08238 11.3499C3.08238 10.5785 3.08238 9.69697 3.30255 9.03581L5.61434 8.04408V14.876V14.876ZM17.2834 17.4105L15.8523 18.5124L16.0724 18.7328L16.7329 18.1818L19.1548 20.3857L22.4574 18.1818L22.3473 17.9614L21.4666 18.5124L20.3657 17.4105V9.91736L21.2464 9.2562L23.1179 10.7989V17.5207C23.1179 21.708 22.2372 22.3691 20.3657 23.0303V23.3609C23.4481 23.4711 26.3103 22.4793 26.3103 17.0799V9.80716L27.3011 9.03581L27.0809 8.81543L26.2003 9.47658L23.4481 7.16253L20.3657 9.47658V0.440771H20.1456L16.2926 3.0854V3.30579C16.7329 3.52617 17.3934 3.74656 17.3934 4.95868L17.2834 17.4105V17.4105ZM37.4289 16.1983L34.6768 18.292L31.9247 16.0882V14.7658L37.0987 11.2397V11.1295L34.4566 7.16253L28.7322 10.2479V17.5207L27.6314 18.4022L27.8515 18.6226L28.8423 17.8512L32.5852 20.6061L37.539 16.6391L37.4289 16.1983V16.1983ZM31.9247 14.3251V8.92562L32.1448 8.81543L34.5667 12.6722L31.9247 14.3251ZM58.4552 1.76309C58.4552 1.43251 58.3451 1.10193 58.235 0.77135H58.0148C57.6846 1.65289 57.2442 2.09366 56.1434 2.09366C55.1526 2.09366 54.4921 1.5427 54.0518 1.10193L50.8593 4.73829L51.0795 4.95868L52.1803 3.96694C52.8408 4.51791 53.3913 4.95868 54.9325 5.06887V14.2149L48.4374 3.0854C47.887 2.20386 47.1164 0.991735 45.5752 0.991735C43.8139 0.991735 42.2727 2.53444 42.4928 4.95868H42.8231C42.9332 4.29752 43.2634 3.52617 44.034 3.52617C44.5845 3.52617 45.1349 4.07713 45.4651 4.6281V8.26446C43.4836 8.26446 42.1626 9.14601 42.1626 10.7989C42.1626 11.6804 42.6029 13.0028 43.924 13.3333V13.1129C43.7038 12.8926 43.5937 12.6722 43.5937 12.3416C43.5937 11.7906 44.034 11.3499 44.8046 11.3499H45.3551V15.978C43.0433 15.978 41.1718 17.3003 41.1718 19.5041C41.1718 21.5978 42.9332 22.5895 44.9147 22.4793V22.259C43.7038 22.1488 43.1534 21.5978 43.1534 20.8264C43.1534 19.8347 43.8139 19.3939 44.6945 19.3939C45.5752 19.3939 46.3458 19.9449 46.8962 20.6061L50.0887 17.0799L49.8685 16.8595L49.098 17.741C47.887 16.6391 47.2265 16.3085 45.7954 16.0882V5.06887L54.6022 20.4959H55.2627V5.06887C56.914 4.95868 58.4552 3.63636 58.4552 1.76309V1.76309ZM66.4914 16.1983L63.7393 18.292L60.9871 16.0882V14.7658L66.1611 11.2397V11.1295L63.5191 7.16253L57.7947 10.2479V17.5207L56.6938 18.4022L56.914 18.6226L57.9048 17.8512L61.6477 20.6061L66.6015 16.6391L66.4914 16.1983V16.1983ZM60.9871 14.3251V8.92562L61.2073 8.81543L63.6292 12.6722L60.9871 14.3251V14.3251ZM84.4353 8.37466L83.6647 8.92562L81.5731 7.16253L79.1512 9.36639L80.142 10.3581V18.6226L77.4999 16.9697V10.1377L78.3806 9.58678L75.8486 7.16253L73.4268 9.36639L74.4175 10.3581V18.292L74.0873 18.5124L71.7755 16.8595V10.2479C71.7755 8.70523 71.0049 8.26446 70.1242 7.7135C69.3536 7.16253 68.9133 6.83196 68.9133 6.06061C68.9133 5.39945 69.5738 5.06887 69.904 4.84848V4.6281C69.0234 4.6281 66.7116 5.50964 66.7116 7.60331C66.7116 8.70523 67.262 9.14601 67.8124 9.69697C68.3628 10.2479 68.9133 10.6887 68.9133 11.6804V18.0716L67.7023 18.9532L67.9225 19.1736L69.0234 18.292L71.5553 20.4959L74.3074 18.6226L77.3898 20.4959L83.2243 17.0799V9.69697L84.6554 8.59504L84.4353 8.37466V8.37466ZM104.911 2.31405L103.81 3.30579L101.388 1.10193L97.7556 3.74656V1.32231H97.4253L97.5354 19.1736C97.2051 19.1736 96.2144 18.9532 95.4438 18.7328L95.2236 3.85675C95.2236 2.75482 94.453 1.21212 92.4715 1.21212C90.4899 1.21212 89.1689 2.75482 89.1689 4.29752H89.4992C89.6093 3.63636 89.9395 3.0854 90.6 3.0854C91.2605 3.0854 91.811 3.52617 91.811 4.95868V9.2562C89.8294 9.36639 88.6185 10.4683 88.6185 11.9008C88.6185 12.7824 89.0588 14.1047 90.3799 14.1047V13.8843C89.9395 13.6639 89.8294 13.3333 89.8294 13.1129C89.8294 12.4518 90.3799 12.2314 91.2605 12.2314H91.7009V19.0634C90.0496 19.6143 89.3891 20.8264 89.3891 22.1488C89.3891 24.022 90.8202 25.3444 93.0219 25.3444C94.5631 25.3444 95.8841 25.124 97.2051 24.7934C98.306 24.573 99.7371 24.2424 100.398 24.2424C101.278 24.2424 101.609 24.6832 101.609 25.2342C101.609 26.0055 101.278 26.3361 100.838 26.4463V26.6667C102.599 26.3361 103.7 25.2342 103.7 23.5813C103.7 21.9284 102.049 20.9366 100.288 20.9366C99.4068 20.9366 97.5354 21.2672 96.2144 21.4876C94.6732 21.8182 93.132 22.0386 92.6916 22.0386C91.9211 22.0386 91.0404 21.708 91.0404 20.6061C91.0404 19.7245 91.811 18.9532 93.6824 18.9532C94.6732 18.9532 95.8841 19.0634 97.095 19.3939C98.4161 19.7245 99.627 20.0551 100.728 20.0551C102.379 20.0551 103.81 19.5041 103.81 17.1901V3.63636L105.131 2.53444L104.911 2.31405V2.31405ZM100.398 9.03581C100.067 9.36639 99.627 9.69697 99.0766 9.69697C98.5262 9.69697 97.9757 9.36639 97.7556 9.03581V4.18733L98.8564 3.41598L100.398 4.84848V9.03581ZM100.398 12.3416C100.177 12.1212 99.627 11.7906 99.0766 11.7906C98.5262 11.7906 97.9757 12.1212 97.7556 12.3416V9.47658C97.9757 9.69697 98.5262 10.0275 99.0766 10.0275C99.627 10.0275 100.177 9.69697 100.398 9.47658V12.3416ZM100.398 17.5207C100.398 18.4022 99.8472 19.2837 98.6362 19.2837H97.7556V12.7824C97.9757 12.562 98.5262 12.2314 99.0766 12.2314C99.627 12.2314 100.067 12.562 100.398 12.7824V17.5207V17.5207ZM115.479 9.69697L111.957 7.16253L106.562 10.2479V17.4105L105.462 18.292L105.572 18.5124L106.452 17.8512L109.975 20.4959L115.479 17.1901V9.69697V9.69697ZM109.535 16.6391V8.70523L112.287 10.6887V18.5124L109.535 16.6391V16.6391ZM125.937 7.38292H125.717C125.387 7.60331 125.057 7.82369 124.726 7.82369C124.286 7.82369 123.736 7.60331 123.515 7.27273H123.295L121.424 9.36639L119.552 7.27273L116.25 9.47658L116.36 9.69697L117.241 9.14601L118.341 10.3581V17.3003L116.91 18.4022L117.131 18.6226L117.791 18.0716L120.433 20.2755L123.846 17.9614L123.736 17.741L122.745 18.292L121.424 17.1901V9.47658C121.974 10.0275 122.635 10.5785 123.405 10.5785C124.947 10.6887 125.827 9.14601 125.937 7.38292V7.38292ZM139.148 17.9614L135.405 20.4959L130.341 12.7824L133.974 7.16253H134.194C134.634 7.60331 135.295 8.04408 136.065 8.04408C136.836 8.04408 137.386 7.60331 137.716 7.16253H137.937C137.827 9.36639 136.285 10.6887 135.184 10.6887C134.084 10.6887 133.533 10.1377 132.873 9.80716L132.542 10.3581L138.047 18.5124L139.148 17.8512V17.9614V17.9614ZM127.038 17.4105L125.607 18.5124L125.827 18.7328L126.488 18.1818L128.91 20.3857L132.212 18.1818L131.992 17.9614L131.111 18.5124L130.01 17.4105V0.440771H129.9L125.937 3.0854V3.30579C126.378 3.52617 127.038 3.63636 127.038 4.95868V17.4105V17.4105ZM157.422 2.75482C157.422 0.550964 155.33 0 153.679 0V0.330578C154.67 0.330578 155.44 0.661157 155.44 1.43251C155.44 1.87328 155.11 2.53444 154.119 2.53444C153.349 2.53444 151.697 2.09366 150.486 1.65289C149.055 1.21212 147.734 0.77135 146.633 0.77135C144.432 0.77135 142.89 2.42424 142.89 4.29752C142.89 5.95041 144.101 6.50138 144.542 6.72176L144.652 6.50138C144.322 6.28099 143.991 6.06061 143.991 5.39945C143.991 4.95868 144.432 4.18733 145.532 4.18733C146.523 4.18733 147.844 4.6281 149.606 5.17906C151.147 5.61983 152.798 5.95041 153.679 6.06061V9.47658L152.028 10.9091V11.0193L153.679 12.4518V17.1901C152.798 17.741 151.807 17.8512 150.927 17.8512C149.275 17.8512 147.844 17.4105 146.633 16.0882L151.147 13.8843V6.1708L145.643 8.59504C146.193 7.16253 147.404 6.1708 148.505 5.39945L148.395 5.17906C145.092 6.06061 142.12 9.03581 142.12 12.7824C142.12 17.1901 145.753 20.4959 149.826 20.4959C154.229 20.4959 157.091 16.9697 157.091 13.3333H156.871C156.211 14.7658 155.22 16.0882 154.009 16.7493V12.2314L155.77 10.7989V10.6887L154.119 9.2562V5.95041C155.77 5.95041 157.422 4.84848 157.422 2.75482V2.75482ZM147.844 14.876L146.523 15.5372C145.753 14.5455 145.312 13.2231 145.312 11.3499C145.312 10.5785 145.422 9.69697 145.643 9.03581L147.954 8.04408L147.844 14.876V14.876ZM161.275 1.65289H161.165L158.963 3.52617V3.63636L160.834 5.73003H161.054L163.256 3.85675V3.74656L161.275 1.65289V1.65289ZM164.577 17.9614L163.697 18.5124L162.596 17.4105V9.80716L163.697 9.03581L163.476 8.81543L162.706 9.47658L160.724 7.16253L157.532 9.36639L157.752 9.69697L158.523 9.14601L159.513 10.3581V17.5207L158.082 18.6226L158.192 18.843L158.963 18.292L161.385 20.4959L164.687 18.292L164.577 17.9614V17.9614ZM182.961 17.8512L182.191 18.4022L180.98 17.3003V9.80716L182.081 8.92562L181.861 8.70523L180.98 9.47658L178.448 7.16253L175.145 9.47658L172.613 7.16253L169.531 9.47658L167.55 7.16253L164.357 9.36639L164.467 9.69697L165.238 9.14601L166.339 10.3581V17.5207L165.458 18.4022L167.99 20.4959L170.412 18.292L169.421 17.3003V9.80716L170.412 9.14601L172.063 10.6887V17.3003L171.182 18.1818L173.714 20.2755L176.136 18.0716L175.145 17.0799V9.80716L176.026 9.2562L177.787 10.7989V17.4105L177.017 18.1818L179.549 20.4959L182.961 18.1818V17.8512V17.8512ZM192.539 16.1983L189.787 18.292L187.035 16.0882V14.7658L192.209 11.2397V11.1295L189.567 7.16253L183.842 10.2479V17.741L187.695 20.4959L192.649 16.5289L192.539 16.1983V16.1983ZM187.035 14.3251V8.92562L187.255 8.81543L189.677 12.6722L187.035 14.3251V14.3251ZM202.557 13.3333L200.465 11.6804C201.896 10.4683 202.446 8.81543 202.446 7.7135V7.05234H202.226C202.006 7.60331 201.566 8.15427 200.685 8.15427C199.804 8.15427 199.254 7.7135 198.704 7.05234L193.75 9.80716V13.7741L195.621 15.2066C193.75 16.8595 193.42 17.9614 193.42 18.843C193.42 19.9449 193.97 20.7163 194.851 21.0468L194.961 20.8264C194.741 20.6061 194.52 20.4959 194.52 19.9449C194.52 19.6143 194.961 19.0634 195.841 19.0634C196.942 19.0634 197.603 19.8347 197.933 20.1653L202.667 17.3003V13.3333H202.557V13.3333ZM201.346 10.0275C200.575 11.3499 198.924 12.6722 197.933 13.3333L196.722 12.3416V8.48485C197.162 9.58678 198.373 10.4683 199.584 10.4683C200.355 10.4683 200.795 10.3581 201.346 10.0275V10.0275ZM199.474 18.843C198.924 17.6309 197.603 16.7493 196.282 16.7493C195.951 16.7493 195.071 16.7493 194.19 17.3003C194.741 16.4187 196.172 14.876 198.043 13.7741L199.364 14.876L199.474 18.843V18.843Z" fill="var(--fill-0, #A0AAB0)"/>
</svg>
