<svg width="32" height="32" viewBox="0 0 32 32" fill="none" xmlns="http://www.w3.org/2000/svg">
<path d="M16.0005 2.66669C23.3637 2.66687 29.3335 8.63611 29.3335 16.0007C29.3333 23.3632 23.3636 29.3335 16.0005 29.3337C8.63659 29.3337 2.66668 23.3633 2.6665 16.0007C2.6665 8.63599 8.63648 2.66669 16.0005 2.66669ZM11.9341 15.905C11.9341 18.1341 13.8718 19.9244 16.0991 19.9245C18.3272 19.9245 20.1353 18.1199 20.1353 15.8913C20.1351 13.6635 18.3271 11.8688 16.0991 11.8561C15.1587 11.8524 14.5197 12.2761 13.9585 12.9118L13.9556 9.11688H11.9312L11.9341 15.905ZM7.30811 11.7438C5.08024 11.7441 3.27393 13.5506 3.27393 15.779C3.27398 18.0074 5.08028 19.8009 7.30811 19.8132C8.24951 19.8182 8.88939 19.3945 9.45068 18.7585V19.863L11.4771 19.8483L11.4741 15.7634C11.4739 13.5356 9.53606 11.7438 7.30811 11.7438ZM24.7759 11.7634C22.5459 11.7634 20.7408 13.5681 20.7407 15.7966C20.7407 18.0245 22.5459 19.8317 24.7759 19.8317C26.725 19.8315 28.3634 18.4739 28.7397 16.6354L26.7104 16.6452C26.4 17.38 25.6606 17.8696 24.812 17.8698C23.6824 17.8698 22.7651 16.9543 22.7651 15.8229C22.7653 14.6924 23.6825 13.7761 24.812 13.7761C25.6607 13.7762 26.3906 14.2716 26.7017 15.0065L28.73 15.0134C28.348 13.1818 26.7193 11.7636 24.7759 11.7634ZM7.33447 13.737C8.46404 13.737 9.38135 14.6525 9.38135 15.7839C9.38121 16.9145 8.46395 17.8317 7.33447 17.8317C6.20313 17.8317 5.28578 16.9144 5.28564 15.7839C5.28564 14.6532 6.20305 13.737 7.33447 13.737ZM16.0474 13.737C17.1782 13.737 18.0952 14.6538 18.0952 15.7839C18.0951 16.9145 17.1781 17.8317 16.0474 17.8317C14.9167 17.8317 14.0006 16.9144 14.0005 15.7839C14.0005 14.6538 14.9166 13.737 16.0474 13.737Z" fill="#A0AAB0"/>
</svg>
