<svg preserveAspectRatio="none" width="100%" height="100%" overflow="visible" style="display: block;" viewBox="0 0 27.9002 28" fill="none" xmlns="http://www.w3.org/2000/svg">
<g id="Symbol">
<path id="Vector" fill-rule="evenodd" clip-rule="evenodd" d="M15.8984 5.80888L13.9504 0C21.6593 0.0267992 27.9002 6.28443 27.9002 14C27.9002 21.7198 21.665 27.98 13.9504 28L15.8848 22.1943C19.5827 21.302 22.3301 17.9722 22.3301 14C22.3301 10.0327 19.5895 6.70611 15.8984 5.80888Z" fill="var(--fill-0, #3392FF)"/>
<path id="Vector_2" fill-rule="evenodd" clip-rule="evenodd" d="M12.0019 5.80888L13.9499 0C6.24092 0.0267992 0 6.28443 0 14C0 21.7198 6.23523 27.98 13.9499 28L12.0154 22.1943C8.31755 21.302 5.57008 17.9722 5.57008 14C5.57008 10.0327 8.31077 6.70611 12.0019 5.80888Z" fill="var(--fill-0, #3392FF)"/>
</g>
</svg>
