<svg preserveAspectRatio="none" width="100%" height="100%" overflow="visible" style="display: block;" viewBox="0 0 80.9144 15.9381" fill="none" xmlns="http://www.w3.org/2000/svg">
<g id="Wordmark">
<path id="Vector" fill-rule="evenodd" clip-rule="evenodd" d="M23.1385 7.96862C23.1385 3.46843 26.5618 0 30.8092 0C35.0776 0 38.4798 3.46843 38.4798 7.96862C38.4798 12.4688 35.0776 15.9372 30.8092 15.9372C26.5618 15.9372 23.1385 12.4688 23.1385 7.96862ZM35.9873 7.96785C35.9873 4.85066 33.7683 2.41393 30.8097 2.41393C27.851 2.41393 25.6321 4.85066 25.6321 7.96785C25.6321 11.085 27.851 13.5217 30.8097 13.5217C33.7683 13.5217 35.9873 11.085 35.9873 7.96785Z" fill="var(--fill-0, #3A444A)"/>
<path id="Vector_2" d="M1.8598 11.6574L0 13.2819C0.950987 14.8844 2.78958 15.9381 5.05089 15.9381C7.94614 15.9381 9.82691 14.1379 9.82691 11.5036C9.82691 9.33049 8.43224 7.96945 6.38229 7.04744L5.21995 6.49862C3.71948 5.84006 3.04311 5.1157 3.04311 4.10588C3.04311 3.0302 4.01531 2.41553 5.0298 2.41553C6.10755 2.41553 6.7838 2.83263 7.56572 3.79854L9.25634 1.97656C8.1575 0.61551 6.7838 0.000830849 5.05089 0.000830849C2.76849 0.000830849 0.591778 1.62525 0.591778 4.12784C0.591778 6.14738 1.71183 7.64016 3.97301 8.6719L5.15657 9.19882C6.63595 9.87923 7.33328 10.5598 7.33328 11.7232C7.33328 12.8428 6.48785 13.5233 5.0298 13.5233C3.71948 13.5233 2.55713 12.6452 1.8598 11.6574Z" fill="var(--fill-0, #3A444A)"/>
<path id="Vector_3" fill-rule="evenodd" clip-rule="evenodd" d="M16.6739 0.176464H12.1937V15.7624H14.645V10.0989H16.6739C19.7805 10.0989 21.9149 8.03532 21.9149 5.13766C21.9149 2.19602 19.7805 0.176464 16.6739 0.176464ZM19.4209 5.13724C19.4209 6.6958 18.3643 7.72756 16.568 7.72756H14.6449V2.54692H16.568C18.3643 2.54692 19.4209 3.57861 19.4209 5.13724Z" fill="var(--fill-0, #3A444A)"/>
<path id="Vector_4" d="M43.406 0.176988H40.9545V15.763H43.406V8.40911L50.1052 15.763H53.2752L46.2802 8.05779L52.6413 0.176988H49.7248L43.406 8.01389V0.176988Z" fill="var(--fill-0, #3A444A)"/>
<path id="Vector_5" d="M54.944 0.176988H63.8411V2.67958H57.3955V6.63087H62.573V9.08952H57.3955V13.2605H63.8411V15.763H54.944V0.176988Z" fill="var(--fill-0, #3A444A)"/>
<path id="Vector_6" fill-rule="evenodd" clip-rule="evenodd" d="M73.2437 0C68.9963 0 65.573 3.46843 65.573 7.96862C65.573 12.4688 68.9963 15.9372 73.2437 15.9372C77.5122 15.9372 80.9144 12.4688 80.9144 7.96862C80.9144 3.46843 77.5122 0 73.2437 0ZM73.2442 2.41393C76.2028 2.41393 78.4219 4.85066 78.4219 7.96785C78.4219 11.085 76.2028 13.5217 73.2442 13.5217C70.2854 13.5217 68.0667 11.085 68.0667 7.96785C68.0667 4.85066 70.2854 2.41393 73.2442 2.41393Z" fill="var(--fill-0, #3A444A)"/>
</g>
</svg>
