<svg width="32" height="32" viewBox="0 0 32 32" fill="none" xmlns="http://www.w3.org/2000/svg">
<path d="M15.9995 2.66669C23.3633 2.66669 29.3335 8.64053 29.3335 16.0095L29.3296 16.3171C29.1567 23.5269 23.2668 29.3235 16.0181 29.3337H15.9995C8.64176 29.3191 2.68085 23.3537 2.6665 15.9909C2.69093 8.6352 8.64901 2.68107 15.9995 2.66669ZM15.9995 7.99969C13.2501 7.97949 10.5594 8.79677 8.28467 10.3425C6.17778 11.7231 4.50786 13.6758 3.47021 15.9724C4.51168 18.275 6.18006 20.2378 8.28467 21.6354C10.567 23.1609 13.2551 23.9648 15.9995 23.944C18.7329 23.9677 21.4099 23.1632 23.6772 21.6354C25.7982 20.2461 27.4817 18.2822 28.5298 15.9724C27.4855 13.6689 25.8006 11.7145 23.6772 10.3425C21.4173 8.79512 18.7377 7.97711 15.9995 7.99969ZM11.0142 10.9724C13.7757 8.20902 18.2528 8.20918 21.0142 10.9724C22.3712 12.2774 23.1243 14.089 23.0923 15.9724C23.0939 19.8818 19.9279 23.0527 16.021 23.0544C14.1429 23.0552 12.3417 22.3084 11.0142 20.9792C8.25307 18.2157 8.25294 13.7355 11.0142 10.9724Z" fill="#A0AAB0"/>
</svg>
