<svg preserveAspectRatio="none" width="100%" height="100%" overflow="visible" style="display: block;" viewBox="0 0 85.333 26.6663" fill="none" xmlns="http://www.w3.org/2000/svg">
<path id="Union" d="M80.6396 0C81.336 0 82.5796 0.103427 83.6943 0.726562C83.6995 0.728916 84.3214 1.03089 84.7656 1.49414C84.7693 1.49773 84.7727 1.50227 84.7764 1.50586C84.8045 1.53523 84.8313 1.56523 84.8574 1.5957C84.8978 1.64193 84.9353 1.69014 84.9697 1.74023C84.9873 1.76533 85.0053 1.79049 85.0215 1.81641C85.0337 1.83663 85.0453 1.85785 85.0566 1.87891C85.0767 1.91449 85.0949 1.95035 85.1113 1.9873C85.1252 2.01857 85.1392 2.05064 85.1514 2.08301V2.08496L85.1523 2.08594C85.247 2.33516 85.2821 2.6067 85.2432 2.87891L85.1719 3.37402L83.6553 14.0205L83.9854 14.2832C84.6003 14.7742 85.333 15.6651 85.333 17.1191C85.3329 18.1285 84.8849 21.4238 79.1123 21.4238C78.2126 21.4238 77.4154 21.2256 76.7598 20.8662C75.923 21.2145 74.9679 21.3975 73.9277 21.3975C72.4751 21.3975 71.2436 21.0989 70.248 20.54C70.1497 20.5957 70.056 20.6554 69.9512 20.7061C68.9659 21.1779 67.6884 21.3975 65.9297 21.3975C63.9441 21.3974 62.6324 20.6154 61.9131 19.5352C60.5777 20.4593 58.9259 21.0455 57.0303 21.2148L56.6133 24.2773L56.5391 24.8213C56.4543 25.4431 56.0121 25.9605 55.4014 26.1602C54.5981 26.4231 53.4006 26.7125 52.1328 26.6602C49.1386 26.5357 47.7949 24.6579 47.7949 22.6738C47.7949 22.3087 47.8461 21.9097 47.9258 21.3789C47.5672 21.4055 47.1919 21.4238 46.7861 21.4238C46.347 21.4238 45.2176 21.4241 44.1982 20.8301C43.2549 21.2107 42.1649 21.3974 40.9189 21.3975C39.1075 21.3975 37.8084 20.8999 36.9209 20.1367C35.7015 20.9343 34.0631 21.4512 32.0234 21.4512C30.1746 21.4511 28.6375 21.0918 27.4385 20.3984C26.5254 20.9839 25.1564 21.3975 23.1064 21.3975C21.9757 21.3974 21.1403 21.1127 20.4961 20.6592L19.4648 21.0303C18.7669 21.281 17.8694 21.3974 16.6396 21.3975C15.1665 21.3975 13.9867 20.9026 13.2363 20.0381C11.7439 20.9512 9.87597 21.4512 7.72168 21.4512C2.88626 21.4511 6.10732e-05 18.7578 0 14.248C0 8.82615 3.71693 5.1828 9.25 5.18262C11.0479 5.18262 12.5662 5.52659 13.7822 6.17188L14.041 4.25684C14.41 1.43254 15.9914 9.20944e-05 18.7412 0C19.3938 0 20.5281 0.0907712 21.5859 0.616211L21.7959 0.726562C21.8159 0.736307 22.5527 1.09631 22.9893 1.63086C22.9986 1.64247 23.0092 1.65385 23.0186 1.66602C23.0606 1.7203 23.0978 1.77735 23.1328 1.83496L23.1338 1.83594C23.1685 1.89381 23.1986 1.95303 23.2236 2.01367C23.2276 2.02271 23.2317 2.03171 23.2354 2.04102C23.241 2.05542 23.2478 2.07028 23.2529 2.08496C23.2566 2.09543 23.2569 2.10334 23.2598 2.11328C23.3453 2.35234 23.3783 2.60957 23.3428 2.86914L23.2744 3.36133L22.9932 5.41504C23.4783 5.29121 24.014 5.23733 24.6348 5.2373C26.59 5.2373 27.7648 5.79824 28.4717 6.50977C29.9064 5.67275 31.6661 5.21094 33.6885 5.21094C35.2073 5.21097 36.3229 5.46845 37.1543 5.85938C38.0585 5.46649 39.1964 5.28906 40.8379 5.28906C41.9034 5.28908 43.4113 5.4162 44.4668 6.4668C45.1287 5.76636 46.1569 5.2373 47.7686 5.2373C48.2965 5.23731 49.4522 5.30413 50.5361 5.77734C51.4081 5.4425 52.4951 5.28909 54.0156 5.28906C54.7961 5.28906 55.7092 5.35204 56.5264 5.71777C57.2567 5.41778 58.1307 5.23734 59.1738 5.2373C60.5414 5.2373 61.7137 5.54576 62.6729 6.11621C62.8202 6.02896 62.9735 5.94605 63.1367 5.87402C63.2791 5.81061 63.4271 5.75226 63.582 5.7002C63.4928 5.34732 63.4473 4.97055 63.4473 4.57227C63.4473 1.99576 65.5463 0.0537109 68.3311 0.0537109C70.9324 0.0537563 72.7498 1.78003 72.75 4.25293C72.75 4.85224 72.6362 5.41079 72.4346 5.91895C73.4509 5.48366 74.5308 5.26367 75.5918 5.26367C75.6601 5.26367 75.7287 5.26382 75.7979 5.26465L75.9404 4.25684C76.3088 1.43247 77.8906 2.3293e-05 80.6396 0ZM59.1963 7.73535C57.7766 7.73535 56.4948 8.1335 55.7578 9.99512L55.9209 9.01172C56.0568 8.13345 55.6211 7.78811 54.0381 7.78809C51.6098 7.78809 50.5459 8.21427 50.5459 9.38379C50.5459 9.72915 50.6004 10.0747 50.792 10.3408L52.0469 10.3135L50.5723 21.1592C50.4634 21.8763 50.3809 22.3815 50.3809 22.6738C50.3809 23.6843 50.9552 24.1621 52.1553 24.1621C52.7283 24.1621 53.5745 24.1356 54.0918 23.9492L54.8018 18.7402C55.0478 18.7666 55.5939 18.7666 55.8945 18.7666C60.2331 18.7666 63.0155 16.3213 63.0156 12.1484C63.0156 9.27668 61.8426 7.73546 59.1963 7.73535ZM9.27246 7.68164C5.04229 7.6817 2.58594 10.3137 2.58594 14.248C2.586 17.623 4.63378 18.9531 7.74414 18.9531C12.11 18.953 14.621 16.4544 14.6211 12.4404C14.6211 9.59573 13.2285 7.68164 9.27246 7.68164ZM33.71 7.70898C29.5896 7.70903 26.9697 10.0743 26.9697 14.2744C26.9698 17.6501 28.7438 18.9531 32.0459 18.9531C35.1292 18.9531 36.3847 18.1555 36.3848 16.7998C36.3848 16.4011 36.1935 15.8698 35.8115 15.6836C34.7741 16.055 33.8191 16.2412 33 16.2412C31.5546 16.2412 31.0089 15.6034 31.0088 13.8496C31.0088 11.4571 32.1278 10.3408 34.0928 10.3408C35.1023 10.3408 35.7579 10.4462 36.3848 10.6318C36.7389 10.3667 36.9306 10.0476 36.9307 9.48926C36.9307 8.47988 36.303 7.70898 33.71 7.70898ZM47.79 7.73535C46.4261 7.73542 46.0167 8.16052 45.7988 9.83496L45.0605 15.1523C44.5434 15.9763 43.7242 16.3213 42.96 16.3213C42.223 16.3213 41.9229 16.1348 41.9229 15.6035C41.9229 15.1522 42.0591 14.2744 42.1953 13.5303L42.8779 9.38379C43.0688 8.29325 42.6596 7.7881 40.8594 7.78809C38.4302 7.78809 37.3652 8.21427 37.3652 9.38379C37.3653 9.72915 37.4203 10.0747 37.6387 10.3408L38.8936 10.3135L38.2129 13.9287C37.9666 15.178 37.9111 15.6572 37.9111 16.4014C37.9113 18.129 39.0038 18.8994 40.9404 18.8994C43.2046 18.8994 44.3789 18.1553 45.1699 16.7461L45.0889 17.2773C44.898 18.5267 45.471 18.9258 46.8076 18.9258C49.4539 18.9258 50.7098 18.3669 50.71 17.1191C50.71 16.7737 50.5739 16.4271 50.2734 16.2148C49.9464 16.2938 49.5636 16.3213 49.3184 16.3213C48.9907 16.3213 48.8818 16.1607 48.8818 15.9756C48.8819 15.5233 48.9636 15.0443 49.0176 14.5928L49.8906 8.2666C49.4273 7.92082 48.5541 7.73535 47.79 7.73535ZM80.6621 2.49902C79.2974 2.49904 78.7254 2.89798 78.5059 4.57227L77.9883 8.2666C77.5238 7.92082 76.7866 7.76172 75.6133 7.76172C72.475 7.76173 69.9366 10.1539 69.9365 14.7529C69.9365 17.8101 71.4109 18.8994 73.9492 18.8994C75.3947 18.8994 76.7866 18.3944 77.4414 16.959C77.4156 17.0923 77.3868 17.3304 77.3867 17.3838C77.3867 18.5 78.0969 18.9257 79.1338 18.9258C81.3981 18.9258 82.7899 18.3417 82.79 17.1191C82.79 16.7191 82.6809 16.4545 82.3809 16.2148C82.0808 16.2938 81.6448 16.3213 81.3984 16.3213C80.9893 16.3212 80.9072 16.1343 80.9072 15.8691C80.9073 15.5503 80.9351 15.0715 81.0713 14.1406L82.6543 3.03125C82.1909 2.6849 81.4258 2.49902 80.6621 2.49902ZM18.7627 2.49902C17.3979 2.4991 16.8252 2.89808 16.6064 4.57227L15.0791 15.8955C14.9699 16.6134 14.915 17.119 14.915 17.4102C14.915 18.4217 15.4611 18.8994 16.6611 18.8994C17.2351 18.8994 18.0804 18.8726 18.5986 18.6865L19.2812 13.6895L21.1094 17.3311C21.6828 18.5269 22.0648 18.8994 23.1289 18.8994C25.3937 18.8994 26.6756 18.3669 26.6758 17.1191C26.6758 16.7737 26.5667 16.401 26.2939 16.2148C25.9676 16.2938 25.558 16.3213 25.3125 16.3213C25.0118 16.3213 24.8748 16.1344 24.7383 15.9219L22.8828 12.6523C24.4934 10.5004 24.8205 10.3672 25.3936 10.3672C25.7208 10.3672 26.1302 10.3673 26.5391 10.3936C26.8124 10.101 26.9765 9.72901 26.9766 9.1709C26.9766 8.2142 26.3757 7.73538 24.6572 7.73535C23.02 7.73535 22.7204 8.00164 19.4727 12.3877L20.7549 3.03125C20.2915 2.6849 19.5259 2.49902 18.7627 2.49902ZM66.8789 7.78809C64.4506 7.78809 63.3857 8.21427 63.3857 9.38379C63.3858 9.72915 63.4397 10.0747 63.6592 10.3408L64.9141 10.3135L63.9873 15.4971C63.9048 16.0549 63.8233 16.7993 63.8232 17.251C63.8232 18.3939 64.6144 18.8994 65.9521 18.8994C68.5987 18.8994 69.7439 18.3417 69.7441 17.0928C69.7441 16.7468 69.6079 16.4271 69.3076 16.2148C68.9802 16.2938 68.5433 16.3213 68.2979 16.3213C67.9711 16.3211 67.8877 16.1344 67.8877 15.9482C67.8878 15.6028 68.0794 14.7528 68.2705 13.5303L68.8994 9.38379C69.063 8.2933 68.6797 7.78815 66.8789 7.78809ZM57.5586 10.2871C58.7044 10.2872 59.1963 10.9261 59.1963 12.6006C59.1961 15.2574 57.8851 16.4277 56.166 16.4277C55.7033 16.4277 55.3749 16.401 55.1025 16.3213L55.8662 11.0322C56.2215 10.58 56.8498 10.2871 57.5586 10.2871ZM9.05566 10.2598C10.4746 10.2598 10.9111 11.032 10.9111 12.5996C10.9111 15.018 9.7646 16.4265 8.26465 16.4268C6.92778 16.4268 6.46388 15.7096 6.46387 14.1143C6.46387 11.9082 7.39138 10.2598 9.05566 10.2598ZM76.542 10.2344C76.9787 10.2344 77.3345 10.2609 77.6885 10.4209L76.9795 15.7363C76.5981 16.1352 76.0519 16.3476 75.4521 16.3477C74.4146 16.3477 73.7872 15.8965 73.7871 14.249C73.7871 11.617 74.8773 10.2346 76.542 10.2344ZM68.3525 2.55176C66.907 2.55177 66.0322 3.42824 66.0322 4.57227C66.0322 5.87354 66.9327 6.22063 67.9424 6.2207C69.3612 6.2207 70.207 5.42217 70.207 4.25293C70.2069 3.26926 69.6346 2.55176 68.3525 2.55176Z" fill="var(--fill-0, black)"/>
</svg>
