<svg width="50" height="32" viewBox="0 0 50 32" fill="none" xmlns="http://www.w3.org/2000/svg">
<path fill-rule="evenodd" clip-rule="evenodd" d="M6.62676 19.7451C7.87901 19.1616 9.54909 19.3284 10.6346 19.9951L21.991 28L8.46367 27.916C7.04439 27.9159 5.79173 27.3328 4.95684 26.249C3.95497 25.1652 3.70507 23.4144 4.37285 21.9971C4.79031 20.9966 5.62488 20.162 6.62676 19.7451ZM38.5223 20.1621C39.6077 19.4952 41.2776 19.3286 42.5301 19.9121C43.532 20.329 44.3675 21.1626 44.785 22.1631C45.2859 23.3304 45.202 25.3312 44.2 26.415C43.1981 27.4989 42.113 27.999 40.7771 27.999H27.1668L38.5223 20.1621ZM33.8484 11.9912C34.8504 10.3238 36.5208 9.49012 38.2742 9.74024C39.5266 10.0738 40.7792 10.9081 41.4471 12.0752C42.1148 13.3259 42.031 15.2434 41.1961 16.3272C40.6117 17.1607 39.7771 17.5777 39.1092 18.1611L27.5857 26.082L27.7527 25.665L33.8484 11.9912ZM10.0496 10.0733C12.137 9.32288 14.3919 10.157 15.4773 11.9912L21.823 25.9981H21.6561L8.88067 17.2442C7.46147 16.2437 6.87706 14.5761 7.54473 12.9922C7.79521 11.7416 8.79722 10.6569 10.0496 10.0733ZM27.3348 4.65431C28.8377 3.82058 30.9251 3.98754 32.1775 5.0713C32.6785 5.48818 33.096 5.98865 33.3465 6.57228C34.0979 7.98965 33.6805 9.65687 32.8455 11.0742L27.4188 23.2471L25.4979 10.9072C25.1642 9.74026 26.5833 9.2398 27.3348 8.65626C27.168 8.57303 27.0846 8.57279 26.9178 8.40626H25.0809C25.0809 6.90558 25.9154 5.32138 27.3348 4.65431ZM16.7303 5.15431C17.8158 4.07068 19.8193 3.65441 21.3221 4.3213C22.157 4.73816 22.9925 5.32124 23.41 6.23829C23.8275 7.07205 24.1609 7.98973 23.9939 8.99024L21.74 23.0801L21.1551 21.9131L15.6443 9.57325C15.06 7.90585 15.6449 6.23812 16.7303 5.15431Z" fill="#A0AAB0"/>
</svg>
