<svg preserveAspectRatio="none" width="100%" height="100%" overflow="visible" style="display: block;" viewBox="0 0 16 13" fill="none" xmlns="http://www.w3.org/2000/svg">
<path id="Shape" fill-rule="evenodd" clip-rule="evenodd" d="M5.7587 4.31291e-07H10.2413C11.0463 -1.23241e-05 11.7106 -2.28137e-05 12.2518 0.0441945C12.8139 0.0901197 13.3306 0.188684 13.816 0.435975C14.5686 0.819468 15.1805 1.43139 15.564 2.18404C15.8113 2.66937 15.9099 3.18608 15.9558 3.74817C16 4.28938 16 4.95374 16 5.75873V7.24128C16 8.04626 16 8.71063 15.9558 9.25183C15.9099 9.81392 15.8113 10.3306 15.564 10.816C15.1805 11.5686 14.5686 12.1805 13.816 12.564C13.3306 12.8113 12.8139 12.9099 12.2518 12.9558C11.7106 13 11.0463 13 10.2413 13H5.75873C4.95374 13 4.28938 13 3.74818 12.9558C3.18608 12.9099 2.66937 12.8113 2.18404 12.564C1.43139 12.1805 0.819468 11.5686 0.435975 10.816C0.188684 10.3306 0.0901197 9.81392 0.0441945 9.25183C-2.28137e-05 8.71063 -1.23241e-05 8.04627 4.31291e-07 7.2413V5.7587C-1.23241e-05 4.95373 -2.28137e-05 4.28937 0.0441945 3.74817C0.0901197 3.18608 0.188684 2.66937 0.435975 2.18404C0.819468 1.43139 1.43139 0.819468 2.18404 0.435975C2.66937 0.188684 3.18608 0.0901197 3.74817 0.0441945C4.28937 -2.28137e-05 4.95373 -1.23241e-05 5.7587 4.31291e-07ZM3.91104 2.03755C3.47262 2.07337 3.24842 2.1383 3.09202 2.21799C2.7157 2.40973 2.40973 2.7157 2.21799 3.09202C2.1383 3.24842 2.07337 3.47262 2.03755 3.91104C2.00078 4.36113 2 4.94342 2 5.8V7.2C2 8.05658 2.00078 8.63887 2.03755 9.08896C2.07337 9.52738 2.1383 9.75158 2.21799 9.90798C2.40973 10.2843 2.7157 10.5903 3.09202 10.782C3.24842 10.8617 3.47262 10.9266 3.91104 10.9624C4.36113 10.9992 4.94342 11 5.8 11H10.2C11.0566 11 11.6389 10.9992 12.089 10.9624C12.5274 10.9266 12.7516 10.8617 12.908 10.782C13.2843 10.5903 13.5903 10.2843 13.782 9.90798C13.8617 9.75158 13.9266 9.52738 13.9624 9.08896C13.9992 8.63887 14 8.05658 14 7.2V5.8C14 4.94342 13.9992 4.36113 13.9624 3.91104C13.9266 3.47262 13.8617 3.24842 13.782 3.09202C13.5903 2.7157 13.2843 2.40973 12.908 2.21799C12.7516 2.1383 12.5274 2.07337 12.089 2.03755C11.6389 2.00078 11.0566 2 10.2 2H5.8C4.94342 2 4.36113 2.00078 3.91104 2.03755Z" fill="var(--fill-0, #365080)"/>
</svg>
