<svg preserveAspectRatio="none" width="100%" height="100%" overflow="visible" style="display: block;" viewBox="0 0 90.6242 17.8506" fill="none" xmlns="http://www.w3.org/2000/svg">
<g id="Wordmark">
<path id="Vector" fill-rule="evenodd" clip-rule="evenodd" d="M25.9151 8.92485C25.9151 3.88464 29.7492 0 34.5063 0C39.2869 0 43.0974 3.88464 43.0974 8.92485C43.0974 13.9651 39.2869 17.8497 34.5063 17.8497C29.7492 17.8497 25.9151 13.9651 25.9151 8.92485ZM40.3058 8.92399C40.3058 5.43274 37.8205 2.7036 34.5068 2.7036C31.1931 2.7036 28.708 5.43274 28.708 8.92399C28.708 12.4152 31.1931 15.1443 34.5068 15.1443C37.8205 15.1443 40.3058 12.4152 40.3058 8.92399Z" fill="var(--fill-0, #3A444A)"/>
<path id="Vector_2" d="M2.08298 13.0562L0 14.8757C1.06511 16.6704 3.12433 17.8506 5.65699 17.8506C8.89969 17.8506 11.0061 15.8343 11.0061 12.884C11.0061 10.45 9.44412 8.92568 7.14817 7.89304L5.84634 7.27836C4.16582 6.54076 3.40828 5.72949 3.40828 4.59849C3.40828 3.39372 4.49714 2.7053 5.63338 2.7053C6.84046 2.7053 7.59786 3.17245 8.47361 4.25427L10.3671 2.21365C9.1364 0.689271 7.59786 0.000831136 5.65699 0.000831136C3.10071 0.000831136 0.662791 1.82018 0.662791 4.62308C0.662791 6.88497 1.91724 8.55689 4.44977 9.71242L5.77536 10.3026C7.43226 11.0646 8.21328 11.8268 8.21328 13.1299C8.21328 14.3838 7.26639 15.146 5.63338 15.146C4.16582 15.146 2.86399 14.1625 2.08298 13.0562Z" fill="var(--fill-0, #3A444A)"/>
<path id="Vector_3" fill-rule="evenodd" clip-rule="evenodd" d="M18.6748 0.197639H13.6569V17.6539H16.4024V11.3108H18.6748C22.1542 11.3108 24.5447 8.99956 24.5447 5.75418C24.5447 2.45954 22.1542 0.197639 18.6748 0.197639ZM21.7514 5.75371C21.7514 7.49929 20.568 8.65487 18.5561 8.65487H16.4023V2.85255H18.5561C20.568 2.85255 21.7514 4.00805 21.7514 5.75371Z" fill="var(--fill-0, #3A444A)"/>
<path id="Vector_4" d="M48.6147 0.198226H45.8691V17.6545H48.6147V9.4182L56.1178 17.6545H59.6682L51.8338 9.02472L58.9582 0.198226H55.6918L48.6147 8.97555V0.198226Z" fill="var(--fill-0, #3A444A)"/>
<path id="Vector_5" d="M61.5373 0.198226H71.502V3.00113H64.283V7.42657H70.0818V10.1803H64.283V14.8518H71.502V17.6545H61.5373V0.198226Z" fill="var(--fill-0, #3A444A)"/>
<path id="Vector_6" fill-rule="evenodd" clip-rule="evenodd" d="M82.0329 0C77.2759 0 73.4418 3.88464 73.4418 8.92485C73.4418 13.9651 77.2759 17.8497 82.0329 17.8497C86.8136 17.8497 90.6241 13.9651 90.6241 8.92485C90.6241 3.88464 86.8136 0 82.0329 0ZM82.0335 2.7036C85.3472 2.7036 87.8325 5.43274 87.8325 8.92399C87.8325 12.4152 85.3472 15.1443 82.0335 15.1443C78.7197 15.1443 76.2347 12.4152 76.2347 8.92399C76.2347 5.43274 78.7197 2.7036 82.0335 2.7036Z" fill="var(--fill-0, #3A444A)"/>
</g>
</svg>
