<svg preserveAspectRatio="none" width="100%" height="100%" overflow="visible" style="display: block;" viewBox="0 0 124 16.0005" fill="none" xmlns="http://www.w3.org/2000/svg">
<g id="Group 4301">
<path id="Union" d="M44.3379 0.067911C49.2744 0.181392 54.0427 1.76863 54.0429 5.34037H47.0302V5.39701C46.6374 3.6963 45.347 3.24283 43.7763 3.12943C38.8397 2.6759 37.998 6.41778 37.998 8.00541C37.998 10.727 38.7276 12.8814 43.6084 12.8814C44.5622 12.8812 46.9742 11.9178 46.9746 10.4439H53.9863C53.7055 14.9795 46.245 16.0005 42.9912 16.0005C36.2591 16.0005 30.4802 14.7526 30.7607 8.00541C30.9291 3.18603 35.418 -0.158884 44.3379 0.067911ZM114.238 0.0112704C119.175 0.124666 124 1.71188 124 5.28373H116.932V5.39701C116.539 3.69639 115.248 3.24287 113.678 3.12943C108.741 2.67585 107.899 6.41782 107.899 7.94877C107.899 10.6703 108.628 12.8247 113.509 12.8247C114.462 12.8247 116.875 11.8613 116.875 10.3872H123.888C123.607 14.9229 116.145 15.9439 112.892 15.9439C106.16 15.9438 100.382 14.6958 100.662 7.94877C100.83 3.12942 105.318 -0.215492 114.238 0.0112704ZM72.1074 11.3501H72.2197V0.407755H77.998V15.5464H69.3584L61.2802 4.60307H61.1679V15.5464H55.3339C55.3339 15.5896 55.3339 0.447673 55.3339 0.407755H64.3652L72.1074 11.3501ZM90.7314 0.407755C96.0608 0.407795 99.0898 1.9387 99.0898 4.14994C99.0897 5.454 97.7998 7.15533 94.8828 7.60893C98.3043 7.77907 99.651 10.046 99.6513 11.3501C99.6513 14.0717 96.6779 15.4898 90.7314 15.4898H79.7353V0.407755H90.7314ZM86.2431 12.4283H86.1875V12.4849H88.038C91.4041 12.4849 92.6943 12.0876 92.6943 10.9537C92.6942 9.70636 91.1239 9.2525 88.5996 9.25248H86.2431V12.4283ZM86.2431 6.36088H88.038C90.8429 6.36088 92.3015 6.19102 92.3017 4.94389C92.3017 3.69654 91.0679 3.24274 88.5996 3.24272H86.2431V6.36088Z" fill="var(--fill-0, #A0AAB0)"/>
<g id="Group">
<path id="Vector" d="M19.1312 1.71492C18.9679 1.32583 18.6957 0.992329 18.3691 0.714409C17.5526 -0.00818155 16.1917 -0.119349 15.2119 0.43649C14.2865 0.881161 13.7422 1.93726 13.7422 2.93777H14.9397C15.0486 3.04893 15.103 3.04893 15.2119 3.10452C14.722 3.4936 13.7966 3.82711 14.0144 4.60528L15.2663 12.8317L18.8046 4.71645C19.3489 3.77152 19.6211 2.65985 19.1312 1.71492Z" fill="var(--fill-0, #A0AAB0)"/>
<path id="Vector_2" d="M11.5657 12.7205L13.0354 3.32685C13.1442 2.65984 12.9265 2.04842 12.6543 1.49258C12.3822 0.881153 11.8378 0.492066 11.2935 0.214146C10.3137 -0.230525 9.00724 0.0473947 8.2996 0.769986C7.59195 1.49258 7.21092 2.60425 7.59195 3.71593L11.1846 11.9424L11.5657 12.7205Z" fill="var(--fill-0, #A0AAB0)"/>
<path id="Vector_3" d="M24.4124 5.38332C24.8479 6.21708 24.7934 7.49551 24.2491 8.2181C23.868 8.77394 23.3237 9.05186 22.8882 9.44095L15.3763 14.7214L15.4852 14.4435L19.4589 5.32774C20.1121 4.21606 21.2008 3.66022 22.3439 3.82697C23.1604 4.04931 23.9769 4.60515 24.4124 5.38332Z" fill="var(--fill-0, #A0AAB0)"/>
<path id="Vector_4" d="M3.18088 8.82969L11.5093 14.666H11.6182L7.48118 5.3279C6.77354 4.10506 5.30382 3.54922 3.94296 4.04947C3.12645 4.43856 2.47324 5.16115 2.30994 5.99491C1.87446 7.05101 2.2555 8.16268 3.18088 8.82969Z" fill="var(--fill-0, #A0AAB0)"/>
<path id="Vector_5" d="M26.2074 14.9435C26.8606 14.2209 26.9151 12.8869 26.5885 12.1088C26.3163 11.4418 25.772 10.8859 25.1188 10.608C24.3022 10.2189 23.2136 10.3301 22.5059 10.7747L15.1029 15.9996H23.9756C24.8466 15.9996 25.5542 15.6661 26.2074 14.9435Z" fill="var(--fill-0, #A0AAB0)"/>
<path id="Vector_6" d="M11.7287 15.9999L4.32561 10.6638C3.61796 10.2192 2.52928 10.108 1.71277 10.4971C1.05956 10.775 0.515215 11.3308 0.243044 11.9978C-0.192429 12.9428 -0.0291269 14.11 0.624083 14.8326C1.16843 15.5552 1.98494 15.9443 2.91032 15.9443L11.7287 15.9999Z" fill="var(--fill-0, #A0AAB0)"/>
</g>
</g>
</svg>
