<svg preserveAspectRatio="none" width="100%" height="100%" overflow="visible" style="display: block;" viewBox="0 0 138.667 26.6667" fill="none" xmlns="http://www.w3.org/2000/svg">
<path id="Vector" d="M8.78453 26.2557H3.55943V13.3134H0V9.09969H3.5593V6.10132C3.5593 2.54824 5.13358 0 10.3445 0C11.4467 0 13.1769 0.220724 13.1769 0.220724V4.13341H11.3596C9.50782 4.13341 8.78481 4.69307 8.78481 6.24034V9.09969H13.1076L12.7227 13.3134H8.78467L8.78453 26.2557ZM20.7737 8.76296C20.6975 8.76296 20.6192 8.76571 20.5417 8.76764C15.6967 8.76764 13.4799 12.3888 13.4799 17.5291C13.4799 24.0045 16.3553 26.5961 20.5795 26.5961C22.9963 26.5961 24.5842 25.5854 25.5493 23.6992V26.2575H30.5191V9.10148H25.5493V11.7398C24.7613 10.0424 23.129 8.78307 20.7737 8.76296ZM22.0373 12.8169C24.0723 12.8169 25.2936 14.2272 25.2936 16.6261L25.2983 19.0762C25.2983 20.6931 24.2895 22.5847 22.0373 22.5847C18.5748 22.5847 18.6673 18.8698 18.6673 17.6326C18.6673 13.4706 20.5121 12.8169 22.0373 12.8169ZM32.5262 17.6804C32.5262 15.5956 32.4258 8.77412 41.3704 8.77412C44.9609 8.77412 46.4601 9.90846 46.4601 9.90846L45.2551 13.6221C45.2551 13.6221 43.7578 12.8028 41.8068 12.8028C39.3078 12.8028 37.7133 14.2422 37.7133 16.7747L37.7161 18.5907C37.7161 21.0242 39.2546 22.6486 41.8119 22.6486C43.5893 22.6486 45.2275 21.8216 45.2275 21.8216L46.4295 25.4576C46.4295 25.4576 45.0586 26.5992 41.3955 26.5992C32.8788 26.5992 32.5263 20.479 32.5263 17.6804H32.5262ZM75.6 8.76764C80.4451 8.76764 82.6968 12.3888 82.6968 17.5291C82.6968 24.0045 79.8213 26.5961 75.5971 26.5961C73.1802 26.5961 71.3936 25.5855 70.4285 23.6992V26.2575L65.5213 26.2555V0.521636L70.7315 0.0701301V11.5074C71.4835 9.50642 73.9548 8.76764 75.6001 8.76764H75.6ZM74.1392 12.8169C72.1043 12.8169 70.7315 14.2272 70.7315 16.6261L70.7267 19.0762C70.7236 20.6931 71.6774 22.5847 74.1392 22.5847C77.6018 22.5847 77.5093 18.8698 77.5093 17.6326C77.5093 13.4706 75.6646 12.8169 74.1392 12.8169ZM55.5004 8.78183C50.005 8.78183 47.1038 11.7588 47.1038 17.0493V18.0323C47.1038 24.8988 51.178 26.6667 56.0352 26.6667C60.7564 26.6667 62.8934 25.3546 62.8934 25.3546L61.9184 21.8605C61.9184 21.8605 59.4047 22.9232 56.6599 22.9232C53.8145 22.9232 52.5907 22.2026 52.2771 19.4856H63.3099V16.6824C63.3099 10.9436 60.0539 8.7817 55.5002 8.7817L55.5004 8.78183ZM55.6328 12.2806C57.535 12.2806 58.7676 13.4396 58.7 16.1276H52.2866C52.3978 13.2985 53.7271 12.2808 55.6328 12.2808V12.2806ZM93.0858 8.75827C87.4425 8.75827 84.4716 11.9181 84.4716 17.5808C84.4716 25.3502 89.5928 26.6008 93.0953 26.6008C98.2226 26.6008 101.634 23.858 101.634 17.6513C101.634 11.1912 97.7983 8.75827 93.0858 8.75827V8.75827ZM93.0148 12.8309C95.4963 12.8309 96.4796 14.6762 96.4796 16.7767V18.5826C96.4796 21.1271 95.1037 22.5988 93.0054 22.5988C91.043 22.5988 89.6638 21.2221 89.6638 18.5826V16.7767C89.6638 13.9615 91.3049 12.8309 93.0148 12.8309V12.8309ZM112.014 8.75827C106.37 8.75827 103.399 11.9181 103.399 17.5808C103.399 25.3502 108.521 26.6008 112.023 26.6008C117.15 26.6008 120.562 23.858 120.562 17.6513C120.562 11.1912 116.726 8.75827 112.014 8.75827V8.75827ZM111.943 12.8309C114.424 12.8309 115.407 14.6762 115.407 16.7767V18.5826C115.407 21.1271 114.031 22.5988 111.933 22.5988C109.971 22.5988 108.592 21.2221 108.592 18.5826V16.7767C108.592 13.9615 110.233 12.8309 111.943 12.8309V12.8309ZM122.53 26.2557V0.521636L127.756 0.0701301V17.3187L132.94 9.09969H138.458L133.05 17.6122L138.667 26.2557H133.133L127.756 17.8629V26.2557H122.53Z" fill="var(--fill-0, #1877F2)"/>
</svg>
