<svg preserveAspectRatio="none" width="100%" height="100%" overflow="visible" style="display: block;" viewBox="0 0 18 12.7708" fill="none" xmlns="http://www.w3.org/2000/svg">
<g id="Youtube">
<path id="Vector" d="M12.4021 6.39891L7.32614 9.63887C7.26828 9.67989 7.19908 9.70191 7.12815 9.70187C7.06887 9.71507 7.00742 9.71507 6.94815 9.70187C6.82296 9.63887 6.74571 9.50895 6.75015 9.36887V2.86196C6.74571 2.72189 6.82296 2.59196 6.94815 2.52897C7.0651 2.46144 7.20919 2.46144 7.32614 2.52897L12.4021 5.77792C12.5106 5.84655 12.5781 5.96456 12.5821 6.09292C12.5711 6.21677 12.505 6.32912 12.4021 6.39891ZM15.048 0H2.9522C2.16459 0 1.40963 0.31468 0.855248 0.874133C0.300866 1.43359 -0.00696061 2.19138 0.000119485 2.97896V9.81887C0.000119485 11.4492 1.32188 12.7708 2.9522 12.7708H15.048C16.6784 12.7708 18 11.4492 18 9.81887V2.97896C18 1.34864 16.6784 0.0269996 15.048 0.0269996V0Z" fill="var(--fill-0, #0E0F10)"/>
</g>
</svg>
