<svg preserveAspectRatio="none" width="100%" height="100%" overflow="visible" style="display: block;" viewBox="0 0 24 23.9117" fill="none" xmlns="http://www.w3.org/2000/svg">
<g id="facebook">
<rect width="24" height="23.9117" rx="11.9558" fill="var(--fill-0, white)"/>
<path id="Facebook" d="M23.9995 11.9998C23.9995 5.37253 18.627 0 11.9998 0C5.37253 0 0 5.37253 0 11.9998C0 17.6272 3.87448 22.3493 9.1011 23.6462V15.6669H6.62675V11.9998H9.1011V10.4196C9.1011 6.33539 10.9495 4.44231 14.9594 4.44231C15.7197 4.44231 17.0315 4.59159 17.5681 4.74039V8.06432C17.2849 8.03456 16.7929 8.01968 16.1819 8.01968C14.2144 8.01968 13.4541 8.7651 13.4541 10.7028V11.9998H17.3737L16.7003 15.6669H13.4541V23.9117C19.3959 23.1941 24 18.135 24 11.9998H23.9995Z" fill="var(--fill-0, #0866FF)"/>
</g>
</svg>
