<svg preserveAspectRatio="none" width="100%" height="100%" overflow="visible" style="display: block;" viewBox="0 0 26.667 26.6672" fill="none" xmlns="http://www.w3.org/2000/svg">
<g id="Group 4298">
<path id="Subtract" d="M4.42676 0L4.03516 2.03223C2.83372 2.18905 1.65054 2.44671 0.494141 2.80371L0.485352 3.13281C1.62258 2.77007 2.78839 2.50399 3.9707 2.33887L0.484375 3.17188L0 21.6289V0H4.42676ZM6.78223 2.13379C7.62215 2.12731 8.4642 2.17237 9.2998 2.26953L0.0556641 21.6289H0.0263672L6.78223 2.13379ZM23.6133 14.1299C22.1905 14.13 21.3203 15.0049 21.3203 16.1816C21.3203 17.1986 21.9123 17.6996 23.0977 18.0537C23.8058 18.2674 24.1816 18.2505 24.1816 18.7061C24.1814 18.9456 23.9589 19.1328 23.5898 19.1328C23.1019 19.1889 22.6575 18.8547 22.5732 18.3711L21.0791 18.6992C21.3339 19.8846 22.2166 20.5888 23.5703 20.5889C24.2397 20.6061 24.8856 20.3401 25.3477 19.8564C25.6887 19.4808 25.8763 18.9908 25.8721 18.4814C25.9001 17.9858 25.7129 17.503 25.3623 17.1533L25.2041 17.0225C24.8282 16.745 24.4061 16.6508 23.9395 16.5186C23.3092 16.3416 22.9621 16.3219 22.9619 15.9551C22.9878 15.6831 23.2291 15.4841 23.501 15.5098H23.5059C23.9072 15.4775 24.2742 15.7431 24.3672 16.1357L25.7295 15.6826C25.4768 14.7327 24.5957 14.0867 23.6133 14.1299ZM7.92188 14.3506L7.91797 17.4668L6.05664 14.3594H4.25195V20.582H5.83691V16.9463L7.96094 20.5732H9.46387V14.3506H7.92188ZM9.85742 14.3311V20.5781H13.9014V19.0752H11.4141V18.0234H13.4307V16.6865H11.4141V15.7773H13.8711V14.3311H9.85742ZM14.1709 14.3311L15.6162 20.5781H17.0664L17.7773 16.998L18.5088 20.5781H19.9297L21.3809 14.3311H20.0938L19.3213 17.9072L18.5654 14.3311H17.2305L16.5117 17.9434L15.7627 14.3311H14.1709ZM25.3604 17.1514L25.3623 17.1533V17.1514H25.3604ZM16.5742 6.39844C14.7671 6.47414 13.3207 7.92035 13.2451 9.72754C13.2753 11.6147 14.8297 13.12 16.7168 13.0898H16.7236C18.6086 13.1157 20.159 11.6125 20.1914 9.72754C20.1115 7.81013 18.4938 6.3207 16.5742 6.39844ZM8.98047 6.35449V13.0352H10.9629V10.8672H12.9102V9.04785H10.9629V8.17969H13.333L13.2041 6.35449H8.98047ZM19.2588 6.36133L21.208 9.57227L19.2021 13.0156H21.333L22.3047 11.377L23.3008 13.0186H25.4814L23.3779 9.55664L25.2715 6.36523H23.1123L22.2988 7.75195L21.4541 6.36133H19.2588ZM16.7021 7.64844C17.041 7.65507 17.3152 7.92498 17.3281 8.26172V11.0967C17.3043 11.4335 17.0126 11.6859 16.6758 11.6621C16.3715 11.6404 16.132 11.3988 16.1104 11.0967V8.26172C16.1125 7.93135 16.3739 7.66355 16.7021 7.64844ZM0 3.28809H0.0175781C0.0325674 3.28292 0.0475001 3.27759 0.0625 3.27246L0 3.28809ZM0.0625 3.27246L0.484375 3.17188L0.485352 3.13281C0.343967 3.17791 0.202984 3.22441 0.0625 3.27246ZM10.4209 0L9.43359 1.99316C8.58725 1.89169 7.73661 1.8416 6.88379 1.84375L7.59375 0H10.4209ZM26.667 14.8711C26.4425 14.3594 26.2005 13.856 25.9414 13.3594H25.6133C25.9867 14.048 26.3214 14.7561 26.6172 15.4814H26.667V21.6289H0.172852L3.85254 15.8838V13.9248H5.00098L8.5918 8.06738V5.9248H10.0469L12.0742 2.7793C14.5767 3.42056 16.9413 4.51261 19.0508 5.99805H19.5537C19.1954 5.73258 18.8262 5.47534 18.4463 5.23145C16.5376 4.00297 14.4433 3.08759 12.2432 2.51758L13.9014 0H26.667V14.8711Z" fill="var(--fill-0, #A0AAB0)"/>
<path id="Subtract_2" d="M26.667 26.6672H0V21.925H26.667V26.6672ZM2.57617 23.6261C1.72545 23.6369 1.18558 24.0021 1.18555 24.5959C1.18555 25.1357 1.71706 25.4855 2.52246 25.4855C3.26505 25.4854 3.75112 25.2285 3.8418 24.7902H2.96484C2.91518 24.9586 2.77457 25.0431 2.54785 25.0431C2.25223 25.0431 2.09286 24.8853 2.09277 24.5724C2.09277 24.2593 2.25902 24.0695 2.56348 24.0695C2.73397 24.0394 2.90246 24.1361 2.96289 24.298H3.85254C3.7964 23.877 3.31891 23.6262 2.57617 23.6261ZM21.9795 23.6398C21.1568 23.6398 20.623 23.9918 20.623 24.5705C20.6233 25.1489 21.1677 25.4836 22.001 25.4836C22.6917 25.4835 23.186 25.2631 23.335 24.8918H22.4844C22.4218 25.0169 22.2707 25.0821 22.0312 25.0822C21.7182 25.0822 21.5469 24.9522 21.5469 24.7082H23.3721C23.3742 24.6736 23.3742 24.6411 23.3721 24.6066C23.3785 24.0021 22.8494 23.6418 22.001 23.6418L21.9795 23.6398ZM10.0449 23.6545C9.2784 23.6545 8.85981 23.8403 8.77344 24.2463H9.58691C9.62146 24.1189 9.77067 24.05 10.0254 24.05C10.2802 24.05 10.375 24.104 10.375 24.2033V24.2443C10.3744 24.3778 10.0397 24.3496 9.41406 24.4445C8.93709 24.5158 8.69727 24.6935 8.69727 24.9806C8.69754 25.2676 9.01105 25.4787 9.54199 25.4787C9.84421 25.4873 10.1445 25.406 10.4014 25.2463C10.41 25.3066 10.4247 25.367 10.4463 25.423H11.3359V25.3586C11.2583 25.3283 11.2179 25.2373 11.2178 25.0822L11.2148 25.0881V24.4338C11.2493 24.2308 11.1827 24.0237 11.0381 23.8791C10.7401 23.6999 10.3925 23.6199 10.0449 23.6545ZM4.95312 25.4533H5.84277V24.5314C5.84277 24.2356 5.97047 24.1144 6.29004 24.1144C6.60958 24.1144 6.66113 24.2677 6.66113 24.5851V25.4533H7.55078V24.2677C7.55078 23.8834 7.24639 23.6808 6.68066 23.6808H6.67188C6.37184 23.6593 6.07374 23.7561 5.84277 23.9504V23.1125H4.95312V25.4533ZM24.5918 25.4513H25.4814V23.1105H24.5918V25.4513ZM14.3594 23.6564C14.0594 23.6305 13.7634 23.732 13.541 23.9347V23.7043H12.6816V25.4318H13.5713V24.5031C13.5713 24.2074 13.6983 24.0862 14.0176 24.0861C14.3371 24.0861 14.3896 24.2396 14.3896 24.5568V25.425H15.2793V24.2961C15.2685 23.8599 15.0242 23.6565 14.3701 23.6564H14.3594ZM18.5244 23.6564C18.2244 23.6305 17.9284 23.7319 17.7061 23.9347V23.7043H16.8613V25.4318H17.751V24.5031C17.751 24.2073 17.8787 24.0861 18.1982 24.0861C18.5177 24.0861 18.5693 24.2396 18.5693 24.5568V25.425H19.459V24.2961C19.4482 23.8599 19.2023 23.6564 18.5459 23.6564H18.5244ZM10.3711 24.8097C10.3711 24.9932 10.1573 25.1056 9.85938 25.1056C9.66083 25.1056 9.53334 25.0192 9.5332 24.9006C9.5332 24.7818 9.62613 24.7427 9.8291 24.7082C10.0126 24.6909 10.1941 24.659 10.3711 24.6115V24.8097ZM22.0049 24.0197C22.2877 24.0197 22.5035 24.1494 22.5078 24.3761H21.502C21.5365 24.1451 21.7221 24.0197 22.0049 24.0197Z" fill="var(--fill-0, #A0AAB0)"/>
</g>
</svg>
