<svg preserveAspectRatio="none" width="100%" height="100%" overflow="visible" style="display: block;" viewBox="0 0 30.75 15.8824" fill="none" xmlns="http://www.w3.org/2000/svg">
<g id="Mtv">
<path id="Vector" d="M11.5159 12.744L12.9458 13.7478V15.8824H11.5159V12.744ZM10.5011 0L14.1142 3.17647L17.7274 0H28.4591V6.73412C27.6623 7.80411 26.983 8.93097 26.4296 10.1012C26.199 10.5967 26.1836 10.9398 25.7992 10.9398C25.4149 10.9398 25.4149 10.6729 25.4149 10.4315C25.3534 9.84706 25.215 8.94494 25.1381 8.57647C25.0151 7.89035 24.8614 7.15341 23.9235 7.15341C23.5417 7.12993 23.1666 7.24599 22.8974 7.47094C22.6281 7.69589 22.4918 8.0071 22.5244 8.32235C22.641 9.1682 22.9105 9.99481 23.3239 10.7746C23.5084 11.2066 24.5693 13.5191 24.723 13.8621C24.8521 14.3489 25.3985 14.6807 25.9991 14.6372C26.7679 14.6372 27.0754 14.256 27.3521 13.4936C27.6289 12.7313 28.0901 11.4734 28.4591 10.6856V15.768H21.8786C21.7556 15.3614 21.7556 14.5736 21.7556 14.2941V11.7529C21.7556 10.9016 21.5404 9.38965 21.5404 8.56377C21.5731 8.09404 21.5731 7.62314 21.5404 7.15341C22.0016 6.8993 22.4167 6.73412 23.7236 6.07341C24.1541 5.87012 24.9536 5.50165 24.9536 5.06965C24.9536 4.87906 24.8921 4.752 24.5693 4.52329C24.3542 4.38662 24.0866 4.31891 23.8159 4.33271C23.124 4.33271 22.8319 4.87906 22.2784 5.17129L20.7409 5.89553C20.4836 5.78757 20.1992 5.731 19.9106 5.73035C19.434 5.73035 18.8651 5.90824 18.8651 6.44188C18.8651 6.6833 18.7882 7.00094 18.573 7.1153C18.3577 7.22965 17.2969 7.72518 16.1745 8.29694C15.5986 8.55186 14.9966 8.76445 14.3756 8.93224C14.0925 9.05163 13.9143 9.29215 13.9144 9.55482C13.93 9.71742 13.9933 9.87442 14.0989 10.0122C14.282 10.2692 14.6144 10.4283 14.9752 10.4315C15.744 10.4315 16.2206 9.936 17.2815 9.31341C17.8657 8.91953 18.4961 8.51294 18.819 8.51294C19.1419 8.51294 19.3571 8.71624 19.3571 9.52941C19.3571 12.2866 19.1573 12.7186 19.1573 14.6118V15.8824H17.4199V11.4226L14.0989 13.7605L10.7625 11.4226V15.8824H0V0H10.5011ZM30.75 7.06447V15.8824H29.0126V9.42777C29.514 8.6027 30.095 7.81237 30.75 7.06447ZM16.7126 12.744V13.5826L16.3744 13.8113H15.1905L16.7126 12.744ZM29.0126 0L30.75 0.876706V4.12941C30.1229 4.68475 29.5424 5.27482 29.0126 5.89553V0ZM11.5159 0.0127059L14.8061 1.21976L15.0675 1.44847L14.1142 2.28706L11.5159 0.0127059Z" fill="var(--fill-0, #A0AAB0)"/>
</g>
</svg>
