<svg width="32" height="32" viewBox="0 0 32 32" fill="none" xmlns="http://www.w3.org/2000/svg">
<path d="M7.09326 2.66669L6.70166 4.69891C5.50023 4.85573 4.31704 5.1134 3.16064 5.4704L3.15186 5.7995C4.28908 5.43675 5.45489 5.17067 6.63721 5.00555L3.15088 5.83856L2.6665 24.2956V2.66669H7.09326ZM9.44873 4.80048C10.2887 4.794 11.1307 4.83906 11.9663 4.93622L2.72217 24.2956H2.69287L9.44873 4.80048ZM26.2798 16.7966C24.857 16.7967 23.9868 17.6716 23.9868 18.8483C23.9868 19.8653 24.5788 20.3663 25.7642 20.7204C26.4723 20.9341 26.8481 20.9172 26.8481 21.3727C26.8479 21.6123 26.6254 21.7995 26.2563 21.7995C25.7684 21.8556 25.324 21.5214 25.2397 21.0378L23.7456 21.3659C24.0004 22.5513 24.8831 23.2555 26.2368 23.2556C26.9062 23.2728 27.5521 23.0068 28.0142 22.5231C28.3552 22.1475 28.5428 21.6575 28.5386 21.1481C28.5666 20.6525 28.3794 20.1696 28.0288 19.82L27.8706 19.6891C27.4947 19.4117 27.0726 19.3175 26.606 19.1852C25.9757 19.0083 25.6286 18.9886 25.6284 18.6218C25.6543 18.3498 25.8956 18.1508 26.1675 18.1765H26.1724C26.5737 18.1442 26.9407 18.4098 27.0337 18.8024L28.396 18.3493C28.1433 17.3993 27.2622 16.7534 26.2798 16.7966ZM10.5884 17.0173L10.5845 20.1335L8.72314 17.0261H6.91846V23.2487H8.50342V19.613L10.6274 23.2399H12.1304V17.0173H10.5884ZM12.5239 16.9977V23.2448H16.5679V21.7419H14.0806V20.6901H16.0972V19.3532H14.0806V18.444H16.5376V16.9977H12.5239ZM16.8374 16.9977L18.2827 23.2448H19.7329L20.4438 19.6647L21.1753 23.2448H22.5962L24.0474 16.9977H22.7603L21.9878 20.5739L21.2319 16.9977H19.897L19.1782 20.61L18.4292 16.9977H16.8374ZM28.0269 19.8181L28.0288 19.82V19.8181H28.0269ZM19.2407 9.06512C17.4336 9.14082 15.9872 10.587 15.9116 12.3942C15.9418 14.2814 17.4962 15.7867 19.3833 15.7565H19.3901C21.2751 15.7823 22.8255 14.2792 22.8579 12.3942C22.778 10.4768 21.1603 8.98739 19.2407 9.06512ZM11.647 9.02118V15.7018H13.6294V13.5339H15.5767V11.7145H13.6294V10.8464H15.9995L15.8706 9.02118H11.647ZM21.9253 9.02802L23.8745 12.239L21.8687 15.6823H23.9995L24.9712 14.0436L25.9673 15.6852H28.1479L26.0444 12.2233L27.938 9.03192H25.7788L24.9653 10.4186L24.1206 9.02802H21.9253ZM19.3687 10.3151C19.7075 10.3218 19.9817 10.5917 19.9946 10.9284V13.7634C19.9708 14.1001 19.6791 14.3525 19.3423 14.3288C19.038 14.3071 18.7985 14.0655 18.7769 13.7634V10.9284C18.779 10.598 19.0404 10.3302 19.3687 10.3151ZM2.6665 5.95477H2.68408C2.69907 5.94961 2.714 5.94428 2.729 5.93915L2.6665 5.95477ZM2.729 5.93915L3.15088 5.83856L3.15186 5.7995C3.01047 5.8446 2.86949 5.8911 2.729 5.93915ZM13.0874 2.66669L12.1001 4.65985C11.2538 4.55838 10.4031 4.50828 9.55029 4.51044L10.2603 2.66669H13.0874ZM29.3335 17.5378C29.109 17.0261 28.867 16.5226 28.6079 16.0261H28.2798C28.6532 16.7147 28.9879 17.4228 29.2837 18.1481H29.3335V24.2956H2.83936L6.51904 18.5505V16.5915H7.66748L11.2583 10.7341V8.59149H12.7134L14.7407 5.44598C17.2432 6.08725 19.6078 7.17929 21.7173 8.66473H22.2202C21.8619 8.39927 21.4927 8.14202 21.1128 7.89813C19.2042 6.66965 17.1098 5.75428 14.9097 5.18427L16.5679 2.66669H29.3335V17.5378Z" fill="#A0AAB0"/>
<path d="M29.3335 29.3339H2.6665V24.5917H29.3335V29.3339ZM5.24268 26.2928C4.39195 26.3036 3.85208 26.6688 3.85205 27.2626C3.85205 27.8024 4.38357 28.1522 5.18896 28.1522C5.93156 28.1521 6.41763 27.8952 6.5083 27.4569H5.63135C5.58168 27.6253 5.44108 27.7098 5.21436 27.7098C4.91874 27.7098 4.75937 27.552 4.75928 27.2391C4.75928 26.926 4.92553 26.7362 5.22998 26.7362C5.40048 26.7061 5.56896 26.8029 5.62939 26.9647H6.51904C6.4629 26.5437 5.98542 26.2929 5.24268 26.2928ZM24.646 26.3065C23.8233 26.3065 23.2896 26.6585 23.2896 27.2372C23.2898 27.8156 23.8342 28.1503 24.6675 28.1503C25.3582 28.1502 25.8525 27.9298 26.0015 27.5585H25.1509C25.0883 27.6836 24.9372 27.7488 24.6978 27.7489C24.3847 27.7489 24.2134 27.6189 24.2134 27.3749H26.0386C26.0407 27.3403 26.0407 27.3079 26.0386 27.2733C26.045 26.6689 25.5159 26.3085 24.6675 26.3085L24.646 26.3065ZM12.7114 26.3212C11.9449 26.3212 11.5263 26.507 11.4399 26.913H12.2534C12.288 26.7856 12.4372 26.7167 12.6919 26.7167C12.9467 26.7167 13.0415 26.7707 13.0415 26.87V26.911C13.0409 27.0445 12.7062 27.0163 12.0806 27.1112C11.6036 27.1825 11.3638 27.3602 11.3638 27.6473C11.364 27.9343 11.6775 28.1454 12.2085 28.1454C12.5107 28.154 12.811 28.0727 13.0679 27.913C13.0765 27.9733 13.0913 28.0337 13.1128 28.0897H14.0024V28.0253C13.9248 27.995 13.8844 27.9041 13.8843 27.7489L13.8813 27.7548V27.1005C13.9158 26.8975 13.8492 26.6904 13.7046 26.5458C13.4066 26.3666 13.059 26.2866 12.7114 26.3212ZM7.61963 28.12H8.50928V27.1981C8.50928 26.9023 8.63697 26.7811 8.95654 26.7811C9.27609 26.7811 9.32764 26.9344 9.32764 27.2518V28.12H10.2173V26.9344C10.2173 26.5501 9.91289 26.3475 9.34717 26.3475H9.33838C9.03834 26.326 8.74024 26.4228 8.50928 26.6171V25.7792H7.61963V28.12ZM27.2583 28.118H28.1479V25.7772H27.2583V28.118ZM17.0259 26.3231C16.7259 26.2972 16.4299 26.3987 16.2075 26.6014V26.371H15.3481V28.0985H16.2378V27.1698C16.2378 26.8741 16.3648 26.7529 16.6841 26.7528C17.0036 26.7528 17.0561 26.9063 17.0562 27.2235V28.0917H17.9458V26.9628C17.935 26.5266 17.6907 26.3232 17.0366 26.3231H17.0259ZM21.1909 26.3231C20.8909 26.2972 20.5949 26.3986 20.3726 26.6014V26.371H19.5278V28.0985H20.4175V27.1698C20.4175 26.874 20.5452 26.7528 20.8647 26.7528C21.1842 26.7528 21.2358 26.9063 21.2358 27.2235V28.0917H22.1255V26.9628C22.1147 26.5266 21.8688 26.3231 21.2124 26.3231H21.1909ZM13.0376 27.4764C13.0376 27.6599 12.8238 27.7723 12.5259 27.7723C12.3273 27.7723 12.1998 27.6859 12.1997 27.5673C12.1997 27.4485 12.2926 27.4094 12.4956 27.3749C12.6791 27.3576 12.8606 27.3257 13.0376 27.2782V27.4764ZM24.6714 26.6864C24.9542 26.6864 25.17 26.8161 25.1743 27.0428H24.1685C24.203 26.8118 24.3886 26.6864 24.6714 26.6864Z" fill="#A0AAB0"/>
</svg>
