<svg preserveAspectRatio="none" width="100%" height="100%" overflow="visible" style="display: block;" viewBox="0 0 78 20" fill="none" xmlns="http://www.w3.org/2000/svg">
<path id="match" fill-rule="evenodd" clip-rule="evenodd" d="M0 19.6316V19.2105C0.78841 19 1.4717 18.4211 1.4717 16.7368V9.36842C1.4717 7.73684 0.946092 7.15789 0 7.05263V6.68421C1.62938 6.52632 3.2062 6.1579 4.62534 5.57895H4.6779C4.57278 6.57895 4.46766 7.78947 4.46766 9.05263H4.52022C5.15094 6.63158 6.78032 5.73684 8.72507 5.73684C10.6698 5.73684 12.1415 6.78947 12.6671 9.05263C13.2453 6.63158 14.9272 5.73684 16.872 5.73684C18.8167 5.73684 21.0768 7.52632 21.0768 10.3684V16.7895C21.0768 18.4737 21.7601 19.0526 22.5485 19.2632V19.6842H16.1887V19.2632C16.9771 19.0526 17.6078 18.4737 17.6078 16.7895V10.3684C17.6078 7.73684 16.9771 6.78947 15.6631 6.78947C14.3491 6.78947 12.9825 7.78947 12.9825 10.4211V16.7895C12.9825 18.4737 13.6132 19.0526 14.4016 19.2632V19.6842H8.04178V19.2632C8.83019 19.0526 9.46092 18.4737 9.46092 16.7895V10.3684C9.46092 7.73684 8.77763 6.78947 7.41105 6.78947C6.04448 6.78947 4.83558 7.78947 4.83558 10.4211V16.7895C4.83558 18.4737 5.46631 19.0526 6.25472 19.2632V19.6842H0V19.6316ZM69.0121 16.7368V10.3684C69.0121 7.42105 67.4879 5.68421 64.8073 5.68421C62.1267 5.68421 61.6011 6.42105 60.7601 8.1579H60.7076L60.8652 5.68421V0H60.8127C59.1833 0.578947 57.6065 0.947368 55.9245 1V1.36842C56.9232 1.57895 57.3962 2.21053 57.3962 3.63158V16.6316C57.3962 18.3158 56.9757 18.8947 55.9245 19.1053V19.5263H62.2318V19.1053C61.2332 18.8947 60.8652 18.3158 60.8652 16.6316V10.2632C60.8652 7.42105 62.4421 6.63158 63.5984 6.63158C64.7547 6.63158 65.5431 7.63158 65.5431 10.2632V16.6316C65.5431 18.2632 65.1226 18.8947 64.124 19.1053V19.5263H70.4838V19.1053C69.4852 18.8947 69.0121 18.2105 69.0121 16.6316V16.7368ZM37.0027 18.3684C36.4771 19.2105 35.6361 20 34.4272 20C33.2183 20 32.1671 18.7368 31.8518 17.2105H31.7992C31.0633 18.8947 29.434 20 27.4892 20C25.5445 20 23.3895 19 23.3895 16.5789C23.3895 12 31.3261 13.6316 30.8005 10.6316C30.2749 7.63158 29.6968 6.26316 27.9097 6.26316C26.1226 6.26316 26.0701 6.68421 26.0701 7.89474C26.0701 9.10526 27.0162 9.1579 27.0162 10.3684C27.0162 11.5789 26.3329 12 25.2817 12C24.2305 12 23.2844 11.1053 23.2844 9.84211C23.2844 7.57895 25.7022 5.73684 28.8032 5.73684C31.9043 5.73684 33.6914 8.10526 34.1119 10.6316L34.9528 15.7895C35.3208 18.1579 35.7412 18.4737 36.2668 18.4737C36.7925 18.4737 36.6873 18.4211 36.8976 18.2632L37.0027 18.4211V18.3684ZM31.4838 15.8421C31.4838 15 31.3261 13.8947 31.0108 12H30.9582C30.0647 13.4211 26.8059 13.6316 26.8059 16C26.8059 18.3684 27.9623 18.2632 29.2237 18.2632C30.4852 18.2632 31.4838 17.4211 31.4838 15.8421ZM43.0997 18.5263C42.2062 18.5263 41.2076 17.9474 41.2076 15.9474V6.63158H44.7291V5.52632C43.6779 5.84211 42.2588 6 41.2076 6V0.947368H40.7871C40.1038 3 37.8962 5.73684 35.3208 6.05263V6.63158H37.7385V15.9474C37.7385 18.7895 39 20 41.1024 20C43.2049 20 44.0458 18.9474 44.4138 18.3684L44.2561 18.2105C43.9407 18.4211 43.5728 18.5263 43.0472 18.5263H43.0997ZM51.9825 17.5263C49.1442 17.5263 46.9892 14.8421 46.9892 11.2105C46.9892 7.57895 48.4084 6.21053 50.721 6.21053C53.0337 6.21053 52.876 7.1579 52.876 8.1579C52.876 9.1579 52.2453 9.26316 52.2453 10.3158C52.2453 11.3684 52.9286 11.9474 53.9798 11.9474C55.031 11.9474 55.7669 11.1579 55.7669 9.78947C55.7669 7.36842 53.4016 5.68421 50.8261 5.68421C46.8315 5.68421 43.8881 9 43.8881 12.7895C43.8881 16.5789 46.0957 19.9474 50.4582 19.9474C54.8208 19.9474 55.3989 17.7895 56.0297 15.1579H55.8194C54.8733 16.8947 53.3491 17.4737 51.9299 17.4737L51.9825 17.5263ZM74.4259 14.5263C74.1105 13.8947 73.4798 13.3684 72.6388 13.3684C71.7978 13.3684 70.7466 14.1579 70.7466 15.2632C70.7466 17.2105 73.3747 18.4211 74.3733 20C75.372 18.3684 78 17.2105 78 15.2632C78 13.3158 77.2116 13.3684 76.1604 13.3684C75.1092 13.3684 74.6887 13.8947 74.3733 14.5263H74.4259Z" fill="var(--fill-0, #141651)"/>
</svg>
