<svg width="31" height="32" viewBox="0 0 31 32" fill="none" xmlns="http://www.w3.org/2000/svg">
<path d="M24.9934 6.23175C24.9934 3.3797 22.2866 2.66669 20.1497 2.66669V3.09449C21.4318 3.09449 22.4291 3.5223 22.4291 4.52052C22.4291 5.09093 22.0017 5.94654 20.7195 5.94654C19.7223 5.94654 17.5853 5.37613 16.0182 4.80572C14.1662 4.09271 12.4567 3.5223 11.032 3.5223C8.18276 3.5223 6.18827 5.66134 6.18827 8.08558C6.18827 10.2246 7.75537 10.9376 8.32522 11.2228L8.46768 10.9376C8.18276 10.6524 7.75537 10.3672 7.75537 9.51161C7.75537 8.9412 8.32522 7.94298 9.74985 7.94298C11.032 7.94298 12.7416 8.51339 15.021 9.2264C17.0155 9.79681 19.1524 10.2246 20.2921 10.3672V14.7879L18.1552 16.6417V16.7843L20.2921 18.6382V24.7701C19.1524 25.4831 17.8702 25.6257 16.7305 25.6257C14.5936 25.6257 12.7416 25.0553 11.1745 23.344L17.0155 20.492V10.6524L9.89231 13.7897C10.4622 11.9358 12.0293 10.6524 13.5964 9.79681L13.4539 9.369C9.18 10.5098 5.3335 14.5027 5.3335 19.3512C5.3335 25.0553 10.0348 29.3334 15.3059 29.3334C21.0044 29.3334 24.7085 24.7701 24.7085 20.0642H24.4235C23.5688 21.918 22.2866 23.6293 20.7195 24.4849V18.6382L22.9989 16.7843V16.6417L20.7195 14.7879V10.3672C22.8565 10.3672 24.9934 8.9412 24.9934 6.23175ZM12.5991 21.918L10.8896 22.7736C9.89231 21.4902 9.32246 19.779 9.32246 17.3547C9.32246 16.3565 9.32246 15.2157 9.60739 14.3601L12.5991 13.0767V21.918Z" fill="#A0AAB0"/>
</svg>
