<svg width="51" height="32" viewBox="0 0 51 32" fill="none" xmlns="http://www.w3.org/2000/svg">
<path fill-rule="evenodd" clip-rule="evenodd" d="M13.6443 7.44954C12.9332 4.02033 12.7109 3.88496 11.1109 3.79472V3.20814H18.2665V3.79472C16.3109 3.9752 16.2665 3.9752 16.9776 7.991L19.3332 20.6701L22.1332 7.04345C22.7109 4.24593 22.4887 3.9752 20.6665 3.83984L20.0887 3.79472V3.20814H25.1998V3.79472C23.6443 3.93008 23.6443 4.33617 23.0221 7.31418L18.4443 29.3334H17.9998L14.0887 9.61536L9.95539 29.3334H9.51095L4.84428 6.23127C4.44428 4.20081 4.35539 3.88496 2.6665 3.79472V3.20814H9.64428V3.79472C7.8665 3.9752 7.82206 4.15569 8.53317 7.991L10.9332 20.5798L13.6443 7.44954ZM32.2665 29.198C29.7332 29.198 28.2221 26.8066 27.6443 26.8066C27.0221 26.8066 26.311 28.1602 26.0887 28.7468H25.5554V20.264H26.0887C27.6443 24.9115 30.1332 28.5663 32.1776 28.5663C33.3776 28.5663 34.1332 27.4383 34.1332 25.7688C34.1332 19.6323 25.6887 15.6616 25.6887 8.12636C25.6887 5.05811 27.8221 2.66669 30.1332 2.66669C32.2221 2.66669 33.3776 4.3813 34.0443 4.3813C34.3998 4.3813 34.6665 4.11057 35.111 3.02766H35.511V10.608H34.9776C33.9998 6.95321 31.9998 3.25326 30.0443 3.25326C28.8443 3.25326 27.9554 4.3813 27.9554 6.05078C27.9554 11.9617 36.3998 15.7067 36.3998 23.5127C36.4443 26.7614 34.4887 29.198 32.2665 29.198ZM41.0221 29.198C38.4443 29.198 37.4221 27.5736 37.4221 25.9944C37.4221 24.4151 38.3554 22.7908 39.7776 22.7908C41.2887 22.7908 41.9109 24.3249 41.1998 25.4078C40.6221 26.3554 39.0665 26.4456 39.0665 27.1675C39.0665 28.2956 39.9998 28.5663 40.7554 28.5663C42.9776 28.5663 42.8443 27.1675 42.8443 22.3847V5.46421C42.8443 4.11057 42.5332 3.79472 41.111 3.79472H40.5776V3.20814H47.9998V3.79472H47.3776C46.6221 3.79472 46.311 4.11057 46.311 5.50933V22.0688C46.311 26.7163 43.0221 29.198 41.0221 29.198Z" fill="#A0AAB0"/>
</svg>
